<svg xmlns="http://www.w3.org/2000/svg" width="1920" height="5276" viewBox="0 0 1920 5276">
  <defs>
    <style>

    </style>
  </defs>
  <title>timeline</title>
  <g id="Outline">
    <line class="cls-1" x1="749.5" y1="67" x2="769.29" y2="5896"/>
  </g>
  <g id="IKONER">
    <g id="_1" data-name="1">
      <circle class="cls-2" cx="746" cy="190" r="125"/>
      <g>
        <path id="alarm" d="M824.64,137.05c-.67,1-.51,2.15-.78,3.22a20.66,20.66,0,0,1-4.78,9c-1.64,1.81-3,1.88-4.71.18-3-3-6-6-9-9-.66-.68-1-.69-1.65,0a20.68,20.68,0,0,1-2.53,2.51c-.89.72-.67,1.16,0,1.88a66.67,66.67,0,0,1,14.1,23,65.33,65.33,0,0,1,3.7,30.09c-2.54,22.21-13.46,39.19-32.24,51.21-.27.18-.53.38-.86.62.36.38.68.72,1,1,2.09,2.09,4.2,4.17,6.26,6.28,1.25,1.28,1.32,2.76.29,3.81s-2.48,1-3.81-.22c-.25-.23-.47-.47-.71-.71-2.29-2.29-4.61-4.57-6.87-6.9a1.39,1.39,0,0,0-1.92-.37,67,67,0,0,1-30.9,6.4,65.85,65.85,0,0,1-26.35-6.25,1.82,1.82,0,0,0-2.53.43c-2.42,2.56-4.94,5-7.47,7.5a2.46,2.46,0,0,1-3.7.11,2.56,2.56,0,0,1,.11-3.6c.24-.29.53-.55.8-.82l6.72-6.71-1.91-1.24c-14.68-9.52-24.75-22.6-29.17-39.54-6.19-23.72-.93-45,15.13-63.5,1.41-1.63,1.45-1.6-.06-3.1-.87-.87-1.74-2.39-2.66-2.42s-1.88,1.56-2.79,2.46c-2.38,2.34-4.72,4.73-7.1,7.08-1.67,1.65-3.07,1.63-4.61-.12-5.18-5.87-6.77-12.66-4.41-20.08s7.78-12.1,15.5-13.89c.53-.12,1.15.12,1.6-.36h4.58a18.2,18.2,0,0,1,10.38,3.88,12.49,12.49,0,0,1,1.4,1.22c1.95,2,2,3.45.09,5.43-3,3.11-6.13,6.14-9.19,9.22-1.29,1.3-1.29,1.3,0,2.58,2.43,2.44,2.39,2.39,5.1.26a67.9,67.9,0,0,1,33.94-14.41,66.91,66.91,0,0,1,34.08,4.34,66.09,66.09,0,0,1,18.22,10.88c1.66,1.41,1.69,1.41,3.22-.15,2.49-2.53,2.5-1.87,0-4.41s-5.34-5.31-8-8c-2.29-2.33-2.32-3.88.12-6,3.08-2.68,6.55-4.61,10.79-4.68a.53.53,0,0,0,.38-.14h4.87a17.74,17.74,0,0,1,10.56,4.11c4.61,3.74,7.37,8.5,7.62,14.55a.77.77,0,0,0,.15.53v.86a.65.65,0,0,0,0,.85Z"/>
        <path class="cls-3" d="M824.64,135.9c-.47-.28-.46-.57,0-.85Z"/>
        <path class="cls-4" d="M751.27,128c34.59-.12,63,28.15,63.07,62.89A63,63,0,1,1,751.27,128Z"/>
        <path class="cls-4" d="M816.44,144.43c-7-7-13.93-14-20.88-20.91-.6-.59-.3-.75.23-1.09a15.4,15.4,0,0,1,23.39,10.76A15.21,15.21,0,0,1,816.44,144.43Z"/>
        <path class="cls-4" d="M686.21,144.43a15.35,15.35,0,0,1,20.54-22.05c.48.3,1.07.42.33,1.16C700.13,130.46,693.2,137.42,686.21,144.43Z"/>
        <path d="M753.87,168.32c0,3.91,0,7.83,0,11.74a1.41,1.41,0,0,0,1.07,1.65,9.2,9.2,0,0,1,5.7,5.64,1.59,1.59,0,0,0,1.86,1.2c5.34,0,10.69,0,16,0,1.86,0,2.92.85,3,2.33s-1,2.63-2.84,2.65c-3.82,0-7.64,0-11.46,0a14.42,14.42,0,0,1-1.86,0c-2.63-.33-4.45.09-5.83,3-1.78,3.78-6.61,5.34-10.59,4.3a10,10,0,0,1-7.66-9.23,9.8,9.8,0,0,1,6.38-9.84c1-.36,1.12-.87,1.12-1.76,0-7.74,0-15.47,0-23.2a5.45,5.45,0,0,1,.2-1.84,2.34,2.34,0,0,1,2.38-1.68,2.3,2.3,0,0,1,2.28,1.63,4.73,4.73,0,0,1,.23,1.83Z"/>
        <path class="cls-5" d="M748.78,136.52c0-2.51.81-3.73,2.5-3.76s2.59,1.22,2.59,3.81c0,.24,0,.48,0,.71-.07,1.88-1,3-2.57,3s-2.47-1.12-2.52-3C748.77,137,748.78,136.76,748.78,136.52Z"/>
        <path class="cls-5" d="M753.84,245c0,2.47-.83,3.73-2.52,3.73s-2.54-1.26-2.54-3.75a11.23,11.23,0,0,1,0-1.42,2.51,2.51,0,0,1,5,0A11.36,11.36,0,0,1,753.84,245Z"/>
        <path class="cls-5" d="M716.37,227.9c0,1.81-2.74,4.58-4.34,4.53a2.37,2.37,0,0,1-2.09-1.28,2.23,2.23,0,0,1,.1-2.54,10.15,10.15,0,0,1,2.51-2.51,2.28,2.28,0,0,1,2.54-.08A2.44,2.44,0,0,1,716.37,227.9Z"/>
        <path class="cls-5" d="M793.07,230a2.49,2.49,0,0,1-3.74,2.06,8.32,8.32,0,0,1-2.7-2.71,2.47,2.47,0,0,1,2.08-3.71C790.26,225.62,793.13,228.49,793.07,230Z"/>
        <path class="cls-5" d="M716.4,153.16a2.61,2.61,0,0,1-1.26,2.24,2.3,2.3,0,0,1-2.55,0,9.51,9.51,0,0,1-2.52-2.5,2.28,2.28,0,0,1,.27-3.11,2.32,2.32,0,0,1,3.22-.23C714.78,150.55,716.16,151.5,716.4,153.16Z"/>
        <path class="cls-5" d="M793.08,151.54c0,1.46-2.77,4.21-4.3,4.21a2.38,2.38,0,0,1-2.13-1.19,2.24,2.24,0,0,1,0-2.56,10.12,10.12,0,0,1,2.61-2.61,2.29,2.29,0,0,1,2.43-.09A2.63,2.63,0,0,1,793.08,151.54Z"/>
        <path d="M697.11,193.18a11.75,11.75,0,0,1-1.57,0,2.43,2.43,0,0,1-2.17-2.41,2.35,2.35,0,0,1,2.12-2.45,16.47,16.47,0,0,1,3,0,2.49,2.49,0,0,1,2.42,2.49,2.54,2.54,0,0,1-2.5,2.44c-.42,0-.85,0-1.28,0Z"/>
        <path d="M805.54,193.18a13.52,13.52,0,0,1-1.56,0,2.53,2.53,0,0,1-2.22-2.4,2.45,2.45,0,0,1,2.13-2.46,16.47,16.47,0,0,1,3-.05,2.42,2.42,0,0,1,2.41,2.49,2.45,2.45,0,0,1-2.45,2.45c-.43,0-.86,0-1.28,0Z"/>
        <path class="cls-4" id="alarm2" d="M751.3,196.05a5,5,0,1,1,.12-10,5,5,0,0,1-.12,10Z"/>
      </g>
    </g>
    <g id="_2" data-name="2">
      <circle class="cls-2" cx="749" cy="432" r="75"/>
      <g>
        <path class="cls-6" d="M780.36,381.49a6.48,6.48,0,0,1,5.49,6.71q0,14.35,0,28.7a1.34,1.34,0,0,0,.73,1.32,8.09,8.09,0,0,1,3.79,7.28c0,5.78,0,11.55,0,17.33,0,.73.16,1,.94,1.1a7.89,7.89,0,0,1,6.63,7.1c.12,2.24.07,4.48.07,6.73,0,5.47,0,10.95,0,16.43,0,4.14-2.17,7.08-6,8.2a9.14,9.14,0,0,1-2.55.31H759.79a8.05,8.05,0,0,1-8.23-6.07,8.51,8.51,0,0,1-.29-2.35q0-11,0-22.07a8.11,8.11,0,0,1,5.67-8.06c.09,0,.19,0,.28-.08.53-.27,1.38.07,1.64-.45a4.57,4.57,0,0,0,.08-1.86c0-5.37,0-10.75,0-16.13A8.15,8.15,0,0,1,763,418c.45-.26.42-.58.42-1,0-6.57,0-13.13,0-19.7,0-3.93,1.73-7.11,4.24-9.94a18,18,0,0,1,9.85-6,.16.16,0,0,0,0-.08h1.79C779.65,381.56,780,381.3,780.36,381.49Z"/>
        <path class="cls-7" d="M708,444.08q0-15,0-30a8.1,8.1,0,0,1,4.57-7.8,7.91,7.91,0,0,1,3.73-.82c7.86,0,15.71,0,23.57,0a8,8,0,0,1,8.36,8.36q0,30.24,0,60.49a8.09,8.09,0,0,1-8.46,8.38q-11.62,0-23.26,0c-5.07,0-8.49-3.43-8.5-8.52C708,464.14,708,454.11,708,444.08Z"/>
        <path class="cls-8" d="M774.68,475.19H760c-1.22,0-1.28-.06-1.28-1.3,0-7.12,0-14.25,0-21.38,0-.93.29-1.29,1.25-1.28q14.65,0,29.3,0c.88,0,1.23.27,1.23,1.18q0,10.8,0,21.58c0,1-.37,1.23-1.28,1.22C784.39,475.17,779.53,475.19,774.68,475.19Z"/>
        <path class="cls-8" d="M766.44,434.19c0-2.87,0-5.74,0-8.61,0-.86.27-1.15,1.14-1.14q7.06,0,14.14,0c.85,0,1.17.27,1.17,1.14q0,8.7,0,17.4c0,.61-.15.78-.77.78-5,0-10,0-14.93,0-.62,0-.76-.17-.75-.77C766.46,440.06,766.44,437.12,766.44,434.19Z"/>
        <path class="cls-8" d="M778.35,401.3v1.52c0,4.51,0,9,0,13.53,0,.65-.08.92-.83.9-2-.06-3.95,0-5.93,0-.56,0-.73-.16-.72-.73,0-3.85,0-7.7,0-11.56,0-.39,0-.66.54-.71A14.54,14.54,0,0,0,778.35,401.3Z"/>
        <path class="cls-9" d="M771.08,396.62c-.32-1.94,3.87-6.88,7-7.57C778.34,391.4,773.8,396.33,771.08,396.62Z"/>
        <path class="cls-8" d="M740.73,444v29.8c0,1.38,0,1.38-1.39,1.38H716.86c-1.33,0-1.36,0-1.36-1.4v-59.4c0-1.42,0-1.42,1.43-1.42h22.48c1.29,0,1.32,0,1.32,1.34Z"/>
      </g>
    </g>
    <g id="_3" data-name="3">
      <circle class="cls-2" cx="753" cy="626" r="75"/>
      <g>
        <path d="M712.06,616.57a5.75,5.75,0,0,1,2.75-3.78,5.15,5.15,0,0,1,7.46,3.1c.21.74.46.75,1.11.55q22.43-7.1,44.87-14.13a1,1,0,0,0,.82-1.15,6.29,6.29,0,0,1,2.35-5.76,5.73,5.73,0,0,1,6-.75,5.67,5.67,0,0,1,3.53,4.86,17.08,17.08,0,0,1,.08,1.75q0,22.93,0,45.88a6.74,6.74,0,0,1-1.62,5,6,6,0,0,1-10.3-3.2,11.41,11.41,0,0,1-.1-2.19c0-.41-.11-.59-.54-.73q-8.14-2.53-16.29-5.13c-.55-.18-.62-.06-.61.47a5,5,0,0,1-6.61,5q-8.52-2.67-17-5.51c-3.6-1.21-4.71-4.87-2.54-8l.15-.3c-.94-.3-1.85-.57-2.76-.88-.58-.19-.44.3-.51.54a5.16,5.16,0,0,1-5.73,3.85,5,5,0,0,1-4.23-3.38c-.12-.33-.23-.66-.34-1Z"/>
        <path class="cls-5" d="M787.82,622.62c1.49,0,2.22.49,2.24,1.49s-.74,1.53-2.28,1.53-2.23-.53-2.21-1.53S786.32,622.62,787.82,622.62Z"/>
        <path class="cls-5" d="M793.81,622.62c1.5,0,2.22.48,2.25,1.47s-.73,1.55-2.27,1.55-2.22-.51-2.21-1.52S792.32,622.62,793.81,622.62Z"/>
        <path class="cls-10" d="M799.81,622.62c1.51,0,2.23.48,2.25,1.48s-.73,1.54-2.28,1.54-2.2-.51-2.19-1.53S798.33,622.62,799.81,622.62Z"/>
        <path class="cls-5" d="M787.25,608.15a1.48,1.48,0,0,1-1.46-2.18,5,5,0,0,1,1.58-1.61,1.33,1.33,0,0,1,1.82.24,1.3,1.3,0,0,1,.15,1.82C788.73,607.18,788.16,608,787.25,608.15Z"/>
        <path class="cls-5" d="M789.6,642.38a1.54,1.54,0,0,1-.72,1.53,1.31,1.31,0,0,1-1.48,0,5.54,5.54,0,0,1-1.6-1.6,1.34,1.34,0,0,1,.21-1.76,1.3,1.3,0,0,1,1.82-.21C788.61,640.93,789.44,641.52,789.6,642.38Z"/>
        <path class="cls-5" d="M793.84,601.35a3.42,3.42,0,0,1-2.52,2.56,1.46,1.46,0,0,1-1.34-2.09,4.47,4.47,0,0,1,1.76-1.77A1.45,1.45,0,0,1,793.84,601.35Z"/>
        <path class="cls-5" d="M799.84,609.9A1.52,1.52,0,0,1,801.3,611a1.36,1.36,0,0,1-.67,1.64,5.46,5.46,0,0,1-2.06.69,1.36,1.36,0,0,1-1.5-1,1.34,1.34,0,0,1,.46-1.64A6.09,6.09,0,0,1,799.84,609.9Z"/>
        <path class="cls-5" d="M793.85,646.74a1.52,1.52,0,0,1-.8,1.45,1.31,1.31,0,0,1-1.48-.07,6.08,6.08,0,0,1-1.47-1.48,1.32,1.32,0,0,1,.15-1.82,1.29,1.29,0,0,1,1.82-.23C792.86,645.19,793.74,645.78,793.85,646.74Z"/>
        <path class="cls-5" d="M795.67,613.3c-.08,1.36-1.22,1.47-2.15,1.81a1.53,1.53,0,0,1-2-.54,1.44,1.44,0,0,1,.49-2,5.27,5.27,0,0,1,2-.68A1.47,1.47,0,0,1,795.67,613.3Z"/>
        <path class="cls-5" d="M788.49,613.73a1.36,1.36,0,0,1,1.39,1,1.34,1.34,0,0,1-.56,1.68,4.75,4.75,0,0,1-2.22.73,1.33,1.33,0,0,1-1.44-1,1.4,1.4,0,0,1,.53-1.62A6.31,6.31,0,0,1,788.49,613.73Z"/>
        <path class="cls-5" d="M787.23,631.12a5.87,5.87,0,0,1,2.12.75,1.37,1.37,0,0,1,.53,1.7,1.31,1.31,0,0,1-1.41.95,4.77,4.77,0,0,1-2.29-.77,1.3,1.3,0,0,1-.51-1.62A1.45,1.45,0,0,1,787.23,631.12Z"/>
        <path class="cls-5" d="M801.36,636.76a1.48,1.48,0,0,1-1.7,1.55,7.9,7.9,0,0,1-1.88-.65,1.38,1.38,0,0,1-.72-1.76,1.45,1.45,0,0,1,1.74-.94,10.61,10.61,0,0,1,1.65.54A1.4,1.4,0,0,1,801.36,636.76Z"/>
        <path class="cls-5" d="M794.07,636.45a6.78,6.78,0,0,1-2.15-.77,1.34,1.34,0,0,1-.54-1.69,1.32,1.32,0,0,1,1.48-1,5.08,5.08,0,0,1,2.13.71,1.34,1.34,0,0,1,.59,1.67A1.45,1.45,0,0,1,794.07,636.45Z"/>
        <path class="cls-5" d="M795.6,599.69a1.57,1.57,0,0,1-1.34-.8,1.39,1.39,0,0,1,.1-1.55,6.5,6.5,0,0,1,1.41-1.41,1.41,1.41,0,0,1,1.91.17,1.36,1.36,0,0,1,.14,1.84A3.65,3.65,0,0,1,795.6,599.69Z"/>
        <path class="cls-5" d="M795.52,648.58a3.39,3.39,0,0,1,2.56,2.61,1.44,1.44,0,0,1-2.14,1.24,4.71,4.71,0,0,1-1.65-1.64A1.47,1.47,0,0,1,795.52,648.58Z"/>
        <path class="cls-4" d="M769.05,605.18v.93q0,18,0,36c0,.73-.06.93-.88.67q-22.43-7.11-44.86-14.13c-.56-.17-.79-.38-.77-1q.06-3.55,0-7.11c0-.65.25-.84.79-1q21.85-6.85,43.69-13.74Z"/>
        <path class="cls-4" d="M778.06,624.17v23.28a6.58,6.58,0,0,1-.12,1.48,3,3,0,0,1-5.77-.13,6.22,6.22,0,0,1-.11-1.22q0-23.45,0-46.91c0-2.41,1.55-3.88,3.64-3.46a2.92,2.92,0,0,1,2.3,2.46,10,10,0,0,1,.06,1.23Z"/>
        <path class="cls-4" d="M729.76,633.94a4,4,0,0,1,.86.21l16.15,5.24c1,.31,1.71.79,1.86,1.86a2,2,0,0,1-2.6,2.25c-2.44-.7-4.84-1.52-7.26-2.3q-4.83-1.56-9.65-3.14c-1.45-.48-2.06-1.61-1.59-2.82A2.11,2.11,0,0,1,729.76,633.94Z"/>
        <path class="cls-4" d="M715.05,624.13c0-2.14,0-4.27,0-6.41a2.27,2.27,0,1,1,4.51,0q0,6.4,0,12.81a2.27,2.27,0,1,1-4.51,0C715.05,628.4,715.05,626.26,715.05,624.13Z"/>
      </g>
    </g>
    <g id="_4" data-name="4">
      <circle class="cls-2" cx="746" cy="938" r="125"/>
      <g>
        <path d="M678,973.47c1.44-1.9,3-2.21,4.28-.83a3.44,3.44,0,0,1,.63,2.73c0,.87,0,1.41,1.16,1.37s1.41-.22,1.38-1.35c-.08-2.4.75-3.55,2.36-3.59s2.57,1.19,2.52,3.63c0,1,.17,1.31,1.23,1.31s1.25-.3,1.24-1.29q0-23.7,0-47.4c0-.34,0-.67,0-1.12A9.81,9.81,0,0,1,681.83,911c3.93-3.7,8.39-6.77,12.63-10.09q25.23-19.79,50.47-39.54c2.23-1.76,4.21-3.82,6.29-5.75.44-.41.74-.79,1.39-.17,10.4,9.93,22.24,18.1,33.45,27,11.4,9.1,23,18,34.44,27,4.29,3.35,5.67,8,3.69,12.34a9.72,9.72,0,0,1-12.12,5.33l-.67-.23a2.33,2.33,0,0,0-.17,1.43q0,23.4,0,46.82c0,1.44.6,1.85,2,1.49.51-.13.41-.44.42-.75a9.86,9.86,0,0,1,.16-2.3,2.27,2.27,0,0,1,2.44-1.82,2.24,2.24,0,0,1,2.26,2,4.71,4.71,0,0,1,.07,1.29c-.21,1.29.28,1.7,1.56,1.58.74-.07,1-.21,1-1a7.7,7.7,0,0,1,0-1.73,2.53,2.53,0,0,1,2.44-2.24,2.56,2.56,0,0,1,2.39,2.14,4.1,4.1,0,0,1,0,.86c0,7,0,14.07,0,21.1a3,3,0,0,1-.64,2.16,2.3,2.3,0,0,1-2.34.79,2.38,2.38,0,0,1-1.88-2,4.11,4.11,0,0,1,0-1.44c.2-1.23-.3-1.55-1.48-1.47-.81,0-1.11.24-1,1.07a7.36,7.36,0,0,1-.09,1.87,2.21,2.21,0,0,1-2.3,2,2.17,2.17,0,0,1-2.34-1.74,5.9,5.9,0,0,1-.17-2c.1-1-.32-1.14-1.21-1.17s-1.31.24-1.27,1.26c0,1.19.54,2.74-.19,3.47s-2.29.22-3.48.22q-56.58,0-113.15,0c-1.33,0-1.8-.34-1.61-1.65a11.67,11.67,0,0,0,0-1.87c0-1.36-.72-1.84-2-1.44-.51.15-.35.49-.37.79a9.83,9.83,0,0,1-.17,2.29,2.27,2.27,0,0,1-2.46,1.8,2.22,2.22,0,0,1-2.23-2.06,6,6,0,0,1-.07-1.58c.13-1-.28-1.27-1.27-1.28s-1.41.25-1.25,1.27a6.41,6.41,0,0,1,0,1.16,2.42,2.42,0,0,1-1.75,2.39,2.32,2.32,0,0,1-2.76-1c-.13-.19-.27-.38-.41-.56Z"/>
        <path class="cls-4" d="M806.28,958.59c0,11.32,0,22.64,0,34,0,1.23-.36,1.49-1.53,1.47-3.94-.08-7.9-.08-11.84,0-1.19,0-1.51-.25-1.51-1.48,0-13,0-25.91.07-38.87,0-1.33-.35-1.64-1.65-1.64q-15.75.09-31.51,0c-1.24,0-1.46.34-1.46,1.51.05,13,0,26,.06,39,0,1.23-.33,1.46-1.5,1.46q-28.11-.06-56.22,0c-1.3,0-1.55-.34-1.55-1.58q.06-33.83,0-67.64a2.42,2.42,0,0,1,1-2.15q26.12-20.07,52.15-40.2a1.47,1.47,0,0,1,2.19,0q26,20.1,52,40.12a2.62,2.62,0,0,1,1.2,2.37C806.27,936.14,806.28,947.36,806.28,958.59Z"/>
        <path class="cls-4" d="M688.84,922.84a5,5,0,0,1-4.62-3.13,4.78,4.78,0,0,1,1.48-5.6c2.9-2.38,5.89-4.66,8.84-7q26.73-20.91,53.45-41.83c1.17-.92,2.24-2,3.32-3,.45-.43.75-.56,1.3-.08,13,11.15,26.88,21.26,40.28,31.93,8.13,6.48,16.36,12.83,24.57,19.22,1.65,1.28,2.86,2.76,2.63,5a4.89,4.89,0,0,1-8,3.33c-4.05-3-8-6.15-12-9.24q-23.44-18.08-46.87-36.17a1.59,1.59,0,0,0-2.39,0q-29.13,22.51-58.31,45A6.28,6.28,0,0,1,688.84,922.84Z"/>
        <path class="cls-4" d="M786.52,975.64c0,5.69,0,11.37,0,17.05,0,1.13-.32,1.33-1.36,1.32q-11.06-.06-22.11,0c-1,0-1.26-.27-1.26-1.27q.06-17.26,0-34.54c0-1.05.32-1.24,1.29-1.23q11.13.06,22.25,0c1,0,1.19.25,1.18,1.19C786.5,964,786.52,969.81,786.52,975.64Z"/>
        <path class="cls-11" d="M818.58,985.47a17.62,17.62,0,0,0,0-2.3c-.17-1.27.27-1.71,1.56-1.58.73.07,1,.22,1,1-.05,1.87-.07,3.74,0,5.61,0,1-.55.93-1.18.88s-1.43.34-1.36-.86C818.62,987.3,818.58,986.38,818.58,985.47Z"/>
        <path class="cls-12" d="M813.64,985.47a17.64,17.64,0,0,0,0,2.3c.15,1.12-.3,1.35-1.35,1.33-.89,0-1.14-.25-1.11-1.13.07-1.82.07-3.65,0-5.47,0-1,.58-.9,1.2-.87s1.31-.25,1.25.82S813.64,984.46,813.64,985.47Z"/>
        <path d="M729.83,981.62c-5.34,0-10.68,0-16,0-1,0-1.31-.21-1.3-1.26q.06-13.57,0-27.15c0-.93.23-1.2,1.2-1.2q16.09.06,32.2,0c.92,0,1.2.21,1.2,1.17q-.06,13.65,0,27.3c0,1-.38,1.14-1.24,1.13C740.52,981.61,735.18,981.62,729.83,981.62Z"/>
        <path d="M774.26,942.21c-5.35,0-10.69,0-16,0-1.11,0-1.33-.31-1.32-1.37q.06-11,0-22.1c0-1,.2-1.3,1.25-1.3q16,.06,32.06,0c1,0,1.29.3,1.29,1.3q-.07,11,0,22.1c0,1.06-.24,1.38-1.35,1.37C784.85,942.17,779.56,942.21,774.26,942.21Z"/>
        <path d="M729.75,942.21c-5.34,0-10.69,0-16,0-1,0-1.22-.25-1.22-1.2q.06-11.19,0-22.39c0-.85.18-1.17,1.11-1.17q16.18.06,32.36,0c.9,0,1.12.27,1.11,1.14q0,11.26,0,22.54c0,1-.34,1.08-1.17,1.08C740.54,942.19,735.15,942.21,729.75,942.21Z"/>
        <path class="cls-12" d="M722.42,964.4c-1.35,0-2.7,0-4,0-.7,0-.92-.24-.91-.92,0-1.93,0-3.85,0-5.78,0-.57.2-.73.75-.73,2.79,0,5.59,0,8.38,0,.69,0,.78.3.77.87,0,1.88,0,3.76,0,5.64,0,.68-.21.94-.91.92C725.11,964.37,723.77,964.4,722.42,964.4Z"/>
        <path class="cls-4" d="M737.13,964.4c-1.29,0-2.59,0-3.89,0-.76,0-1-.24-1-1,.05-1.82.05-3.65,0-5.47,0-.71.13-1,.93-1,2.69,0,5.37,0,8.06,0,.67,0,.92.15.91.87,0,1.87-.06,3.74,0,5.61,0,.8-.29,1-1,.95C739.82,964.37,738.48,964.4,737.13,964.4Z"/>
        <path class="cls-4" d="M722.44,969.34c1.3,0,2.6,0,3.89,0,.69,0,1.07.1,1,.93-.06,1.87,0,3.74,0,5.62,0,.63-.21.83-.82.82-2.79,0-5.57,0-8.36,0-.59,0-.72-.23-.71-.76,0-1.92,0-3.84,0-5.76,0-.76.33-.86.95-.85C719.76,969.36,721.1,969.34,722.44,969.34Z"/>
        <path class="cls-4" d="M737.13,976.69c-1.35,0-2.7,0-4,0-.63,0-.83-.19-.82-.82,0-1.92,0-3.85,0-5.77,0-.66.25-.79.85-.79q4.11,0,8.22,0c.62,0,.83.19.82.82,0,1.92,0,3.85,0,5.77,0,.68-.27.79-.85.78C739.92,976.67,738.52,976.69,737.13,976.69Z"/>
        <path class="cls-4" d="M774.12,929.84c-3.7,0-7.41,0-11.11,0-1,0-1.23-.26-1.18-1.19.07-1.73,0-3.47,0-5.2,0-.69.11-1,.93-1q11.4,0,22.81,0c.79,0,1,.28,1,1,0,1.83-.06,3.66,0,5.49,0,.82-.32.92-1,.91C781.73,929.83,777.93,929.84,774.12,929.84Z"/>
        <path class="cls-13" d="M774.24,934.77c3.71,0,7.42,0,11.13,0,1,0,1.19.31,1.18,1.22s-.14,1.35-1.24,1.34q-11.12-.07-22.25,0c-1.07,0-1.23-.36-1.25-1.31s.32-1.26,1.3-1.25C766.82,934.8,770.53,934.77,774.24,934.77Z"/>
        <path class="cls-4" d="M729.74,937.28c-3.65,0-7.31,0-11,0-.95,0-1.38-.17-1.33-1.24.09-1.78,0-3.56,0-5.34,0-.69.2-.9.9-.89q11.46,0,22.93,0c.72,0,.89.25.87.91,0,1.78-.06,3.56,0,5.34,0,.93-.21,1.23-1.18,1.22C737.24,937.24,733.49,937.28,729.74,937.28Z"/>
        <path class="cls-13" d="M729.71,924.92c-3.7,0-7.41,0-11.11,0-1,0-1.18-.35-1.15-1.23s0-1.3,1.14-1.29q11.25.08,22.52,0c1.19,0,1,.62,1.06,1.35s-.06,1.19-1,1.18C737.32,924.88,733.52,924.92,729.71,924.92Z"/>
      </g>
    </g>
    <g id="_5" data-name="5">
      <circle class="cls-2" cx="747" cy="1274" r="125"/>
      <g>
        <path d="M678,1234.43c.23-.57.44-1.15.71-1.69a7.46,7.46,0,0,1,6.95-4.34c1.2,0,2.41-.07,3.61,0,.93.06,1.13-.29,1.1-1.16-.06-1.78,0-3.56,0-5.34,0-.7.21-.9.9-.89q11.41,0,22.83,0c.78,0,1,.25.95,1,0,1.74,0,3.47,0,5.2,0,.89.14,1.26,1.15,1.22,2.55-.08,5.11-.07,7.66,0,.94,0,1.09-.3,1.08-1.14,0-4.09,0-8.19,0-12.28,0-5.46,3.24-8.77,8.67-8.79q18.5,0,37,0c5.36,0,8.61,3.33,8.63,8.68,0,4.14,0,8.29,0,12.43,0,.91.25,1.12,1.12,1.1,2.6-.06,5.2-.05,7.81,0,.75,0,1-.19,1-1-.06-1.79,0-3.57,0-5.35,0-.74.08-1.1,1-1.09q11.34.06,22.69,0c.86,0,1,.31,1,1.08,0,1.73,0,3.47,0,5.2,0,.92.28,1.13,1.15,1.12a27.68,27.68,0,0,1,4.9.12,7.4,7.4,0,0,1,6.3,6.88c0,.39,0,.77,0,1.16v87.29c0,4-2,6.92-5.49,7.86a12.5,12.5,0,0,1-3.29.31q-64.76,0-129.5,0c-4.69,0-8.15-1.3-9.72-6Z"/>
        <path class="cls-4" d="M752.11,1233.33q23.85,0,47.69,0c1.27,0,1.59.3,1.58,1.58q-.06,45.38,0,90.75c0,1.22-.34,1.49-1.52,1.49q-47.83,0-95.66,0c-1.27,0-1.59-.3-1.59-1.58q.07-45.32,0-90.61c0-1.35.38-1.64,1.67-1.63Q728.21,1233.36,752.11,1233.33Z"/>
        <path class="cls-4" d="M697.71,1280.25q0,22.68,0,45.37c0,1.19-.3,1.53-1.5,1.5-3.28-.09-6.55,0-9.83,0-2.66,0-3.48-.81-3.48-3.42q0-43.42,0-86.84c0-2.62.85-3.49,3.43-3.49,3.33,0,6.65.05,10,0,1.16,0,1.42.32,1.42,1.43Q697.68,1257.49,697.71,1280.25Z"/>
        <path class="cls-4" d="M806.29,1280.1c0-15.08,0-30.16,0-45.23,0-1.27.28-1.62,1.57-1.58,3.22.11,6.45,0,9.68,0,2.73,0,3.56.81,3.56,3.5q0,43.41,0,86.84c0,2.55-.82,3.4-3.34,3.41-3.38,0-6.75,0-10.12,0-1.09,0-1.35-.28-1.35-1.36Q806.32,1302.94,806.29,1280.1Z"/>
        <path class="cls-4" d="M751.93,1228.39c-6.88,0-13.77,0-20.66,0-1.13,0-1.56-.17-1.53-1.45.1-3.94,0-7.89,0-11.84,0-2.87,1.05-4,3.87-4h36.69c2.83,0,3.88,1.1,3.88,4,0,4-.05,8,0,12,0,1.14-.34,1.32-1.38,1.31C765.9,1228.37,758.92,1228.39,751.93,1228.39Z"/>
        <path class="cls-4" d="M702.72,1228.39c-2,0-4,0-6.06,0-1,0-1.42-.06-1.43-1.26s.66-1.19,1.5-1.19c3.94,0,7.89,0,11.83,0,.91,0,1.58-.13,1.58,1.26s-.85,1.16-1.65,1.16Z"/>
        <path class="cls-4" d="M801.28,1226c2.12,0,4.24.07,6.35,0,1.1-.06,1.1.47,1.1,1.28s0,1.21-1,1.2c-4.28-.07-8.56-.08-12.84,0-1.14,0-.9-.63-.94-1.27s0-1.25,1-1.21C797.05,1226,799.16,1226,801.28,1226Z"/>
      </g>
    </g>
    <g id="_6" data-name="6">
      <circle class="cls-2" cx="747" cy="1756" r="125"/>
      <g>
        <path d="M675,1801.47c1.44-1.9,3-2.21,4.28-.83a3.44,3.44,0,0,1,.63,2.73c0,.87,0,1.41,1.16,1.37s1.41-.22,1.38-1.35c-.08-2.4.75-3.55,2.36-3.59s2.57,1.19,2.52,3.63c0,1,.17,1.31,1.23,1.31s1.25-.3,1.24-1.29q0-23.7,0-47.4c0-.34,0-.67,0-1.12a9.81,9.81,0,0,1-10.9-15.89c3.93-3.7,8.39-6.77,12.63-10.09q25.23-19.79,50.47-39.54c2.23-1.76,4.21-3.82,6.29-5.75.44-.41.74-.79,1.39-.17,10.4,9.93,22.24,18.1,33.45,27,11.4,9.1,23,18,34.44,27,4.29,3.35,5.67,8,3.69,12.34a9.72,9.72,0,0,1-12.12,5.33l-.67-.23a2.33,2.33,0,0,0-.17,1.43q0,23.4,0,46.82c0,1.44.6,1.85,2,1.49.51-.13.41-.44.42-.75a9.86,9.86,0,0,1,.16-2.3,2.27,2.27,0,0,1,2.44-1.82,2.24,2.24,0,0,1,2.26,2,4.71,4.71,0,0,1,.07,1.29c-.21,1.29.28,1.7,1.56,1.58.74-.07,1-.21,1-1a7.7,7.7,0,0,1,0-1.73,2.53,2.53,0,0,1,2.44-2.24,2.56,2.56,0,0,1,2.39,2.14,4.1,4.1,0,0,1,0,.86c0,7,0,14.07,0,21.1a3,3,0,0,1-.64,2.16,2.3,2.3,0,0,1-2.34.79,2.38,2.38,0,0,1-1.88-2,4.11,4.11,0,0,1,0-1.44c.2-1.23-.3-1.55-1.48-1.47-.81,0-1.11.24-1,1.07a7.36,7.36,0,0,1-.09,1.87,2.21,2.21,0,0,1-2.3,2,2.17,2.17,0,0,1-2.34-1.74,5.9,5.9,0,0,1-.17-2c.1-1-.32-1.14-1.21-1.17s-1.31.24-1.27,1.26c0,1.19.54,2.74-.19,3.47s-2.29.22-3.48.22q-56.58,0-113.15,0c-1.33,0-1.8-.34-1.61-1.65a11.67,11.67,0,0,0,0-1.87c0-1.36-.72-1.84-2-1.44-.51.15-.35.49-.37.79a9.83,9.83,0,0,1-.17,2.29,2.27,2.27,0,0,1-2.46,1.8,2.22,2.22,0,0,1-2.23-2.06,6,6,0,0,1-.07-1.58c.13-1-.28-1.27-1.27-1.28s-1.41.25-1.25,1.27a6.41,6.41,0,0,1,0,1.16,2.42,2.42,0,0,1-1.75,2.39,2.32,2.32,0,0,1-2.76-1c-.13-.19-.27-.38-.41-.56Z"/>
        <path class="cls-4" d="M803.28,1786.59c0,11.32,0,22.64,0,34,0,1.23-.36,1.49-1.53,1.47-3.94-.08-7.9-.08-11.84,0-1.19,0-1.51-.25-1.51-1.48,0-13,0-25.91.07-38.87,0-1.33-.35-1.64-1.65-1.64q-15.75.09-31.51,0c-1.24,0-1.46.34-1.46,1.51.05,13,0,26,.06,39,0,1.23-.33,1.46-1.5,1.46q-28.11-.06-56.22,0c-1.3,0-1.55-.34-1.55-1.58q.06-33.82,0-67.64a2.42,2.42,0,0,1,1-2.15q26.12-20.07,52.15-40.2a1.47,1.47,0,0,1,2.19,0q26,20.1,52,40.12a2.62,2.62,0,0,1,1.2,2.37C803.27,1764.14,803.28,1775.36,803.28,1786.59Z"/>
        <path class="cls-4" d="M685.84,1750.84a5,5,0,0,1-4.62-3.13,4.78,4.78,0,0,1,1.48-5.6c2.9-2.38,5.89-4.66,8.84-7q26.73-20.91,53.45-41.83c1.17-.92,2.24-2,3.32-3,.45-.43.75-.56,1.3-.08,13,11.15,26.88,21.26,40.28,31.93,8.13,6.48,16.36,12.83,24.57,19.22,1.65,1.28,2.86,2.76,2.63,5a4.89,4.89,0,0,1-8,3.33c-4.05-3-8-6.15-12-9.24q-23.44-18.07-46.87-36.17a1.59,1.59,0,0,0-2.39,0q-29.13,22.52-58.31,45A6.28,6.28,0,0,1,685.84,1750.84Z"/>
        <path class="cls-4" d="M783.52,1803.64c0,5.69,0,11.37,0,17,0,1.13-.32,1.33-1.36,1.32q-11.06-.06-22.11,0c-1,0-1.26-.27-1.26-1.27q.06-17.27,0-34.54c0-1,.32-1.24,1.29-1.23q11.13.06,22.25,0c1,0,1.19.25,1.18,1.19C783.5,1792,783.52,1797.81,783.52,1803.64Z"/>
        <path class="cls-11" d="M815.58,1813.47a17.62,17.62,0,0,0,0-2.3c-.17-1.27.27-1.71,1.56-1.58.73.07,1,.22,1,1-.05,1.87-.07,3.74,0,5.61,0,1-.55.93-1.18.88s-1.43.34-1.36-.86C815.62,1815.3,815.58,1814.38,815.58,1813.47Z"/>
        <path class="cls-12" d="M810.64,1813.47a17.64,17.64,0,0,0,0,2.3c.15,1.12-.3,1.35-1.35,1.33-.89,0-1.14-.25-1.11-1.13.07-1.82.07-3.65,0-5.47,0-1,.58-.9,1.2-.87s1.31-.25,1.25.82S810.64,1812.46,810.64,1813.47Z"/>
        <path d="M726.83,1809.62c-5.34,0-10.68,0-16,0-1,0-1.31-.21-1.3-1.26q.06-13.58,0-27.15c0-.93.23-1.2,1.2-1.2q16.09.06,32.2,0c.92,0,1.2.21,1.2,1.17q-.06,13.65,0,27.3c0,1-.38,1.14-1.24,1.13C737.52,1809.61,732.18,1809.62,726.83,1809.62Z"/>
        <path d="M771.26,1770.21c-5.35,0-10.69,0-16,0-1.11,0-1.33-.31-1.32-1.37q.06-11,0-22.1c0-1,.2-1.3,1.25-1.3q16,.06,32.06,0c1,0,1.29.3,1.29,1.3q-.07,11,0,22.1c0,1.06-.24,1.38-1.35,1.37C781.85,1770.17,776.56,1770.21,771.26,1770.21Z"/>
        <path d="M726.75,1770.21c-5.34,0-10.69,0-16,0-1,0-1.22-.25-1.22-1.2q.06-11.19,0-22.39c0-.85.18-1.17,1.11-1.17q16.18.06,32.36,0c.9,0,1.12.27,1.11,1.14q0,11.27,0,22.54c0,.95-.34,1.08-1.17,1.08C737.54,1770.19,732.15,1770.21,726.75,1770.21Z"/>
        <path class="cls-12" d="M719.42,1792.4c-1.35,0-2.7,0-4,0-.7,0-.92-.24-.91-.92,0-1.93,0-3.85,0-5.78,0-.57.2-.73.75-.73,2.79,0,5.59,0,8.38,0,.69,0,.78.3.77.87,0,1.88,0,3.76,0,5.64,0,.68-.21.94-.91.92C722.11,1792.37,720.77,1792.4,719.42,1792.4Z"/>
        <path class="cls-4" d="M734.13,1792.4c-1.29,0-2.59,0-3.89,0-.76,0-1-.24-1-1,.05-1.82.05-3.65,0-5.47,0-.71.13-1,.93-1,2.69,0,5.37,0,8.06,0,.67,0,.92.15.91.87,0,1.87-.06,3.74,0,5.61,0,.8-.29,1-1,1C736.82,1792.37,735.48,1792.4,734.13,1792.4Z"/>
        <path class="cls-4" d="M719.44,1797.34c1.3,0,2.6,0,3.89,0,.69,0,1.07.1,1,.93-.06,1.87,0,3.74,0,5.62,0,.63-.21.83-.82.82-2.79,0-5.57,0-8.36,0-.59,0-.72-.23-.71-.76,0-1.92,0-3.84,0-5.76,0-.76.33-.86.95-.85C716.76,1797.36,718.1,1797.34,719.44,1797.34Z"/>
        <path class="cls-4" d="M734.13,1804.69c-1.35,0-2.7,0-4,0-.63,0-.83-.19-.82-.82,0-1.92,0-3.85,0-5.77,0-.66.25-.79.85-.79q4.11,0,8.22,0c.62,0,.83.19.82.82,0,1.92,0,3.85,0,5.77,0,.68-.27.79-.85.78C736.92,1804.67,735.52,1804.69,734.13,1804.69Z"/>
        <path class="cls-4" d="M771.12,1757.84c-3.7,0-7.41,0-11.11,0-1,0-1.23-.26-1.18-1.19.07-1.73,0-3.47,0-5.2,0-.69.11-1,.93-1q11.4,0,22.81,0c.79,0,1,.28,1,1,0,1.83-.06,3.66,0,5.49,0,.82-.32.92-1,.91C778.73,1757.83,774.93,1757.84,771.12,1757.84Z"/>
        <path class="cls-13" d="M771.24,1762.77c3.71,0,7.42,0,11.13,0,1,0,1.19.31,1.18,1.22s-.14,1.35-1.24,1.34q-11.12-.08-22.25,0c-1.07,0-1.23-.36-1.25-1.31s.32-1.26,1.3-1.25C763.82,1762.8,767.53,1762.77,771.24,1762.77Z"/>
        <path class="cls-4" d="M726.74,1765.28c-3.65,0-7.31,0-11,0-.95,0-1.38-.17-1.33-1.24.09-1.78,0-3.56,0-5.34,0-.69.2-.9.9-.89q11.46,0,22.93,0c.72,0,.89.25.87.91,0,1.78-.06,3.56,0,5.34,0,.93-.21,1.23-1.18,1.22C734.24,1765.24,730.49,1765.28,726.74,1765.28Z"/>
        <path class="cls-13" d="M726.71,1752.92c-3.7,0-7.41,0-11.11,0-1,0-1.18-.35-1.15-1.23s0-1.3,1.14-1.29q11.25.08,22.52,0c1.19,0,1,.62,1.06,1.35s-.06,1.19-1,1.18C734.32,1752.88,730.52,1752.92,726.71,1752.92Z"/>
      </g>
    </g>
    <g id="_7" data-name="7">
      <circle class="cls-2" cx="748" cy="2150" r="125"/>
      <g>
        <path class="cls-14" d="M758.23,2171.05c-2.77-3.84-5.44-7.57-8.11-11.29s-5.46-7.56-8.15-11.36a14,14,0,0,1,2.23-18.56c7.22-6.2,14.52-12.3,21.79-18.44l.9-.77-1.11-.84-10.94-8.14a10.32,10.32,0,0,0-3.66-1.67,5.12,5.12,0,0,0-2.69.05q-14.28,3.84-28.57,7.67c-.43.12-.5,0-.59-.37-1.11-4.16-2.22-8.32-3.36-12.46-.17-.59.12-.65.53-.75l22.65-6.06c2.49-.67,5-1.43,7.49-1.94a20.06,20.06,0,0,1,12.25,1.78,35.7,35.7,0,0,1,6.84,4.42q12,8.92,24,17.86a20.92,20.92,0,0,1,8.54,14.07c.29,1.93.66,3.85,1,5.77a7.25,7.25,0,0,0,7.4,6q11.09,0,22.18,0c.62,0,.75.14.75.75,0,4.22,0,8.44,0,12.67,0,.5-.13.6-.62.6-7.62,0-15.25,0-22.88,0a21.3,21.3,0,0,1-20.62-17.61c-.27-1.63-.59-3.25-.88-4.87-.28-.06-.39.16-.54.28q-10.33,8.31-20.65,16.61a.75.75,0,0,0-.25,1.09q4.51,9.73,9,19.51a13.91,13.91,0,0,1-7.55,19.07,14.07,14.07,0,0,1-5,.92H711.29c-.52,0-.65-.11-.65-.64,0-4.22,0-8.44,0-12.67,0-.58.13-.71.71-.71q23,0,46,0Z"/>
        <path class="cls-14" d="M801.62,2108.07a14,14,0,1,1,14-14A14,14,0,0,1,801.62,2108.07Z"/>
        <path class="cls-14" d="M758.21,2192.07l-5.47,5.62q-10.69,11-21.38,21.94c-.32.33-.53.36-.9.11q-5.44-3.55-10.9-7.06c-.44-.28-.45-.42-.1-.79q9.42-9.72,18.81-19.46a1.07,1.07,0,0,1,.84-.39h18.67Z"/>
        <path class="cls-14" d="M746.27,2115.11c-2.4,1.75-4.73,3.41-7,5.13-.82.61-1.73,1.09-2.55,1.69a1,1,0,0,1-.67.13q-22.9,0-45.83,0c-.47,0-.57-.14-.56-.58q0-2.94,0-5.88c0-.38,0-.57.51-.57q27.95,0,55.9,0Z"/>
        <path class="cls-14" d="M730.94,2129.1c-.33.83-.65,1.64-1,2.45a11.85,11.85,0,0,0-1.08,4.16c0,.28-.09.38-.36.35h-.42q-18.83,0-37.65,0c-.63,0-.8-.15-.79-.79.05-1.91,0-3.82,0-5.74,0-.39.11-.5.5-.5q20.29,0,40.59,0Z"/>
        <path class="cls-14" d="M730.24,2150.06h-.75q-19.54,0-39.1,0c-.61,0-.76-.13-.75-.75.05-1.91,0-3.82,0-5.73,0-.43.09-.54.53-.54h37.49c.36,0,.55.09.62.46.15.78.35,1.54.5,2.32A12.37,12.37,0,0,0,730.24,2150.06Z"/>
      </g>
    </g>
    <g id="_8" data-name="8">
      <circle class="cls-2" cx="747" cy="2498" r="125"/>
      <g>
        <path class="cls-15" d="M742.76,2531.07c-1.94,2.4-3.58,5-5.88,7.29a3.19,3.19,0,0,0,1.66.2h42.19a11.27,11.27,0,0,1,10.88,7.59,4.45,4.45,0,0,1,.12.73c-1.27.85-2.68.33-4,.45a5.89,5.89,0,0,1-1.62-.07,2.65,2.65,0,0,1-1.37-.83c-2.41-2.16-4.89-2.18-7.33-.06a3.12,3.12,0,0,1-1.52.88,34,34,0,0,1-4.28.07,1.64,1.64,0,0,1-1.36-.44l.77-2.45H717.45a11.75,11.75,0,0,1,1,8.08,11.23,11.23,0,1,1-12.66-13.76,5.46,5.46,0,0,1,2.07-.16c2,.5,3.18-.49,4.36-1.83a29.7,29.7,0,0,0,3.57-5.14,8.44,8.44,0,0,1,5.78,0c.61.74.1,1.42-.17,2.08-.59,1.46-1.53,2.77-2.11,4.27,5,.69,9.62.38,13.08-3.88.78-1,1.78-1.73,2.55-2.72a1.79,1.79,0,0,1,1.5-.84c1.53.11,3.05.05,4.57.08C741.6,2530.6,742.27,2530.51,742.76,2531.07Z"/>
        <path class="cls-15" d="M742.76,2531.07c-1.68,0-3.36,0-5,0a3.3,3.3,0,0,1-1.72-.33c-.16-.62.25-1,.56-1.46,1-1.32,1.81-2.7,2.81-4.14-1.24,0-2.32,0-3.4,0a5.1,5.1,0,0,0-1.78.19,6.86,6.86,0,0,1-1.43.13,5.2,5.2,0,0,0-1.92.2,46.34,46.34,0,0,1-5.76.64c-1.07.12-1.82.32-1.91,1.55a.54.54,0,0,1-.6.53c-.48-1.26-1.48-1.47-2.7-1.43-.89,0-1.86.26-2.67-.41.07-2.86-1-5.47-1.86-8.12A12.29,12.29,0,0,1,715,2517c1.8-.93,3.67-.45,5.52-.33.9.36,1.14,1.2,1.41,2a1.48,1.48,0,0,0,1.82,1.1,46.75,46.75,0,0,1,6.37-.5c1.19,0,1.44-.48,1.2-1.57-.73-3.25-1.54-6.47-2.22-9.73-.14-.65-.48-1.35.18-1.95a14.2,14.2,0,0,1,4.82-.19,1.46,1.46,0,0,1,1.2.76c1,3.09,1.53,6.28,2.3,9.43.56,2.34.82,2.55,3.14,2.27s4.86-.42,7.29-.66c1.55-.15,1.63-.33,1.44-1.9a15.75,15.75,0,0,1-.09-1.94,3.73,3.73,0,0,0-.2-1.72,29.76,29.76,0,0,1-.66-4.4,1.93,1.93,0,0,1,.35-1.55,10,10,0,0,1,5.85,0c.95,2.19.77,4.59,1.18,6.88a26.69,26.69,0,0,1,.34,2.67c0,.92.56,1.2,1.39,1.11,2.38-.27,4.76-.44,7.15-.61a1.83,1.83,0,0,0,1.88-1.89c.12-1.55,0-3.1.08-4.64a6.51,6.51,0,0,1,.77-3.59,11.21,11.21,0,0,1,5.55,0c1,1.51.5,3.17.41,4.77-.07,1.09-.17,2.17-.16,3.27s.48,1.36,1.4,1.26c2.47-.27,4.95-.5,7.43-.65,1-.07,1.41-.76,1.56-1.69.3-1.81.65-3.62,1-5.43a3.73,3.73,0,0,1,.68-2c1.88.28,3.82-.07,5.69.45.56.52.39,1.18.3,1.81-.21,1.58-.57,3.13-.83,4.7-.17,1,.28,1.39,1.22,1.29a38.16,38.16,0,0,1,3.85-.31c.87,0,1.16-.64,1.36-1.35.48-1.67,1-3.34,1.49-5,.17-.56.29-1.17.91-1.46,1.44-.08,2.86,0,4.29.07.52,0,1.27-.11,1.28.8-1,3.33-2,6.66-3,10-.72,2.42-1.23,2.8-3.85,2.82-.5.24-1.06,0-1.57.19l-31.82,2.79c-5.56.49-11.11,1-16.66,1.45a1.49,1.49,0,0,0-1.33.95A50.83,50.83,0,0,1,742.76,2531.07Z"/>
        <path class="cls-15" d="M808.52,2494.28c-.94,3.4-1.89,6.79-3.07,10.12a8,8,0,0,1-5.37.08,1.43,1.43,0,0,1-.35-.3c-.75-1.12-1.73-.46-2.64-.35a16.92,16.92,0,0,1-3.1.09,4,4,0,0,0-2.65.72,14.74,14.74,0,0,1-5.73-.09c-4.1-.24-8.18.46-12.28.23-2-.28-4-.55-6,.21-3,0-6,.83-9,.19a3.64,3.64,0,0,0-2.25-.64c-14.65.11-29.3,0-44,.08a1.93,1.93,0,0,1-1.29-.22c-1.31-3.32-2.3-6.74-3.38-10.14a1.43,1.43,0,0,1,1.48-.76,20.36,20.36,0,0,1,4.13.09c.71.22.92.85,1.14,1.46.47,1.31.86,2.64,1.24,4a1.63,1.63,0,0,0,1.85,1.34c2.92-.18,5.84-.38,8.77-.31.81,0,1-.42.85-1.16-.31-1.21-.61-2.41-.82-3.63-.09-.51-.36-1.07.15-1.53a14.86,14.86,0,0,1,5.44-.13c.76.27,1,.94,1.17,1.62.3,1.05.52,2.13.75,3.2a1.37,1.37,0,0,0,1.7,1.21c3.47-.31,7-.14,10.43-.45,1.53-.14,1.57-.13,1.49-1.67-.06-1.24-.76-2.54.21-3.74a11.09,11.09,0,0,1,5.52-.05c.9.78.75,1.88.87,2.9.24,2.16.31,2.32,2.45,2.22,3-.15,6-.34,9.08-.32a2,2,0,0,0,2-.84c.6-1.12,0-2.39.44-3.53a1,1,0,0,1,.34-.42c1.84-.3,3.69-.75,5.43.39.51,1,.16,2.14.33,3.2.14.62.6.67,1.14.68,3.43.07,6.86-.22,10.28-.33a1.27,1.27,0,0,0,1.31-1.15c.24-1,.17-2,.94-2.78a11.94,11.94,0,0,1,5.48,0c1.06,1.13.28,2.33.16,3.63a37.26,37.26,0,0,0,7.07-.24,1.73,1.73,0,0,0,1.47-1.46c.21-.75.36-1.57,1.18-2a15.64,15.64,0,0,1,4.53-.14C807.94,2493.54,808.52,2493.56,808.52,2494.28Z"/>
        <path class="cls-15" d="M699.12,2468.52a73.05,73.05,0,0,1-2.59-8.08c0-.71.61-.69,1.07-.76a11.41,11.41,0,0,1,1.94-.06h30.52a12.18,12.18,0,0,0,4.72-.51,1.59,1.59,0,0,1,1.31.08c5.66.35,11.32.68,17,1.06,7.79.53,15.58,1.1,23.37,1.65l32.89,2.3c1.39.1,2.79.12,4.17.28,2.27.27,3.19,1.82,2.48,4-3.37-.33-6.76-.13-10.14-.16-5.22,0-10.45,0-15.67-.05a3.61,3.61,0,0,0-2.17.37c-2,.45-4,0-6-.19a50.18,50.18,0,0,1-5.33-.34.93.93,0,0,0-1.22.93c-.06.47,0,1-.61,1.26a4,4,0,0,0-4.33-1.39,1.09,1.09,0,0,0-.78.79c-.14.37-.1,1-.79.81a2,2,0,0,1-.34-1.42c.07-1.2-.5-1.66-1.68-1.71-4.85-.2-9.69-.71-14.55-.92-1.86-.09-1.86-.11-1.89,1.79a1.29,1.29,0,0,1-.19.71c-1.06.27-2.09-.2-3.16-.12a25.73,25.73,0,0,0-2.77.28c-.7-.38-.58-1.1-.65-1.71a1.75,1.75,0,0,0-1.82-1.76c-3.15-.16-6.31-.43-9.46-.63-1.49-.09-3-.21-4.43-.43-.64-.13-1.27-.42-1.93-.06-.43.58-.07,1.15,0,1.72.11.73.4,1.47-.26,2.11-1.65.82-3.39.53-5.12.4-.86-.28-.9-1.07-1.09-1.77a8.71,8.71,0,0,0-.89-2.91c-.57-.55-1.27-.26-1.91-.31a9.68,9.68,0,0,1-1.94-.12,7.16,7.16,0,0,0-2.44-.17,10.34,10.34,0,0,1-2-.12,5.64,5.64,0,0,0-2.2-.17,27.32,27.32,0,0,1-2.86-.09c-.52.07-1.22-.8-1.53.31.23,1.17.73,2.25,1,3.4.15.54.5,1.13-.13,1.62A8.08,8.08,0,0,1,699.12,2468.52Z"/>
        <path class="cls-15" d="M769,2470.58c.58-2.1.58-2.1,3-2.1a4.57,4.57,0,0,0,.74,0c1.47-.25,2.18.27,1.91,1.83.85,1.69.4,3.46.3,5.2a11.47,11.47,0,0,0,.07,4.09c.39.54,1,.43,1.5.43,2,0,4.08,0,6.12,0,1.69,0,3.38,0,5.07,0,1.85,0,2-.12,2.29-2,.42-2.41.88-4.8,1.31-7.2a3.09,3.09,0,0,1,.73-1.92,13,13,0,0,1,5-.19,1.07,1.07,0,0,1,.92.65c.33,1.15-.12,2.26-.28,3.37-.28,2-.7,3.91-1,5.87-.27,1.56-.16,1.7,1.46,1.71,2.24,0,4.47,0,6.71,0,.72,0,1.44-.06,1.67-.91.82-3,1.91-6,2.45-9-.51-.59-1.19-.21-1.78-.3a9,9,0,0,1-1.94-.12,7.18,7.18,0,0,0-2.53-.15c-.71-.08-1.52.2-2-.6a1.07,1.07,0,0,1,1-.55c4.34-.13,8.68-.12,13,0,.46,0,1.05.06,1,.79q-1.63,5.79-3.29,11.57a3,3,0,0,1-.37.62,3.21,3.21,0,0,1-1.62.2h-104a5.2,5.2,0,0,1-3.06-.44l-2.82-8.43a1.39,1.39,0,0,1,1.35-1,14.89,14.89,0,0,1,4.42.15c.71.45.72,1.25.93,2,.32,1,.72,2.06,1,3.12a1.8,1.8,0,0,0,1.78,1.49c2.54.3,5.1.07,7.65.13,1.08,0,2.17,0,3.25,0s1.45-.32,1.14-1.4a27.65,27.65,0,0,1-.84-3.6c-.09-.58-.23-1.19.32-1.65a12.61,12.61,0,0,1,5.4-.06c.67.39.72,1.12.92,1.76.5,1.58.57,3.28,1.28,4.8.62.74,1.47.4,2.22.44a24,24,0,0,0,2.81,0c2.53,0,5.06-.12,7.59.09,1.08.18,2.17.64,3.21-.1.19-1.64-.45-3.22-.31-4.85a3.88,3.88,0,0,0-.19-1.66c-.2-1.15-.78-2.3,0-3.45,0-.1,0-.23.08-.28.85-.66,4.7-.49,5.56.23s.5,1.66.66,2.5c.2,1.11.32,2.24.43,3.37a4.79,4.79,0,0,0,.21,1.8,8.66,8.66,0,0,1,.12.89c.2,1.53.4,1.71,2,1.75.8,0,1.59,0,2.39,0,3.28-.15,6.55.26,9.83.3,2.49,0,2.47,0,2.53-2.41,0-1.84.38-3.66.33-5.51A1.29,1.29,0,0,1,769,2470.58Z"/>
        <path class="cls-15" d="M793.17,2493.92h-5.59c-.46-.48-.22-1-.13-1.54l.66-3.94c.32-1.87.32-1.86-1.65-1.88a15.35,15.35,0,0,1-3-.14,76.43,76.43,0,0,0-7.86-.16c-.93-.11-1.27.42-1.34,1.24a13.74,13.74,0,0,0-.11,3.14,13.22,13.22,0,0,1-.17,3.08.78.78,0,0,1-.57.5c-1.76-.63-3.58-.15-5.36-.3-.72-.88-.42-1.89-.35-2.86a11.26,11.26,0,0,0,.22-3.22c0-.85,0-1.64-1.11-1.76-2.55-.26-5.1-.06-7.64-.11-1.73,0-3.47,0-5.2,0-1.13,0-1.51.44-1.37,1.52.19,1.42.36,2.84.53,4.26a3.46,3.46,0,0,1-.11,2.18h-5.65l-.16-.17c-.25-.5-.27-1.07-.47-1.59a28.82,28.82,0,0,1-.71-5.63c0-.72-.44-.89-1.05-.89-.77,0-1.55,0-2.32,0-2.53,0-5.07.14-7.59-.09-1.45-.26-2.91-.58-4.34.08,0,2.11.82,4.07,1.19,6.1.14.71.5,1.44-.07,2.13h-5.67a2.07,2.07,0,0,1-.76-1.54c-.38-1.84-1-3.63-1.27-5.48a1.65,1.65,0,0,0-1.93-1.55,17.57,17.57,0,0,1-3.55-.1,44.67,44.67,0,0,0-7.13-.16c-.21,0-.34.18-.44.36.32,2.29,1.36,4.37,1.9,6.58.15.62.54,1.2.3,1.88-1.94.18-3.92-.36-5.82.35-1.2-3.36-2.41-6.72-3.33-10.18a1.12,1.12,0,0,1,.49-.34,7.38,7.38,0,0,1,1.93-.12H809c.83,0,1.71-.21,2.44.41a104,104,0,0,1-2.93,10.24c-1.09-.73-2.31-.23-3.47-.35-.74-.07-1.49,0-2.24,0-.46-.49-.22-1-.08-1.54.39-1.43.77-2.87,1.24-4.28.31-.93,0-1.27-.94-1.26a16.18,16.18,0,0,1-3.26-.12c-1.53-.17-3.06-.5-4.55.19-.8,1.77-.77,3.73-1.24,5.57C793.84,2493,793.89,2493.69,793.17,2493.92Z"/>
        <path class="cls-15" d="M693.85,2452.92c-.43-2.36-2.14-2.76-4.19-3-3.56-.4-7.09-1-10.64-1.54a2.93,2.93,0,0,1-2.75-3,41.83,41.83,0,0,1,0-4.19,2.84,2.84,0,0,1,3.37-2.92c4.5.48,9,1.06,13.49,1.61a2.91,2.91,0,0,1,2.52,1.84c1.5,3.68,3,7.38,4.14,11.18A9,9,0,0,1,693.85,2452.92Z"/>
        <path class="cls-15" d="M703.31,2481.39c.6,0,1.2,0,1.79,0H810a3.5,3.5,0,0,1,2,.29l-.29,1.51a3.19,3.19,0,0,1-2,.42H706a3.16,3.16,0,0,1-2-.39Z"/>
        <path class="cls-16" d="M770.22,2546.89l6,0c0,1.28-.69,2.46-.37,3.81a5.22,5.22,0,0,0,6,4,5.06,5.06,0,0,0,3.94-6.3c-.13-.51-.52-1-.16-1.56l6,0c2.1,6.07-2.59,13.25-9.18,14.05a11.16,11.16,0,0,1-12.48-8.52A9.83,9.83,0,0,1,770.22,2546.89Z"/>
        <path class="cls-15" d="M693.85,2452.92h5.94a13.15,13.15,0,0,1,.73,2c.3,1.45,1.1,1.9,2.58,2,10.67.65,21.32,1.41,32,2.15a6.91,6.91,0,0,1,1,.19c-6.27,1.85-12.69.66-19,.87s-12.76,0-19.14.05c-.48,0-1-.16-1.38.33A47.72,47.72,0,0,1,693.85,2452.92Z"/>
        <path class="cls-15" d="M710.91,2504.4a8.54,8.54,0,0,1,2.2-.32q21.45,0,42.9,0c.91,0,1.9-.19,2.49.82-.42.58-1.06.5-1.63.48a3.07,3.07,0,0,0-2.31.79h-5.65c-1.19-.56-2.42-.17-3.64-.18-2.77,0-5.54.06-8.3.3a8.32,8.32,0,0,0-1.86.47,1.45,1.45,0,0,0-1.39-.61c-1.52,0-3,0-4.57,0a1.63,1.63,0,0,1-1.78.16,3,3,0,0,0-1.86-.35c-4.16,0-8.32,0-12.48,0a4.56,4.56,0,0,1-1.76-.17C711.12,2505.4,710.79,2505,710.91,2504.4Z"/>
        <path class="cls-15" d="M711.27,2505.88a2.21,2.21,0,0,1,1.13-.29h14.32c.29,0,.94-.29.66.52-1.15.94-2.5.37-3.75.53a17.61,17.61,0,0,0-3.84.09,1.32,1.32,0,0,1-.44.08c-1-.08-1.25.22-.88,1.25.85,2.37,1.69,4.76,2.33,7.2.15.56.46,1.12,0,1.69l-5.81,0Q713.14,2511.44,711.27,2505.88Z"/>
        <path class="cls-17" d="M703.94,2483.18l2.1,0H811.75l-.31.59a3.67,3.67,0,0,1-1.77.14l-103.28,0a3.52,3.52,0,0,0-1.76.14l-.43,0C704.12,2483.78,704,2483.48,703.94,2483.18Z"/>
        <path class="cls-15" d="M797.72,2469.7c-.1-.71-.64-.62-1.12-.62h-4.53l-.41-.1a6.64,6.64,0,0,0-2-.08c-.64-.05-1.35.13-1.84-.49.34-.57.9-.53,1.46-.53H814.7c.52,0,1.16-.19,1.28.63a1.13,1.13,0,0,1-.28.93c-.25-.41-.67-.37-1.06-.37h-13.1a3.26,3.26,0,0,0-.84.22C799.79,2470.11,798.72,2469.61,797.72,2469.7Z"/>
        <path class="cls-15" d="M704.63,2484c.55-.53,1.24-.28,1.85-.28q52.49,0,105,0v.3Z"/>
        <path class="cls-15" d="M717.2,2526.54c1.18,0,2.38.08,3.55,0,1.42-.12,2.06.39,1.85,1.84a3,3,0,0,1-.87,3.58c-2-.65-4-.16-6-.31A39.25,39.25,0,0,0,717.2,2526.54Z"/>
        <path class="cls-15" d="M706.34,2472.37c-1.32,0-2.64,0-4,0a2.49,2.49,0,0,0-1.89.6,34.51,34.51,0,0,1-1.37-4.44c1.93-.14,3.89.16,5.8-.34A5.19,5.19,0,0,1,706.34,2472.37Z"/>
        <path class="cls-15" d="M799.84,2504.1c1.85.56,3.74.19,5.61.3a3.42,3.42,0,0,1-.51,2.18c-.44-.61-1.09-.34-1.65-.38-1.34-.09-2.7.2-4-.31A1.21,1.21,0,0,1,799.84,2504.1Z"/>
        <path class="cls-18" d="M796.53,2519.58c.48-.39,1-.17,1.57-.19A3.23,3.23,0,0,1,796.53,2519.58Z"/>
        <path class="cls-4" d="M785.7,2546.91c1.27,3.16.76,5.68-1.5,7.31a5.57,5.57,0,0,1-7.22-.56,5.27,5.27,0,0,1-.71-6.73C779.33,2543.43,782.64,2543.42,785.7,2546.91Z"/>
        <path class="cls-4" d="M707.47,2555.27a5.45,5.45,0,1,1,5.54-5.46A5.52,5.52,0,0,1,707.47,2555.27Z"/>
        <path class="cls-4" d="M735.11,2506.79c-.1-.67.12-.94.87-1q5.82-.2,11.64-.5c.71,0,1.13.17,1.29.87a31.05,31.05,0,0,0,.67,6c.24.47-.09,1,.24,1.5a10.39,10.39,0,0,0,.25,2.94c.21.73.13,1.26-1,1.32-3.37.21-6.74.53-10.1.88a1.11,1.11,0,0,1-1.41-.92C736.76,2514.21,735.94,2510.5,735.11,2506.79Z"/>
        <path class="cls-4" d="M723.52,2506.2l3.86-.08,1.77.08c.93,4.15,1.81,8.31,2.81,12.45.19.82-.06,1-.71,1a55.25,55.25,0,0,0-7.71.6c-1.18.13-1.72-.23-2-1.35a4.35,4.35,0,0,0-.76-1.93c-.58-2.86-1.75-5.55-2.57-8.34-.19-.66-.41-1.31-.64-2l2-.15C720.91,2506.17,722.24,2506.56,723.52,2506.2Z"/>
        <path class="cls-4" d="M754.56,2506.19c-.11-.86.2-1.24,1.14-1.17a23.82,23.82,0,0,0,2.8-.1l9-.22a1.08,1.08,0,0,1,0,1.49c-.16,3.07-.36,6.14-.47,9.22,0,.77-.27,1-1,1.08q-4.53.35-9.06.79c-.86.09-1.09-.23-1.18-1C755.42,2512.89,755,2509.54,754.56,2506.19Z"/>
        <path class="cls-4" d="M773.24,2504.43c4.17-.12,8.34-.56,12.52-.34a1,1,0,0,1-.27,1.51c-.5,2.74-1,5.47-1.47,8.22-.13.84-.43,1.18-1.29,1.24q-4.4.3-8.77.75c-1,.09-1.19-.21-1.15-1.13.15-2.83.22-5.66.32-8.49A1.23,1.23,0,0,1,773.24,2504.43Z"/>
        <path class="cls-4" d="M799.84,2504.1l-.55,1.79c-.64,2.16-1.32,4.32-1.91,6.49-.27,1-.68,1.61-1.88,1.6a31.93,31.93,0,0,0-4.47.35c-1.1.14-1.25-.29-1.07-1.23.42-2.29.79-4.6,1.18-6.91a1.77,1.77,0,0,1,.31-1.79,1.12,1.12,0,0,1,1.23-.79c1.57,0,3.15-.09,4.72-.14.83,0,1.75-.6,2.45.34A.48.48,0,0,0,799.84,2504.1Z"/>
        <path class="cls-15" d="M773.24,2504.43l-.11,1.76h-5.62l0-1.49c.13-.27.33-.56.64-.55C769.83,2504.18,771.56,2503.77,773.24,2504.43Z"/>
        <path class="cls-15" d="M791.45,2504.4a3.36,3.36,0,0,1-.31,1.79c-1.3,0-2.59,0-3.88,0a2.46,2.46,0,0,1-1.77-.61l.27-1.51C787.63,2504.68,789.56,2504.28,791.45,2504.4Z"/>
        <path class="cls-19" d="M736.12,2524.77a4.31,4.31,0,0,1-1.85.22C734.84,2524.54,735.5,2524.82,736.12,2524.77Z"/>
        <path class="cls-19" d="M732.79,2525.05a3.84,3.84,0,0,1-1.81.22C731.54,2524.85,732.18,2525.12,732.79,2525.05Z"/>
        <path class="cls-19" d="M749.82,2513.69a2.52,2.52,0,0,1-.24-1.5C750,2512.64,749.77,2513.19,749.82,2513.69Z"/>
        <path class="cls-4" d="M731.9,2493.91a49.81,49.81,0,0,0-1.71-7.82,5.52,5.52,0,0,1-.1-.71c1.56-.58,3.17-.21,4.76-.2l8,.08a4.81,4.81,0,0,0,2.32.1c1-.11,1.18.39,1.32,1.11a29.82,29.82,0,0,0,.67,6c.23.48-.09,1,.23,1.5h0c.16,1.57.27,3.16.5,4.73.1.7,0,1-.78,1q-6.24.21-12.49.53c-.83,0-1.09-.31-1.29-1.05C732.9,2497.38,732.86,2495.51,731.9,2493.91Z"/>
        <path class="cls-4" d="M713.35,2493.91l-2.8-8.68c0-.4.33-.44.64-.43,2.5,0,5-.12,7.5.09,1.49,0,3,.1,4.47.09.79,0,1.09.26,1.26,1.07.54,2.63,1.2,5.25,1.81,7.87.44,1.86.86,3.72,1.33,5.57.15.59.16,1-.61,1-3.47.1-7,.21-10.42.36-.7,0-.94-.27-1.14-.87C714.74,2497.93,714,2495.92,713.35,2493.91Z"/>
        <path class="cls-4" d="M753.07,2493.92c-.26-2-.57-4-.76-6a7.58,7.58,0,0,0-.45-2.33h7.21a58.1,58.1,0,0,0,6.33.15,8.75,8.75,0,0,1,1.77.07c1.47-.13,1.12,1,1.18,1.78-.32,1.1,0,2.25-.2,3.36l0,3a.28.28,0,0,0,0,.28c-.37,1.18,0,2.41-.22,3.6,0,.64-.14,1.06-1,1.08-4.11.11-8.21.3-12.32.48-.67,0-.8-.29-.87-.88C753.51,2497,753.27,2495.44,753.07,2493.92Z"/>
        <path class="cls-4" d="M774,2487.35c.07-.79,0-1.72,1.27-1.5a60.7,60.7,0,0,0,6.47.15,8.13,8.13,0,0,1,1.91.08c1.49,0,3,.08,4.46.1.58,0,.86,0,.69.82-.48,2.29-.81,4.61-1.2,6.92-.61,4.17-.61,4.17-4.68,4.33-2.79.1-5.58.14-8.36.36-1,.08-1-.39-1.06-1.08.38-1.18-.05-2.42.23-3.6l.07-3.27C774.13,2489.58,773.76,2488.45,774,2487.35Z"/>
        <path class="cls-4" d="M793.17,2493.92c.7-1.41.66-3,1-4.5.21-1,.45-2,.58-3a20.49,20.49,0,0,1,5.07-.1h5.05c-.72,2.69-1.38,5.12-2,7.55a1,1,0,0,0-.18.24c-.41,1.1-.24,2.67-1.2,3.22s-2.31.25-3.5.31c-1.39.06-2.78,0-4.16.16-.88.08-1-.24-.87-1A6.2,6.2,0,0,0,793.17,2493.92Z"/>
        <path class="cls-17" d="M767.85,2497.8a14,14,0,0,1,.22-3.6C768,2495.4,768.34,2496.63,767.85,2497.8Z"/>
        <path class="cls-17" d="M773.71,2493.93a14.51,14.51,0,0,1-.23,3.6c0-1.1,0-2.21,0-3.31Z"/>
        <path class="cls-20" d="M799.85,2503.81c-.74-.66-1.65-.08-2.45-.34.7-.48,1.49-.2,2.24-.25C800,2503.2,800.12,2503.49,799.85,2503.81Z"/>
        <path class="cls-4" d="M744.42,2469.13a11.79,11.79,0,0,0,.37,3.55c.24.48-.09,1,.24,1.51a21.9,21.9,0,0,0,.59,5.29,9.08,9.08,0,0,1-3.56.15l-8.08-.08a22.9,22.9,0,0,0-4-.15c-.51,0-1.12.19-1.42-.49l-1.52-6.54a10.41,10.41,0,0,1-1.15-4.2c.24-1.42-1-2.7-.42-4.15.7.3,1.46,0,2.17.21,4.66.33,9.33.63,14,1,2.53.2,2.11-.27,2.48,2.45C744.21,2468.16,744.32,2468.65,744.42,2469.13Z"/>
        <path class="cls-4" d="M750.73,2475.05l-.67-6c.15-1.07-.82-2.44,0-3.09.61-.48,2,0,3,.06,4.81.32,9.62.69,14.44.94,1.31.07,1.79.5,1.55,1.8a10.66,10.66,0,0,0,0,1.79c-.12,2.73-.28,5.46-.35,8.2,0,1-.27,1.38-1.36,1.35-5-.16-10-.25-14.93-.3-1.14,0-1.31-.73-1.33-1.51a11.68,11.68,0,0,0-.1-1.77C750.73,2476.07,751.06,2475.51,750.73,2475.05Z"/>
        <path class="cls-4" d="M706.34,2472.37l-1.42-4.19c-.36-1.73-1.4-3.26-1.51-5.07.36-.83,1-.4,1.54-.34l3.24,0c.68.33,1.42,0,2.11.21l2.1.08c.77.36,1.62,0,2.4.24l2.05.07c.68.33,1.44,0,2.14.22.88,1.51.74,3.31,1.4,4.89a5.37,5.37,0,0,1,1,3.86c.16,2.31,1,4.48,1.41,6.87h-5a55.51,55.51,0,0,0-6.32-.15,11.51,11.51,0,0,1-1.76-.06c-1.06.07-1.55-.37-1.8-1.47C707.54,2475.81,706.89,2474.1,706.34,2472.37Z"/>
        <path class="cls-4" d="M787.83,2468.41l2.08.08c.66.39,1.45-.11,2.11.3a.71.71,0,0,0,.05.29c-.62,3.48-1.26,7-1.85,10.43-.12.75-.45,1-1.18,1-2.09,0-4.18,0-6.28,0-2.26-.33-4.53,0-6.8-.16-.53,0-1.09.17-1.59-.17q.17-4.9.31-9.81c.47-2.76.47-2.73,3.33-2.53C781.28,2468,784.56,2468.2,787.83,2468.41Z"/>
        <path class="cls-15" d="M721.37,2472.38a23.48,23.48,0,0,1-1-3.86c1.84-.13,3.71.15,5.53-.35.84,1.28.88,2.77,1.15,4.2Z"/>
        <path class="cls-21" d="M714.8,2463.34a6.49,6.49,0,0,1-2.4-.24C713.19,2463.2,714,2462.85,714.8,2463.34Z"/>
        <path class="cls-21" d="M727.67,2464.23a5.86,5.86,0,0,1-2.17-.21C726.22,2464.07,727,2463.76,727.67,2464.23Z"/>
        <path class="cls-21" d="M710.3,2463a5,5,0,0,1-2.11-.21C708.89,2462.88,709.64,2462.58,710.3,2463Z"/>
        <path class="cls-21" d="M719,2463.63a5.51,5.51,0,0,1-2.14-.22C717.56,2463.48,718.31,2463.17,719,2463.63Z"/>
        <path class="cls-22" d="M705,2462.77c-.5.18-1.13-.23-1.54.34C703.44,2462.34,703.6,2462.3,705,2462.77Z"/>
        <path class="cls-4" d="M797.72,2469.7c.86-1.18,2,0,3-.39l2.08.08c.77.36,1.62,0,2.4.23l2.05.08c.69.32,1.45,0,2.14.22-.18,2.66-1.24,5.1-1.91,7.64-.88,3.32-1,3.29-4.41,3.18-2-.07-4-.14-6-.1-1,0-1.24-.25-1.05-1.27C796.66,2476.15,797.17,2472.92,797.72,2469.7Z"/>
        <path class="cls-23" d="M774.37,2480.12c2.8.23,5.61,0,8.39.33-2.33,0-4.67,0-7,0C775.28,2480.44,774.74,2480.62,774.37,2480.12Z"/>
        <path class="cls-23" d="M709.74,2479a64.09,64.09,0,0,1,8.08.21C715.13,2479.12,712.42,2479.53,709.74,2479Z"/>
        <path class="cls-23" d="M728.59,2478.91c.88.75,1.95.37,2.94.48a8.08,8.08,0,0,1,2.45.16h-4.3C729.2,2479.55,728.64,2479.66,728.59,2478.91Z"/>
        <path class="cls-21" d="M742.06,2479.63l3.56-.15A4.63,4.63,0,0,1,742.06,2479.63Z"/>
        <path class="cls-24" d="M805.18,2469.62a6.7,6.7,0,0,1-2.4-.23C803.58,2469.48,804.42,2469.13,805.18,2469.62Z"/>
        <path class="cls-24" d="M809.37,2469.92a5.53,5.53,0,0,1-2.14-.22C807.94,2469.76,808.7,2469.45,809.37,2469.92Z"/>
        <path class="cls-21" d="M750.73,2475.05a2.67,2.67,0,0,1,.24,1.5C750.55,2476.1,750.78,2475.55,750.73,2475.05Z"/>
        <path class="cls-21" d="M745,2474.19a2.72,2.72,0,0,1-.24-1.51C745.21,2473.13,745,2473.68,745,2474.19Z"/>
        <path class="cls-23" d="M718.69,2484.89c-2.28,0-4.56-.07-6.84-.07-.45,0-1-.24-1.3.41-.17-.25-.16-.55.16-.54C713.37,2484.74,716,2484.35,718.69,2484.89Z"/>
        <path class="cls-17" d="M783.63,2486.08a78.1,78.1,0,0,1-8.38-.23c2.32,0,4.64,0,7,0C782.69,2485.85,783.21,2485.7,783.63,2486.08Z"/>
        <path class="cls-17" d="M767.17,2485.77a68.36,68.36,0,0,1-8.1-.22C761.77,2485.67,764.48,2485.25,767.17,2485.77Z"/>
        <path class="cls-23" d="M799.79,2486.37l-5.07.1A9.39,9.39,0,0,1,799.79,2486.37Z"/>
        <path class="cls-17" d="M734.85,2485.18c-1.58.15-3.19-.23-4.76.2C731.64,2484.56,733.25,2484.9,734.85,2485.18Z"/>
        <path class="cls-17" d="M746.52,2486.47c-.17-.76-.52-1.18-1.42-1.09a4.53,4.53,0,0,1-2.22-.12c.85,0,1.69,0,2.53,0S746.63,2485.63,746.52,2486.47Z"/>
        <path class="cls-17" d="M774,2487.35a11.49,11.49,0,0,1-.2,3.31C773.87,2489.56,773.52,2488.43,774,2487.35Z"/>
        <path class="cls-17" d="M768.15,2490.91a13.51,13.51,0,0,1,.2-3.36C768.28,2488.67,768.63,2489.82,768.15,2490.91Z"/>
        <path class="cls-17" d="M747.42,2493.93a2.58,2.58,0,0,1-.23-1.5C747.6,2492.88,747.37,2493.43,747.42,2493.93Z"/>
        <path class="cls-19" d="M723.52,2506.2a16.52,16.52,0,0,1-3.91.22C720.89,2505.93,722.22,2506.3,723.52,2506.2Z"/>
        <path class="cls-21" d="M792,2468.79l-2.11-.3C790.61,2468.6,791.39,2468.19,792,2468.79Z"/>
      </g>
    </g>
    <g id="_9" data-name="9">
      <circle class="cls-2" cx="747" cy="2910" r="125"/>
      <g>
        <path class="cls-14" d="M757.23,2931.05c-2.77-3.84-5.44-7.57-8.11-11.29s-5.46-7.56-8.15-11.36a14,14,0,0,1,2.23-18.56c7.22-6.2,14.52-12.3,21.79-18.44l.9-.77-1.11-.84-10.94-8.14a10.32,10.32,0,0,0-3.66-1.67,5.12,5.12,0,0,0-2.69.05q-14.28,3.84-28.57,7.67c-.43.12-.5,0-.59-.37-1.11-4.16-2.22-8.32-3.36-12.46-.17-.59.12-.65.53-.75l22.65-6.06c2.49-.67,5-1.43,7.49-1.94a20.06,20.06,0,0,1,12.25,1.78,35.7,35.7,0,0,1,6.84,4.42q12,8.92,24,17.86a20.92,20.92,0,0,1,8.54,14.07c.29,1.93.66,3.85,1,5.77a7.25,7.25,0,0,0,7.4,6q11.09,0,22.18,0c.62,0,.75.14.75.75,0,4.22,0,8.44,0,12.67,0,.5-.13.6-.62.6-7.62,0-15.25,0-22.88,0a21.3,21.3,0,0,1-20.62-17.61c-.27-1.63-.59-3.25-.88-4.87-.28-.06-.39.16-.54.28q-10.33,8.31-20.65,16.61a.75.75,0,0,0-.25,1.09q4.51,9.73,9,19.51a13.91,13.91,0,0,1-7.55,19.07,14.07,14.07,0,0,1-5,.92H710.29c-.52,0-.65-.11-.65-.64,0-4.22,0-8.44,0-12.67,0-.58.13-.71.71-.71q23,0,46,0Z"/>
        <path class="cls-14" d="M800.62,2868.07a14,14,0,1,1,14-14A14,14,0,0,1,800.62,2868.07Z"/>
        <path class="cls-14" d="M757.21,2952.07l-5.47,5.62q-10.69,11-21.38,21.94c-.32.33-.53.36-.9.11q-5.44-3.55-10.9-7.06c-.44-.28-.45-.42-.1-.79q9.42-9.72,18.81-19.46a1.07,1.07,0,0,1,.84-.39h18.67Z"/>
        <path class="cls-14" d="M745.27,2875.11c-2.4,1.75-4.73,3.41-7,5.13-.82.61-1.73,1.09-2.55,1.69a1,1,0,0,1-.67.13q-22.9,0-45.83,0c-.47,0-.57-.14-.56-.58q0-2.94,0-5.88c0-.38,0-.57.51-.57q27.95,0,55.9,0Z"/>
        <path class="cls-14" d="M729.94,2889.1c-.33.83-.65,1.64-1,2.45a11.85,11.85,0,0,0-1.08,4.16c0,.28-.09.38-.36.35h-.42q-18.83,0-37.65,0c-.63,0-.8-.15-.79-.79.05-1.91,0-3.82,0-5.74,0-.39.11-.5.5-.5q20.29,0,40.59,0Z"/>
        <path class="cls-14" d="M729.24,2910.06h-.75q-19.54,0-39.1,0c-.61,0-.76-.13-.75-.75.05-1.91,0-3.82,0-5.73,0-.43.09-.54.53-.54h37.49c.36,0,.55.09.62.46.15.78.35,1.54.5,2.32A12.37,12.37,0,0,0,729.24,2910.06Z"/>
      </g>
    </g>
    <g id="_10" data-name="10">
      <circle class="cls-2" cx="747" cy="3322" r="125"/>
      <g>
        <path d="M691.88,3382c0-.36.11-.72.12-1.08v-79.44l-3.16,2.92c-1.44,1.34-2.88,2.69-4.34,4s-2.9,1.47-4,.26-.73-2.49.71-3.83l33.57-31.19q17-15.82,34.06-31.67c.86-.8,1.29-.81,2.16,0q33.63,31.32,67.33,62.58c.27.25.55.48.8.75a2.43,2.43,0,0,1,.13,3.45,2.33,2.33,0,0,1-3.45,0c-2.42-2.17-4.78-4.41-7.17-6.63l-.54-.47a1.7,1.7,0,0,0-.2,1.22q0,39,0,77.89c0,.41.08.81.12,1.22Z"/>
        <path class="cls-4" d="M803.11,3337.05c0,12.94,0,25.88,0,38.82,0,1.11-.33,1.32-1.36,1.32q-15.56-.06-31.11,0c-1.15,0-1.42-.3-1.42-1.44q.06-18.45,0-36.89a19.3,19.3,0,0,0-38.34-3.47,28.36,28.36,0,0,0-.26,4.11c0,12.07,0,24.14,0,36.2,0,1.24-.32,1.5-1.51,1.49q-15.56-.08-31.11,0c-1,0-1.27-.25-1.27-1.27q0-38.9,0-77.78a2.49,2.49,0,0,1,.89-2q25.74-23.86,51.44-47.77c.62-.58,1-.67,1.63,0q25.74,24,51.54,47.87a2.45,2.45,0,0,1,.81,2Q803.09,3317.64,803.11,3337.05Z"/>
        <path class="cls-4" d="M764.48,3357c0,6.33,0,12.66,0,19,0,.94-.23,1.25-1.21,1.25q-13.35-.06-26.7,0c-.93,0-1.15-.29-1.14-1.17,0-12.39-.05-24.78,0-37.17.08-10.49,10-17.45,19.63-13.85a14.71,14.71,0,0,1,9.37,14.06C764.51,3345,764.48,3351,764.48,3357Z"/>
      </g>
      <circle class="cls-2" cx="749" cy="5037" r="125"/>
    </g>
    <g id="_11" data-name="11">
      <circle class="cls-25" cx="751" cy="3615" r="75"/>
      <g>
        <path d="M749.07,3660.31c-15.72-.75-32.63-11.26-39.29-29.35a43.81,43.81,0,0,1-2.64-18.73,44.28,44.28,0,0,1,15.21-30.64,44.78,44.78,0,0,1,21.2-10.43,46,46,0,0,1,12.11-.61c16.63,1,34.26,12.94,39.84,32.88a37,37,0,0,1,1.41,8.16c0,.08,0,.19.09.23v.27a.35.35,0,0,0,0,.37v.64c-.1.19,0,.4,0,.6a7.35,7.35,0,0,0,0,1.24v.73c-.1.21,0,.43,0,.64s-.05.44,0,.65v.46c-.09.11,0,.24,0,.36s0,.26,0,.37v.46c-.12.72-.07,1.45-.14,2.18a37.53,37.53,0,0,1-1.38,7.2,47.15,47.15,0,0,1-3.12,7.78,45.06,45.06,0,0,1-18.28,19,45.41,45.41,0,0,1-16,5.4,22.86,22.86,0,0,1-2.74.14c-.17,0-.34-.05-.5,0h-.73a1.83,1.83,0,0,0-.66,0h-2.69c-.23,0-.47-.05-.69,0h-.55C749.39,3660.28,749.21,3660.39,749.07,3660.31Z"/>
        <path class="cls-26" d="M750.72,3660.31h.92s0,0,0,.05,0,0,0,0h-.92s0,0,0,0S750.71,3660.31,750.72,3660.31Z"/>
        <path class="cls-27" d="M751.64,3660.39v-.08h.83s0,0,0,.05,0,0,0,0Z"/>
        <path class="cls-28" d="M750.72,3660.31v.08h-.64C750.27,3660.2,750.51,3660.33,750.72,3660.31Z"/>
        <path class="cls-29" d="M753.48,3660.31c.21,0,.45-.1.64.08h-.64s0,0,0,0S753.47,3660.31,753.48,3660.31Z"/>
        <path class="cls-30" d="M753.48,3660.31v.08h-.55s0,0,0-.06l0,0Z"/>
        <path class="cls-31" d="M749.07,3660.31c.15,0,.33-.09.46.08h-.46Z"/>
        <path class="cls-32" d="M752.93,3660.31v.08h-.46v-.08Z"/>
        <path class="cls-4" d="M711.43,3615.33A40.61,40.61,0,1,1,751.92,3656,40.65,40.65,0,0,1,711.43,3615.33Z"/>
        <path d="M752.11,3607.67h19.83a3.36,3.36,0,0,1,1.45.51,6,6,0,0,1,2.76,8.2,5.28,5.28,0,0,1-2.54,2.42,1.26,1.26,0,0,0-.85,1.47c.07.66,0,1.34.08,2,0,.29.07.4.41.31,1.12-.29,2.25-.56,3.38-.8a3,3,0,0,1,2.65.5,2.85,2.85,0,0,1-.57,4.85,26.62,26.62,0,0,1-3.93,1.2c-.51.14-1,.28-1.55.39-.3.06-.37.21-.37.5-.05,2.63-.12,5.26-.18,7.89a1.37,1.37,0,0,1-.16.66,9.49,9.49,0,0,1-2.09,3.14,11.18,11.18,0,0,1-2.5,1.51,1,1,0,0,1-.45,0H736.63a1.45,1.45,0,0,1-.65-.16,8.81,8.81,0,0,1-3.27-2.53,6,6,0,0,1-1.27-3.6c0-2.35-.09-4.69-.12-7a.47.47,0,0,0-.43-.54c-1.63-.4-3.26-.8-4.85-1.35a2.77,2.77,0,0,1-1.84-3.31,2.89,2.89,0,0,1,3.11-2.26,32.61,32.61,0,0,1,3.65.82c.3.08.4.06.39-.28,0-.89,0-1.78,0-2.66a.45.45,0,0,0-.28-.46,11.66,11.66,0,0,1-1.4-.86,5.88,5.88,0,0,1,2.21-10.43,10.59,10.59,0,0,1,2.33-.12h17.9Z"/>
        <path d="M754,3586.23a.91.91,0,0,1-.2.5,6.5,6.5,0,0,0-.59,5.8c.45,1.44,1.05,2.83,1.57,4.24a9.58,9.58,0,0,1,.59,5.08,6.89,6.89,0,0,1-1,2.15c-.07.13-.18.13-.31.13h-3.89s0-.08,0-.1A6.15,6.15,0,0,0,751,3598c-.53-1.59-1.13-3.15-1.68-4.74a14.86,14.86,0,0,1-.62-2.38,5.14,5.14,0,0,1,.54-3.29c.23-.43.35-1,.71-1.24s.91-.08,1.38-.08C752.19,3586.22,753.06,3586.23,754,3586.23Z"/>
        <path d="M760.09,3604.13a7.12,7.12,0,0,0,1.11-2.58,9.3,9.3,0,0,0-.6-4.67c-.59-1.65-1.3-3.25-1.77-5a6.46,6.46,0,0,1,.63-5,.94.94,0,0,1,.82-.55,20.1,20.1,0,0,1,3.29-.08c.36,0,.39.14.21.4a5.31,5.31,0,0,0-.95,2.11,8.2,8.2,0,0,0,.35,3.93c.58,1.73,1.34,3.4,1.83,5.17a7.79,7.79,0,0,1,.32,3.92,6.41,6.41,0,0,1-1.12,2.19.31.31,0,0,1-.31.14Z"/>
        <path d="M740.23,3604.12a6.43,6.43,0,0,1,.36-.7,5.82,5.82,0,0,0,.73-4.1,16,16,0,0,0-1.31-4.27,23.45,23.45,0,0,1-1.27-4.1,6.36,6.36,0,0,1,1-4.33c.15-.27.42-.29.68-.31a28,28,0,0,1,3.3,0c.32,0,.25.13.16.33a11.7,11.7,0,0,0-1,2.18,7.17,7.17,0,0,0,.32,3.7c.52,1.8,1.27,3.53,1.87,5.31a6.59,6.59,0,0,1-.25,5.41,1.51,1.51,0,0,1-1.49.94C742.35,3604.09,741.32,3604.12,740.23,3604.12Z"/>
        <path class="cls-4" d="M752.06,3619.43c5.28,0,10.55,0,15.83,0,.38,0,.47.08.47.47,0,4.51,0,9,0,13.54a20,20,0,0,1-.14,2.79c-.17,1.16-.53,1.53-1.69,1.69a39.74,39.74,0,0,1-5.45.21c-7.74,0-15.48,0-23.22,0a1.37,1.37,0,0,1-.82-.32,2.76,2.76,0,0,1-1.19-2.62c0-5.1,0-10.19-.08-15.29,0-.38.07-.5.49-.5C741.5,3619.44,746.78,3619.43,752.06,3619.43Z"/>
        <path class="cls-4" d="M751.92,3612.13c5.55,0,11.11,0,16.66,0a21,21,0,0,1,2.75.12,1.32,1.32,0,0,1-.05,2.59c-1.52.15-3.06.12-4.58.12l-33.56,0a1.47,1.47,0,0,1-1.36-1.47,1.28,1.28,0,0,1,1.32-1.42h18.82Z"/>
      </g>
    </g>
    <g id="_12" data-name="12">
      <circle class="cls-25" cx="753" cy="3800" r="75"/>
      <g>
        <path d="M794,3800.38a4.16,4.16,0,0,1-1.75,2.19c-.15.08-.3.24-.44.23-1.26-.11-1.16.71-1.16,1.56,0,2.72,0,5.44,0,8.17a17.32,17.32,0,0,1-4.35,11.64,18.21,18.21,0,0,1-8.59,5.76c-.63.2-.67.47-.43,1,.54,1.3,1,2.68,2.63,3a6,6,0,0,1,2.22.7,3.6,3.6,0,0,1,.81,5c-1.47,1.9-3.41,1.52-5.25,1.06-3.51-.89-5.57-3.42-6.89-6.65a11.68,11.68,0,0,1-.88-3.17c0-.25-.14-.29-.33-.28H728.92c-.39,0-.72-.14-.86.57a12.82,12.82,0,0,1-3.86,7.42,8,8,0,0,1-7.47,2.19c-1.55-.37-2.4-1.85-2.34-3.66a3.42,3.42,0,0,1,2.58-3c.88-.21,1.86-.1,2.56-1a8.47,8.47,0,0,0,1.4-2.78c.13-.38-.08-.25-.24-.3a18.87,18.87,0,0,1-8.64-5.61,17.33,17.33,0,0,1-4.36-8.51,29.08,29.08,0,0,1-.32-5.18c0-2.35,0-4.69,0-7,0-.47-.09-.72-.57-.84A3.43,3.43,0,0,1,704,3799a19.67,19.67,0,0,0,0-3.07,3.42,3.42,0,0,1,3.38-3.47h.53q37.29,0,74.59,0c.72,0,1-.1,1-.92,0-9,.09-18-.08-27.06-.07-3.89-2.24-6.34-6.39-6.48a6.94,6.94,0,0,0-4.81,1.4,7.39,7.39,0,0,0-1.57,2.19c-.23.39-.1.63.3.8a9.6,9.6,0,0,1,4.88,4.94,9.79,9.79,0,0,1,1,4c0,.43-.12.54-.54.54q-9.93,0-19.86,0c-.42,0-.55-.11-.53-.54a10.39,10.39,0,0,1,2.52-6.45,9.26,9.26,0,0,1,4.48-3c.31-.09.33-.3.4-.58a13.39,13.39,0,0,1,5.23-8.07,11.91,11.91,0,0,1,5.31-2.07c.14,0,.3,0,.34-.18h5.1a11,11,0,0,1,4.73,1.4,13.19,13.19,0,0,1,6.2,8.08,19.62,19.62,0,0,1,.76,5.55c0,8.26,0,16.51,0,24.77,0,.89.16,1.46,1.12,1.77a2.84,2.84,0,0,1,2,2.36Z"/>
        <path d="M777,3782.61c0,1.1-.54,1.85-1.36,1.95a1.74,1.74,0,0,1-2.16-1.52,4.5,4.5,0,0,1-.17-1.79,1.68,1.68,0,0,1,1.66-1.61,1.85,1.85,0,0,1,1.81,1.35A4.2,4.2,0,0,1,777,3782.61Z"/>
        <path d="M759.36,3781.79a3.17,3.17,0,0,1-.36,1.89,1.41,1.41,0,0,1-1.26.89,1.85,1.85,0,0,1-1.82-.74,4.18,4.18,0,0,1,.43-3.64,1.75,1.75,0,0,1,1.87-.42A1.65,1.65,0,0,1,759.36,3781.79Z"/>
        <path d="M768.17,3782.11c0,1.41-.63,2.33-1.61,2.46a1.85,1.85,0,0,1-1.94-1.33,3.57,3.57,0,0,1,.24-2.8,1.61,1.61,0,0,1,1.87-.74,1.93,1.93,0,0,1,1.43,1.88A3.11,3.11,0,0,1,768.17,3782.11Z"/>
        <path d="M778.54,3789.12a2,2,0,0,1-1.95,1.77,2.7,2.7,0,0,1-2.09-2.55,2.08,2.08,0,0,1,1.9-1.83C777.38,3786.48,778.52,3787.89,778.54,3789.12Z"/>
        <path d="M756.05,3790.89a2,2,0,0,1-1.94-1.77c0-1.24,1.17-2.65,2.14-2.61a2.2,2.2,0,0,1,1.89,1.75C758.16,3789.5,757.06,3790.89,756.05,3790.89Z"/>
        <path d="M773.17,3773.49c1.22-.22,2,1,2.19,2.43a1.73,1.73,0,0,1-1.72,1.79,2.24,2.24,0,0,1-2.13-2.48A1.58,1.58,0,0,1,773.17,3773.49Z"/>
        <path d="M759.45,3773.49a1.59,1.59,0,0,1,1.69,1.71,2.3,2.3,0,0,1-2.11,2.51,1.78,1.78,0,0,1-1.75-1.77C757.36,3774.82,758.13,3773.26,759.45,3773.49Z"/>
        <path d="M768.17,3788.71c-.06,1.59-.84,2.18-1.87,2.15s-1.79-.61-1.82-2.2a1.93,1.93,0,0,1,1.83-2.14A2,2,0,0,1,768.17,3788.71Z"/>
        <path d="M764.48,3775.52c.06-1.6.79-2.13,2-2a1.94,1.94,0,0,1,1.67,2.1c-.09,1.49-.69,2-1.82,2.11A1.86,1.86,0,0,1,764.48,3775.52Z"/>
        <path class="cls-4" d="M749,3803q16.79,0,33.55,0c.75,0,.91.18.89.9,0,3-.1,5.92,0,8.87a9.54,9.54,0,0,1-2.53,6.69,11.17,11.17,0,0,1-5.68,3.8,7.49,7.49,0,0,1-1.93.32c-15.93,0-31.85,0-47.78,0a10.32,10.32,0,0,1-6.45-2.29,12.06,12.06,0,0,1-3.75-4.59,8,8,0,0,1-.8-3.37c0-3.16,0-6.33,0-9.49,0-.66.14-.86.84-.86Q732.22,3803,749,3803Z"/>
      </g>
    </g>
    <g id="_13" data-name="13">
      <circle class="cls-25" cx="751" cy="3999" r="75"/>
      <g>
        <path class="cls-33" d="M730.87,3955.38h52.76c2.63.63,3.81,2.19,3.81,5.06v60.77c0,1.85,0,3.71,0,5.56a5,5,0,0,1-1.92,4,5.77,5.77,0,0,1-3.5,1c-1,.06-2,0-3,0s-1,0-1.06,1.06,0,2.19,0,3.28a10.44,10.44,0,0,1-.17,1.85,4.36,4.36,0,0,1-4.47,3.76H758.19c-11.94,0-23.88-.06-35.82,0a4.79,4.79,0,0,1-4.93-4.9c0-5.65,0-11.3,0-16.94q0-23.78,0-47.54c0-1.43.14-2.86.1-4.29a3.07,3.07,0,0,1,.92-2.12c1.89-2.11,3.82-4.19,5.73-6.28.31-.33.63-.65.91-1C726.6,3956.91,728.37,3955.51,730.87,3955.38Z"/>
        <path class="cls-4" d="M772.33,4003.62q0,15.93,0,31.86c0,.68-.13.88-.85.88q-20.31,0-40.63,0c-.71,0-.85-.19-.85-.88q0-31.86,0-63.72c0-.68.13-.88.85-.88q20.31,0,40.62,0c.72,0,.86.2.86.88Q772.32,3987.69,772.33,4003.62Z"/>
        <path class="cls-4" d="M726.48,3965.56c1.39-1.52,2.61-2.87,3.85-4.2a2.37,2.37,0,0,1,1.86-.62c3.57,0,7.13,0,10.7,0q19,0,38,0c.69,0,.93.1.93.88q0,31.86,0,63.71c0,.69-.13.93-.86.88a18.23,18.23,0,0,0-2.86,0c-.38,0-.42-.08-.41-.38s0-.45,0-.67v-54.53c0-2.59-1.13-4.29-3.26-4.9a7.08,7.08,0,0,0-2-.2H726.48Z"/>
        <path class="cls-4" d="M723.09,4003.63c0-10.59,0-21.18,0-31.77,0-.84.24-1,1-1a30.55,30.55,0,0,0,3.45,0c.62,0,.81.19.72.75a1.13,1.13,0,0,0,0,.26q0,31.71,0,63.44c0,.78-.12,1.09-1,1a25,25,0,0,0-3.46,0c-.67,0-.76-.21-.76-.8Q723.1,4019.59,723.09,4003.63Z"/>
        <path class="cls-33" d="M750.45,3979.6H765.7c1.32,0,1.52.2,1.52,1.5v10.79c0,1.3-.21,1.5-1.53,1.5H735.11c-1.31,0-1.52-.22-1.52-1.51v-10.79c0-1.29.2-1.49,1.52-1.49Z"/>
        <path class="cls-4" d="M750.33,3991.62c-4.69,0-9.38,0-14.06,0-.67,0-.91-.1-.9-.84,0-2.89,0-5.79,0-8.68,0-.55.08-.77.71-.76q14.32,0,28.64,0c.52,0,.72.09.71.67q0,4.47,0,8.93c0,.58-.18.68-.7.68C759.93,3991.61,755.13,3991.62,750.33,3991.62Z"/>
      </g>
    </g>
    <g id="_14" data-name="14">
      <circle class="cls-25" cx="749" cy="4185" r="75"/>
      <g>
        <path class="cls-34" d="M768.38,4205.55a.88.88,0,0,1-.88-.15h.85A.19.19,0,0,0,768.38,4205.55Z"/>
        <path d="M741,4135.43a8.69,8.69,0,0,1,7.34,7.91,16.71,16.71,0,0,1-6.22,13.81l-.65.57a2.28,2.28,0,0,0,.88.59q13.34,7.21,26.66,14.45a2.52,2.52,0,0,0,1.25.29c5.19,0,10.37,0,15.56,0a5.77,5.77,0,0,1,1.17,11.47c-.81.09-1,.38-1.05,1.17-.41,6.2-.87,12.39-1.32,18.58-.26,3.62-.57,7.24-.76,10.87a10.3,10.3,0,0,1-10.58,10.15q-13.28,0-26.55,0a10.22,10.22,0,0,1-10.55-9.88c-.64-9-1.3-18.05-1.93-27.08,0-.62-.21-.82-.88-.82q-12,0-24.08,0a6.89,6.89,0,0,1-7.13-5.19,3.94,3.94,0,0,1-.08-.6c-.16-.29.06-.64-.15-.92v-1.4c.31-2.61,1.91-4.22,4.12-5.4,7.36-3.93,14.67-7.94,22-11.9,2.63-1.42,5.3-2.77,7.86-4.3a20.27,20.27,0,0,0,7.36-6.77,12.15,12.15,0,0,0,1.82-8,5.4,5.4,0,0,0-6.36-4.51,4.23,4.23,0,0,0-3.19,4.11,4.11,4.11,0,0,0,3.76,4l.26,0c.56.08,1.34-.27,1.61.36a4.42,4.42,0,0,1,.06,2.67c-.08.39-.48.39-.8.41a7.88,7.88,0,0,1-7.54-4.38,7.51,7.51,0,0,1,1.43-8.39,6.3,6.3,0,0,1,4.51-2H740C740.32,4135.49,740.67,4135.27,741,4135.43Z"/>
        <path class="cls-35" d="M741,4135.43a1,1,0,0,1-.92-.15h.88A.66.66,0,0,1,741,4135.43Z"/>
        <path class="cls-36" d="M701.89,4180.81a.93.93,0,0,1,.15.92.24.24,0,0,1-.15,0Z"/>
        <path class="cls-4" d="M763.05,4173H734.26a5.8,5.8,0,0,0-2.37,11.25,3.53,3.53,0,0,1,.83.37H709.26a4.06,4.06,0,0,1-4.29-2.91,3.94,3.94,0,0,1,1.38-4.23,10.38,10.38,0,0,1,1.19-.75L736.73,4161a1.64,1.64,0,0,0,.22-.14c1.29-1.17,2.46-.86,3.91-.05,7.14,4,14.35,7.84,21.54,11.73l.68.39Z"/>
        <path class="cls-4" d="M759.89,4181.72q-12.82,0-25.66,0a3,3,0,0,1-2.85-1.37,2.86,2.86,0,0,1,1.73-4.31,4.12,4.12,0,0,1,1-.13q25.8,0,51.58,0c2.13,0,3.46,1.41,3.21,3.36a2.84,2.84,0,0,1-2.52,2.41,9.21,9.21,0,0,1-1,0Z"/>
        <path class="cls-4" d="M771.26,4210.34l2.24,2.17c.42-.47.87-1,1.31-1.48.22-.25.39-.37.7-.06,1.63,1.67,3.29,3.32,5,5a.69.69,0,0,1,.21.71,7.14,7.14,0,0,1-4.24,5.13.5.5,0,0,1-.67-.16c-1.8-1.8-3.59-3.61-5.41-5.4-.32-.31-.26-.47,0-.76s1.19-.78,1.12-1.34-.79-.81-1.14-1.27c-.51-.66-.94-.75-1.45,0-.13.19-.35.32-.48.51-.33.44-.57.39-.95,0-1.66-1.7-3.34-3.37-5-5-.35-.34-.37-.53,0-.89,1.47-1.42,2.91-2.88,4.34-4.34.31-.31.5-.36.83,0,1.7,1.74,3.41,3.46,5.15,5.16.36.35.27.55,0,.82C772.23,4209.45,771.76,4209.89,771.26,4210.34Z"/>
        <path class="cls-4" d="M743.43,4193.2l-5.58,5.56c-.28-3.89-.55-7.71-.84-11.65a11,11,0,0,1,1.81,1.7c.32.33.53.45.88,0,.49-.58,1.38-1.06,1.45-1.66s-.89-1-1.4-1.58c-.26-.26-.55-.5-.82-.76.1-.1.14-.18.17-.18h9.67c.9,0,1.18.86,1.74,1.33.18.15-.07.3-.18.41-1.51,1.52-3,3-4.52,4.55-.32.33-.5.24-.77,0-.5-.54-1-1-1.54-1.57-.29-.32-.48-.29-.76,0-.51.56-1.41,1.06-1.47,1.66s.91,1.08,1.42,1.62A4.51,4.51,0,0,0,743.43,4193.2Z"/>
        <path class="cls-4" d="M765.86,4215.86l-.36.38c-1.71,1.72-3.44,3.43-5.14,5.16-.32.33-.49.31-.8,0-1.7-1.74-3.41-3.46-5.15-5.15-.36-.35-.27-.53,0-.82,1.71-1.69,3.41-3.38,5.08-5.09.36-.37.55-.32.88,0,1.68,1.71,3.39,3.4,5.08,5.09C765.61,4215.58,765.72,4215.71,765.86,4215.86Z"/>
        <path class="cls-4" d="M739.2,4216.49c-.08-.24.09-.38.23-.52,1.66-1.66,3.32-3.31,5-5,.28-.28.43-.25.69,0,1.5,1.52,3,3,4.53,4.54.3.29.2.43,0,.68-1.81,1.79-3.61,3.6-5.41,5.39-.16.16-.27.31-.58.22C741.74,4221.33,739.3,4218.38,739.2,4216.49Z"/>
        <path class="cls-4" d="M744.72,4206.52l-.4-.38c-1.47-1.47-2.93-2.94-4.41-4.4-.31-.3-.37-.47,0-.81,1.73-1.69,3.45-3.41,5.14-5.14.33-.33.51-.3.81,0q2.22,2.25,4.47,4.47c.25.25.32.4,0,.69-1.77,1.75-3.52,3.51-5.28,5.27C745,4206.33,744.85,4206.41,744.72,4206.52Z"/>
        <path class="cls-4" d="M780.37,4201.34c-.14.16-.25.29-.38.42-1.47,1.47-3,2.92-4.4,4.41-.34.35-.52.29-.82,0-1.69-1.71-3.38-3.41-5.1-5.09-.37-.36-.32-.56,0-.89,1.47-1.43,2.92-2.89,4.35-4.35.3-.29.48-.4.83,0,1.7,1.74,3.42,3.44,5.14,5.16C780.13,4201.06,780.24,4201.19,780.37,4201.34Z"/>
        <path class="cls-4" d="M752,4213.76l-.41-.39c-1.45-1.45-2.88-2.91-4.35-4.33-.39-.38-.3-.57,0-.89,1.69-1.66,3.37-3.34,5-5,.34-.34.53-.4.89,0,1.43,1.47,2.88,2.91,4.35,4.34.3.3.39.48,0,.83-1.73,1.7-3.44,3.43-5.16,5.14C752.24,4213.53,752.11,4213.63,752,4213.76Z"/>
        <path class="cls-4" d="M757.86,4193.38l-.36.4c-1.47,1.47-2.94,2.93-4.39,4.41-.29.29-.45.34-.76,0q-2.25-2.3-4.53-4.53c-.28-.28-.24-.44,0-.7,1.52-1.5,3-3,4.53-4.52.22-.22.36-.31.63,0,1.53,1.56,3.09,3.11,4.64,4.66A2.43,2.43,0,0,1,757.86,4193.38Z"/>
        <path class="cls-4" d="M767.24,4198.54l-5.23-5.23c1.63-1.61,3.28-3.23,4.9-4.86.26-.26.39-.23.62,0q2.28,2.31,4.59,4.59c.23.23.26.37,0,.62C770.48,4195.28,768.86,4196.92,767.24,4198.54Z"/>
        <path class="cls-4" d="M760,4195.46l.32.29c1.51,1.51,3,3,4.53,4.51.35.34.2.5-.05.75-1.49,1.48-3,3-4.46,4.47-.26.26-.41.3-.68,0-1.5-1.52-3-3-4.52-4.53-.19-.18-.38-.32-.08-.61,1.56-1.54,3.1-3.1,4.65-4.65C759.76,4195.62,759.86,4195.56,760,4195.46Z"/>
        <path class="cls-4" d="M781,4184.78c-2.08,2.09-4.16,4.16-6.23,6.25-.23.23-.37.18-.57,0l-4.58-4.59c-.11-.11-.35-.27-.18-.42.56-.47.84-1.33,1.73-1.33,3.22,0,6.43,0,9.64,0C780.84,4184.67,780.88,4184.72,781,4184.78Z"/>
        <path class="cls-4" d="M760,4184.66c1.05,0,2.11,0,3.16,0a1.08,1.08,0,0,1,.67.12c1.3.89,1.34,1.28.25,2.37-1.24,1.24-2.49,2.47-3.71,3.73-.34.36-.54.37-.89,0-1.44-1.49-2.91-3-4.39-4.41-.3-.29-.29-.43,0-.76a2.58,2.58,0,0,1,2.48-1.08A22.23,22.23,0,0,0,760,4184.66Z"/>
        <path class="cls-4" d="M782.06,4198.88c-1.84-1.84-3.54-3.55-5.25-5.25-.22-.22-.22-.35,0-.56l6.11-6.11C782.62,4191,782.35,4194.86,782.06,4198.88Z"/>
        <path class="cls-4" d="M756.47,4222.34h-8.94l3.16-3.15c1.28-1.28,1.28-1.28,2.54,0C754.24,4220.17,755.27,4221.16,756.47,4222.34Z"/>
        <path class="cls-4" d="M772.41,4222.35h-9c1.52-1.5,2.9-2.86,4.27-4.23.28-.28.4,0,.55.12C769.6,4219.55,770.92,4220.87,772.41,4222.35Z"/>
        <path class="cls-12" d="M781.69,4204.13l-.6,8.32-3.6-3.58c-.18-.18-.21-.31,0-.5Z"/>
        <path class="cls-12" d="M738.46,4204.33c1.29,1.31,2.57,2.62,3.87,3.93.24.24.34.39,0,.69-1.15,1.11-2.28,2.25-3.53,3.49l-.58-8Z"/>
      </g>
    </g>
    <g id="_15" data-name="15">
      <circle class="cls-25" cx="751" cy="4392" r="75"/>
      <g>
        <path class="cls-37" d="M740.28,4378.29a3.19,3.19,0,0,1-.08-1.23s0,0,.08,0Z"/>
        <path class="cls-38" d="M740.19,4379.61c0-.21-.08-.43.09-.62v.61S740.22,4379.65,740.19,4379.61Z"/>
        <path class="cls-39" d="M740.19,4379.61h.09v.62C740.1,4380,740.22,4379.81,740.19,4379.61Z"/>
        <path class="cls-40" d="M740.28,4377.07h-.08c0-.17-.1-.37.08-.52Z"/>
        <path class="cls-41" d="M740.28,4375.93c-.12-.12-.15-.23,0-.35Z"/>
        <path class="cls-42" d="M740.2,4381c0-.13-.07-.26.08-.36v.35S740.23,4381,740.2,4381Z"/>
        <path class="cls-43" d="M740.2,4381h.08v.35C740.11,4381.27,740.22,4381.13,740.2,4381Z"/>
        <path d="M729.77,4352.4v-2.89a6.25,6.25,0,0,1,6.33-6.37c2,0,4.06,0,6.08,0,.27,0,.42-.06.5-.34a9.71,9.71,0,0,1,5.7-6.26,16.44,16.44,0,0,1,13.82,0,9.9,9.9,0,0,1,5.41,5.43l.12.29c.29.86.29.86,1.19.86h5.16a6.27,6.27,0,0,1,6.54,6.52v2.75h.55c3.06,0,6.13,0,9.19,0a9.94,9.94,0,0,1,9.7,7.43,10.45,10.45,0,0,1,.34,2.67q0,33.66,0,67.3a9.94,9.94,0,0,1-8.3,10,10.75,10.75,0,0,1-1.88.14q-34.83,0-69.66,0a9.93,9.93,0,0,1-10-8.25,10.12,10.12,0,0,1-.15-1.91q0-33.59,0-67.17a9.94,9.94,0,0,1,8-10,11.16,11.16,0,0,1,2.17-.21c2.86,0,5.71,0,8.57,0Zm0,5a2.3,2.3,0,0,0-.26,0c-3,0-6.09,0-9.14,0a4.94,4.94,0,0,0-4.92,5.08q0,33.66,0,67.33a5,5,0,0,0,5.1,5.08q34.89,0,69.78,0a5,5,0,0,0,5.11-5.11q0-33.63,0-67.25a5,5,0,0,0-5.09-5.14c-3.09,0-6.18,0-9.28,0l-.42,0a11,11,0,0,1,0,1.15,9.76,9.76,0,0,1-.23,1.72,6.23,6.23,0,0,1-6.19,4.59H735.81a6.25,6.25,0,0,1-6-5.35C729.76,4358.85,729.77,4358.15,729.74,4357.44Zm25.45,2.46h19.25a1.22,1.22,0,0,0,1.16-1.16c0-1.1-.09-2.2-.13-3.3,0-.35,0-.7,0-1.05s.14-.94.15-1.42c0-1.06,0-2.13,0-3.19s-.43-1.63-1.63-1.63H765.9a2.49,2.49,0,0,1-2.61-2.58,6,6,0,0,0-.15-1.12,5.24,5.24,0,0,0-3.16-3.51,11.08,11.08,0,0,0-5.59-.94,9.35,9.35,0,0,0-5,1.66,4.73,4.73,0,0,0-2.08,3.77,2.53,2.53,0,0,1-2.78,2.72h-8.22c-1,0-1.51.47-1.51,1.53v8.62c0,1.16.45,1.61,1.61,1.61Z"/>
        <path class="cls-44" d="M729.74,4357.44c0,.71,0,1.41.11,2.1a6.25,6.25,0,0,0,6,5.35h38.38a6.23,6.23,0,0,0,6.19-4.59,9.76,9.76,0,0,0,.23-1.72,11,11,0,0,0,0-1.15l.42,0c3.1,0,6.19,0,9.28,0a5,5,0,0,1,5.09,5.14q0,33.61,0,67.25a5,5,0,0,1-5.11,5.11q-34.89,0-69.78,0a5,5,0,0,1-5.1-5.08q0-33.66,0-67.33a4.94,4.94,0,0,1,4.92-5.08c3-.05,6.1,0,9.14,0A2.3,2.3,0,0,1,729.74,4357.44Zm40.69,40H755.82c-.22,0-.44,0-.66,0a2.49,2.49,0,0,0-.39,4.89,4.71,4.71,0,0,0,1,.09H785c.15,0,.29,0,.44,0a2.5,2.5,0,1,0-.25-5Zm0,25c5,0,10,0,15,0a2.49,2.49,0,0,0,2.45-3.28,2.51,2.51,0,0,0-2.48-1.71h-30a2.49,2.49,0,0,0-2.36,2.8,2.46,2.46,0,0,0,2.56,2.19C760.46,4422.42,765.42,4422.41,770.38,4422.41Zm0-40H777c2.81,0,5.63,0,8.44,0a2.5,2.5,0,1,0-.09-5H755.42a2.47,2.47,0,0,0-2.37,1.68,2.5,2.5,0,0,0,2.41,3.31Zm-39.26-1-.2,0a2.76,2.76,0,0,0-.28-.39c-1-1-1.91-1.92-2.87-2.88a2.42,2.42,0,0,0-2.44-.7,2.48,2.48,0,0,0-1.12,4.2c1.63,1.65,3.27,3.28,4.91,4.92a2.5,2.5,0,0,0,3.79,0c1.54-1.53,3.07-3.07,4.61-4.61l5.19-5.19a2.45,2.45,0,0,0,.7-2.56,2.49,2.49,0,0,0-4.19-1l-7.85,7.86A1.94,1.94,0,0,0,731.17,4381.39Zm-.1,41.65c-1.11-1.11-2.16-2.17-3.23-3.23a2.5,2.5,0,1,0-3.55,3.51q2.44,2.48,4.92,4.92a2.53,2.53,0,0,0,3.7,0c.91-.95,1.85-1.86,2.78-2.79l7-7.05a2.42,2.42,0,0,0,.71-2.59,2.49,2.49,0,0,0-4.19-1q-3.36,3.33-6.68,6.68C732.08,4422,731.59,4422.5,731.07,4423Zm0-20.8c-1.19-1.19-2.26-2.28-3.35-3.35a2.49,2.49,0,0,0-3.55,3.5c1.67,1.7,3.35,3.41,5.07,5.07a2.48,2.48,0,0,0,3.6,0c.54-.56,1.09-1.1,1.64-1.64q4.1-4.11,8.2-8.2a2.5,2.5,0,1,0-3.48-3.59q-3.91,3.9-7.82,7.82A2.66,2.66,0,0,0,731.12,4402.24Z"/>
        <path class="cls-44" d="M755.19,4359.9H736.38c-1.16,0-1.61-.45-1.61-1.61v-8.62c0-1.06.46-1.53,1.51-1.53h8.22a2.53,2.53,0,0,0,2.78-2.72,4.73,4.73,0,0,1,2.08-3.77,9.35,9.35,0,0,1,5-1.66,11.08,11.08,0,0,1,5.59.94,5.24,5.24,0,0,1,3.16,3.51,6,6,0,0,1,.15,1.12,2.49,2.49,0,0,0,2.61,2.58H774c1.2,0,1.63.43,1.63,1.63s0,2.13,0,3.19c0,.48-.11.95-.15,1.42s0,.7,0,1.05c0,1.1.13,2.2.13,3.3a1.22,1.22,0,0,1-1.16,1.16H755.19Z"/>
        <path d="M770.43,4397.42h14.79a2.5,2.5,0,1,1,.25,5c-.15,0-.29,0-.44,0H755.77a4.71,4.71,0,0,1-1-.09,2.49,2.49,0,0,1,.39-4.89c.22,0,.44,0,.66,0Z"/>
        <path d="M770.38,4422.41c-5,0-9.92,0-14.88,0a2.46,2.46,0,0,1-2.56-2.19,2.49,2.49,0,0,1,2.36-2.8h30a2.51,2.51,0,0,1,2.48,1.71,2.49,2.49,0,0,1-2.45,3.28C780.35,4422.42,775.36,4422.41,770.38,4422.41Z"/>
        <path d="M770.43,4382.41h-15a2.5,2.5,0,0,1-2.41-3.31,2.47,2.47,0,0,1,2.37-1.68h29.92a2.5,2.5,0,1,1,.09,5c-2.81,0-5.63,0-8.44,0Z"/>
        <path d="M731.17,4381.39a1.94,1.94,0,0,1,.25-.42l7.85-7.86a2.49,2.49,0,0,1,4.19,1,2.45,2.45,0,0,1-.7,2.56l-5.19,5.19c-1.54,1.54-3.07,3.08-4.61,4.61a2.5,2.5,0,0,1-3.79,0c-1.64-1.64-3.28-3.27-4.91-4.92a2.48,2.48,0,0,1,1.12-4.2,2.42,2.42,0,0,1,2.44.7c1,1,1.92,1.91,2.87,2.88a2.76,2.76,0,0,1,.28.39Z"/>
        <path d="M731.07,4423c.52-.54,1-1,1.51-1.53q3.33-3.35,6.68-6.68a2.49,2.49,0,0,1,4.19,1,2.42,2.42,0,0,1-.71,2.59l-7,7.05c-.93.93-1.87,1.84-2.78,2.79a2.53,2.53,0,0,1-3.7,0q-2.48-2.44-4.92-4.92a2.5,2.5,0,1,1,3.55-3.51C728.91,4420.87,730,4421.93,731.07,4423Z"/>
        <path d="M731.12,4402.24a2.66,2.66,0,0,1,.31-.43q3.9-3.92,7.82-7.82a2.5,2.5,0,1,1,3.48,3.59q-4.11,4.1-8.2,8.2c-.55.54-1.1,1.08-1.64,1.64a2.48,2.48,0,0,1-3.6,0c-1.72-1.66-3.4-3.37-5.07-5.07a2.49,2.49,0,0,1,3.55-3.5C728.86,4400,729.93,4401.05,731.12,4402.24Z"/>
      </g>
    </g>
    <g id="_16" data-name="16">
      <circle class="cls-25" cx="753" cy="4587" r="75"/>
      <g>
        <path d="M750.07,4635.31c-15.72-.75-32.63-11.26-39.29-29.35a43.81,43.81,0,0,1-2.64-18.73,44.28,44.28,0,0,1,15.21-30.64,44.78,44.78,0,0,1,21.2-10.43,46,46,0,0,1,12.11-.61c16.63,1,34.26,12.94,39.84,32.88a37,37,0,0,1,1.41,8.16c0,.08,0,.19.09.23v.27a.35.35,0,0,0,0,.37v.64c-.1.19,0,.4,0,.6a7.35,7.35,0,0,0,0,1.24v.73c-.1.21,0,.43,0,.64s-.05.44,0,.65v.46c-.09.11,0,.24,0,.36s0,.26,0,.37v.46c-.12.72-.07,1.45-.14,2.18a37.53,37.53,0,0,1-1.38,7.2,47.15,47.15,0,0,1-3.12,7.78,45.06,45.06,0,0,1-18.28,19,45.41,45.41,0,0,1-16,5.4,22.86,22.86,0,0,1-2.74.14c-.17,0-.34-.05-.5.05h-.73a1.83,1.83,0,0,0-.66-.05h-2.69c-.23,0-.47-.05-.69.05h-.55C750.39,4635.28,750.21,4635.39,750.07,4635.31Z"/>
        <path class="cls-26" d="M751.72,4635.31h.92s0,0,0,0,0,0,0,0h-.92s0,0,0-.05S751.71,4635.31,751.72,4635.31Z"/>
        <path class="cls-27" d="M752.64,4635.39v-.08h.83s0,0,0,0,0,0,0,0Z"/>
        <path class="cls-28" d="M751.72,4635.31v.08h-.64C751.27,4635.2,751.51,4635.33,751.72,4635.31Z"/>
        <path class="cls-29" d="M754.48,4635.31c.21,0,.45-.1.64.08h-.64s0,0,0-.05S754.47,4635.31,754.48,4635.31Z"/>
        <path class="cls-30" d="M754.48,4635.31v.08h-.55s0,0,0-.06l0,0Z"/>
        <path class="cls-31" d="M750.07,4635.31c.15,0,.33-.09.46.08h-.46Z"/>
        <path class="cls-32" d="M753.93,4635.31v.08h-.46v-.08Z"/>
        <path class="cls-4" d="M712.43,4590.33A40.61,40.61,0,1,1,752.92,4631,40.65,40.65,0,0,1,712.43,4590.33Z"/>
        <path d="M753.11,4582.67h19.83a3.36,3.36,0,0,1,1.45.51,6,6,0,0,1,2.76,8.2,5.28,5.28,0,0,1-2.54,2.42,1.26,1.26,0,0,0-.85,1.47c.07.66,0,1.34.08,2,0,.29.07.4.41.31,1.12-.29,2.25-.56,3.38-.8a3,3,0,0,1,2.65.5,2.85,2.85,0,0,1-.57,4.85,26.62,26.62,0,0,1-3.93,1.2c-.51.14-1,.28-1.55.39-.3.06-.37.21-.37.5-.05,2.63-.12,5.26-.18,7.89a1.37,1.37,0,0,1-.16.66,9.49,9.49,0,0,1-2.09,3.14,11.18,11.18,0,0,1-2.5,1.51,1,1,0,0,1-.45,0H737.63a1.45,1.45,0,0,1-.65-.16,8.81,8.81,0,0,1-3.27-2.53,6,6,0,0,1-1.27-3.6c0-2.35-.09-4.69-.12-7a.47.47,0,0,0-.43-.54c-1.63-.4-3.26-.8-4.85-1.35a2.77,2.77,0,0,1-1.84-3.31,2.89,2.89,0,0,1,3.11-2.26,32.61,32.61,0,0,1,3.65.82c.3.08.4.06.39-.28,0-.89,0-1.78,0-2.66a.45.45,0,0,0-.28-.46,11.66,11.66,0,0,1-1.4-.86,5.88,5.88,0,0,1,2.21-10.43,10.59,10.59,0,0,1,2.33-.12h17.9Z"/>
        <path d="M755,4561.23a.91.91,0,0,1-.2.5,6.5,6.5,0,0,0-.59,5.8c.45,1.44,1.05,2.83,1.57,4.24a9.58,9.58,0,0,1,.59,5.08,6.89,6.89,0,0,1-1,2.15c-.07.13-.18.13-.31.13h-3.89s0-.08,0-.1A6.15,6.15,0,0,0,752,4573c-.53-1.59-1.13-3.15-1.68-4.74a14.86,14.86,0,0,1-.62-2.38,5.14,5.14,0,0,1,.54-3.29c.23-.43.35-1,.71-1.24s.91-.08,1.38-.08Z"/>
        <path d="M761.09,4579.13a7.12,7.12,0,0,0,1.11-2.58,9.3,9.3,0,0,0-.6-4.67c-.59-1.65-1.3-3.25-1.77-4.95a6.46,6.46,0,0,1,.63-5,.94.94,0,0,1,.82-.55,20.1,20.1,0,0,1,3.29-.08c.36,0,.39.14.21.4a5.31,5.31,0,0,0-.95,2.11,8.2,8.2,0,0,0,.35,3.93c.58,1.73,1.34,3.4,1.83,5.17a7.79,7.79,0,0,1,.32,3.92,6.41,6.41,0,0,1-1.12,2.19.31.31,0,0,1-.31.14Z"/>
        <path d="M741.23,4579.12a6.43,6.43,0,0,1,.36-.7,5.82,5.82,0,0,0,.73-4.1,16,16,0,0,0-1.31-4.27,23.45,23.45,0,0,1-1.27-4.1,6.36,6.36,0,0,1,1-4.33c.15-.27.42-.29.68-.31a28,28,0,0,1,3.3-.05c.32,0,.25.13.16.33a11.7,11.7,0,0,0-1,2.18,7.17,7.17,0,0,0,.32,3.7c.52,1.8,1.27,3.53,1.87,5.31a6.59,6.59,0,0,1-.25,5.41,1.51,1.51,0,0,1-1.49.94C743.35,4579.09,742.32,4579.12,741.23,4579.12Z"/>
        <path class="cls-4" d="M753.06,4594.43c5.28,0,10.55,0,15.83,0,.38,0,.47.08.47.47,0,4.51,0,9,0,13.54a20,20,0,0,1-.14,2.79c-.17,1.16-.53,1.53-1.69,1.69a39.74,39.74,0,0,1-5.45.21c-7.74,0-15.48,0-23.22,0a1.37,1.37,0,0,1-.82-.32,2.76,2.76,0,0,1-1.19-2.62c0-5.1,0-10.19-.08-15.29,0-.38.07-.5.49-.5C742.5,4594.44,747.78,4594.43,753.06,4594.43Z"/>
        <path class="cls-4" d="M752.92,4587.13c5.55,0,11.11,0,16.66,0a21,21,0,0,1,2.75.12,1.32,1.32,0,0,1-.05,2.59c-1.52.15-3.06.12-4.58.12l-33.56,0a1.47,1.47,0,0,1-1.36-1.47,1.28,1.28,0,0,1,1.32-1.42h18.82Z"/>
      </g>
      <circle class="cls-25" cx="753" cy="4789" r="75"/>
      <g>
        <path d="M705,4769c.14-.35.27-.7.43-1a4.55,4.55,0,0,1,4.23-2.64,20,20,0,0,1,2.19,0c.57,0,.69-.18.67-.7,0-1.09,0-2.17,0-3.26,0-.42.13-.54.55-.54,4.63,0,9.26,0,13.89,0,.47,0,.58.15.57.6,0,1.05,0,2.11,0,3.16,0,.54.08.76.7.74q2.32-.07,4.65,0c.58,0,.67-.18.66-.7,0-2.48,0-5,0-7.47,0-3.31,2-5.33,5.27-5.34q11.25,0,22.5,0c3.26,0,5.24,2,5.25,5.27,0,2.52,0,5,0,7.56,0,.55.15.68.68.67,1.58,0,3.16,0,4.75,0,.45,0,.6-.11.58-.58,0-1.08,0-2.17,0-3.25,0-.45,0-.67.6-.66q6.9,0,13.8,0c.52,0,.62.19.61.66,0,1.05,0,2.11,0,3.16,0,.56.17.69.7.68a16.49,16.49,0,0,1,3,.07,4.5,4.5,0,0,1,3.83,4.19c0,.23,0,.47,0,.7v53.08a4.56,4.56,0,0,1-3.34,4.78,7.46,7.46,0,0,1-2,.19q-39.37,0-78.75,0c-2.85,0-5-.79-5.91-3.66Z"/>
        <path class="cls-4" d="M750.07,4768.36c9.67,0,19.33,0,29,0,.77,0,1,.18,1,1q0,27.58,0,55.18c0,.74-.21.91-.93.91q-29.08,0-58.17,0c-.77,0-1-.18-1-1q0-27.54,0-55.1c0-.82.23-1,1-1C730.68,4768.37,740.37,4768.36,750.07,4768.36Z"/>
        <path class="cls-4" d="M717,4796.89q0,13.8,0,27.59c0,.73-.18.93-.91.91-2-.05-4,0-6,0-1.61,0-2.11-.49-2.12-2.08v-52.81c0-1.59.52-2.12,2.09-2.12,2,0,4,0,6.06,0,.71,0,.86.19.86.87Q717,4783.05,717,4796.89Z"/>
        <path class="cls-4" d="M783,4796.8c0-9.17,0-18.34,0-27.5,0-.78.18-1,1-1,2,.06,3.92,0,5.89,0,1.66,0,2.16.5,2.17,2.13q0,26.4,0,52.81c0,1.55-.5,2.06-2,2.07-2.05,0-4.1,0-6.15,0-.67,0-.82-.17-.82-.83Q783,4810.69,783,4796.8Z"/>
        <path class="cls-4" d="M750,4765.35c-4.19,0-8.38,0-12.56,0-.7,0-1-.1-.94-.88.06-2.4,0-4.8,0-7.21,0-1.74.64-2.41,2.35-2.41q11.16,0,22.31,0c1.72,0,2.36.67,2.36,2.41,0,2.43,0,4.86,0,7.29,0,.69-.2.8-.83.8C758.45,4765.34,754.21,4765.35,750,4765.35Z"/>
        <path class="cls-4" d="M720,4765.35c-1.23,0-2.46,0-3.68,0-.58,0-.86,0-.87-.77s.4-.72.91-.72q3.6,0,7.2,0c.55,0,1-.08.95.76s-.51.71-1,.71Z"/>
        <path class="cls-4" d="M780,4763.88c1.29,0,2.57.05,3.86,0,.67,0,.67.28.67.77s0,.74-.63.73q-3.9-.06-7.81,0c-.69,0-.55-.38-.57-.77s0-.76.62-.73C777.39,4763.92,778.68,4763.88,780,4763.88Z"/>
      </g>
    </g>
    <g id="_17" data-name="17">
      <g>
        <path class="cls-45" d="M755.23,4965.69q0,7.23,0,14.47a1.48,1.48,0,0,1-.32.87q-5.26,6.36-10.56,12.69l-10,12-10,12-9.52,11.42q-3,3.59-6,7.18l-.26.33h47.94v16.12H683.06v-.53q0-7,0-13.91a1.34,1.34,0,0,1,.29-.82q17.63-21.18,35.27-42.35l10.78-12.93c.08-.1.15-.21.27-.39h-43v-16.14Z"/>
        <path class="cls-45" d="M803.83,5026.74h-30.5v-11.23h49.15v.52c0,3.17,0,6.34,0,9.5a1.31,1.31,0,0,1-.27.77q-8.22,9.78-16.47,19.53l-13.5,16-3.36,4h34.19v11.86H770.22c0-.18,0-.35,0-.51,0-3.17,0-6.33,0-9.5a1.46,1.46,0,0,1,.33-.86q7.26-8.78,14.55-17.52l17-20.42Z"/>
        <path class="cls-45" d="M724.7,5117.56h31.06v9.89H708c0-.19,0-.36,0-.52,0-3,0-6,0-8.94a1.34,1.34,0,0,1,.28-.77l11.85-14.09,12.19-14.49,5.18-6.16.38-.48H710.52v-10.49h44.07c0,.17,0,.34,0,.52,0,3,0,6,0,8.94a1.33,1.33,0,0,1-.27.77l-17.21,20.79L725,5117.23Z"/>
      </g>
    </g>
  </g>
  <g id="Tekst_Tid" data-name="Tekst &amp; Tid">
    <g id="_1.1" data-name="1.1">
      <text class="cls-46" transform="translate(836.14 306.35)">The alarm rings</text>

      <text class="cls-46" transform="translate(565.75 302.58)">06:00</text>
    </g>
    <g id="_2.2" data-name="2.2">
      <text class="cls-46" transform="translate(836.14 509.35)">Ge<tspan class="cls-49" x="36.55" y="0">t</tspan><tspan x="46.8" y="0">ting ready</tspan></text>
      
      <text class="cls-46" transform="translate(565.75 505.58)">06:10</text>
    </g>
    <g id="_3.3" data-name="3.3">
      <text class="cls-46" transform="translate(826.14 705.35)"><tspan class="cls-50">W</tspan><tspan x="25.85" y="0">aking up the kid</tspan></text>
     
      <text class="cls-46" transform="translate(567.75 701.58)">06:30</text>
     
    </g>
    <g id="_4.4" data-name="4.4">
      <text class="cls-46" transform="translate(836.14 1085.35)">Kinderga<tspan class="cls-51" x="120.25" y="0">r</tspan><tspan x="131.59" y="0">tenten</tspan></text>
     
      <text class="cls-46" transform="translate(566.75 1085.58)">07:30</text>
    </g>
    <g id="_5.5" data-name="5.5">
      <text class="cls-46" transform="translate(826.14 1425.35)"><tspan class="cls-52">W</tspan><tspan x="25.88" y="0">ork</tspan></text>
     
      <text class="cls-46" transform="translate(567.75 1421.58)">08:00</text>
    </g>
    <g id="_6.6" data-name="6.6">
      <text class="cls-46" transform="translate(828.14 1907.35)">Picking up kid</text>
      
      <text class="cls-46" transform="translate(569.75 1903.58)">16:30</text>
    </g>
    <g id="_7.7" data-name="7.7">
      <text class="cls-46" transform="translate(823.14 2305.35)">D<tspan class="cls-53" x="19.58" y="0">r</tspan><tspan x="29.87" y="0">opping kid at spo</tspan><tspan class="cls-51" x="260.57" y="0">r</tspan><tspan x="271.9" y="0">t</tspan></text>
      
      <text class="cls-46" transform="translate(574.75 2305.58)">17:00</text>
    </g>
    <g id="_8.8" data-name="8.8">
      <text class="cls-46" transform="translate(839.14 2675.35)">G<tspan class="cls-53" x="20.43" y="0">r</tspan><tspan x="30.72" y="0">ocery Shoppinh</tspan></text>
      
      <text class="cls-46" transform="translate(580.75 2671.58)">17:20</text>
    </g>
    <g id="_9.9" data-name="9.9">
      <text class="cls-46" transform="translate(840.14 3079.35)">Picking kid up f<tspan class="cls-53" x="206.73" y="0">r</tspan><tspan x="217.02" y="0">om spo</tspan><tspan class="cls-51" x="317.08" y="0">r</tspan><tspan x="328.42" y="0">t</tspan></text>
    
      <text class="cls-46" transform="translate(581.75 3075.58)">18:00</text>
    </g>
    <g id="Layer_30" data-name="Layer 30">
      <text class="cls-46" transform="translate(839.14 3473.35)">Home</text>
      
      <text class="cls-46" transform="translate(580.75 3469.58)">18:15</text>
    </g>
    <g id="Layer_31" data-name="Layer 31">
      <text class="cls-46" transform="translate(840.14 3696.35)">Cooking dinner</text>
    
      <text class="cls-46" transform="translate(581.75 3692.58)">18:30</text>
    </g>
    <g id="Layer_32" data-name="Layer 32">
      <text class="cls-46" transform="translate(840.14 3883.35)">Shower kid</text>
      
      <text class="cls-46" transform="translate(581.75 3879.58)">19:00</text>
    </g>
    <g id="Layer_33" data-name="Layer 33">
      <text class="cls-46" transform="translate(842.14 4071.35)">Bedtimes<tspan class="cls-54" x="134.9" y="0">t</tspan><tspan x="144.52" y="0">ory for kid</tspan></text>
    
      <text class="cls-46" transform="translate(583.75 4067.58)">20:00</text>
    </g>
    <g id="Layer_34" data-name="Layer 34">
      <text class="cls-46" transform="translate(844.14 4271.35)">Laundry</text>

      <text class="cls-46" transform="translate(585.75 4267.58)">20:15</text>
    </g>
    <g id="Layer_35" data-name="Layer 35">
      <text class="cls-46" transform="translate(847.14 4468.35)">Ge<tspan class="cls-49" x="36.55" y="0">t</tspan><tspan x="46.8" y="0">ting ready for next day</tspan></text>

      <text class="cls-46" transform="translate(588.75 4464.58)">20:45</text>
    </g>
    <g id="Layer_36" data-name="Layer 36">
      <text class="cls-46" transform="translate(844.14 4670.35)">Prepping for next day lunch</text>
     
      <text class="cls-46" transform="translate(585.75 4666.58)">21:00</text>
    </g>
    <g id="Layer_37" data-name="Layer 37">
      <text class="cls-46" transform="translate(847.14 4876.35)">Finishing <tspan class="cls-54" x="129.65" y="0">t</tspan><tspan x="139.28" y="0">odays work</tspan></text>

      <text class="cls-46" transform="translate(588.75 4872.58)">21:20</text>
    </g>
    <g id="Layer_38" data-name="Layer 38">
      <text class="cls-46" transform="translate(844.14 5188.35)">Goodnight</text>

      <text class="cls-46" transform="translate(585.75 5184.58)">23:15</text>
    </g>
  </g>
</svg>
