<svg xmlns="http://www.w3.org/2000/svg" width="7577.3" height="632.53" viewBox="0 0 7577.3 632.53">
  <defs>
    <style>
      .cls-1 {
        fill: #0e8e15;
      }

      .cls-2 {
        fill: #3f3f3f;
      }

      .cls-3 {
        fill: none;
        stroke: red;
        stroke-linejoin: bevel;
      }

      .cls-4 {
        fill: #78bfff;
      }

      .cls-5 {
        fill: #d3dcd7;
      }

      .cls-6, .cls-9 {
        fill: #fff;
      }

      .cls-7 {
        fill: #00233c;
      }

      .cls-8 {
        fill: #ffb954;
      }

      .cls-9 {
        font-size: 9.57px;
        font-family: OpenSans-Bold, Open Sans;
        font-weight: 700;
      }

      .cls-10 {
        fill: #b41730;
      }
    </style>
  </defs>
  <title>train-2</title>
  <g id="road">
    <path id="grass" class="cls-1" d="M-40.41,226V635.25H7592.22V226ZM7439.45,466.22c19.4,13,87.3,23.33,97,36.95C7526.75,489.55,7458.85,479.18,7439.45,466.22Z"/>
    <g>
      <polygon class="cls-2" points="7559.93 336.2 -61.08 336.2 -28.79 261.61 7592.22 261.61 7559.93 336.2"/>
      <polygon points="4765.1 336.2 4752.02 336.2 4784.31 261.61 4797.38 261.61 4765.1 336.2"/>
      <polygon points="4720.58 336.2 4707.5 336.2 4739.79 261.61 4752.86 261.61 4720.58 336.2"/>
      <polygon points="4804.16 336.2 4791.09 336.2 4823.38 261.61 4836.45 261.61 4804.16 336.2"/>
      <polygon points="4847.85 336.2 4834.78 336.2 4867.06 261.61 4880.14 261.61 4847.85 336.2"/>
      <polygon points="6775.02 336.2 6761.94 336.2 6794.23 261.61 6807.3 261.61 6775.02 336.2"/>
      <polygon points="6730.5 336.2 6717.42 336.2 6749.71 261.61 6762.78 261.61 6730.5 336.2"/>
      <polygon points="6814.09 336.2 6801.01 336.2 6833.3 261.61 6846.37 261.61 6814.09 336.2"/>
      <polygon points="6857.77 336.2 6844.7 336.2 6876.98 261.61 6890.06 261.61 6857.77 336.2"/>
      <polygon points="6942.67 336.2 6929.6 336.2 6961.88 261.61 6974.95 261.61 6942.67 336.2"/>
      <polygon points="6898.15 336.2 6885.08 336.2 6917.36 261.61 6930.44 261.61 6898.15 336.2"/>
      <polygon points="6981.74 336.2 6968.66 336.2 7000.95 261.61 7014.02 261.61 6981.74 336.2"/>
      <polygon points="7025.42 336.2 7012.35 336.2 7044.64 261.61 7057.71 261.61 7025.42 336.2"/>
      <polygon points="7110.62 336.2 7097.55 336.2 7129.84 261.61 7142.91 261.61 7110.62 336.2"/>
      <polygon points="7066.1 336.2 7053.03 336.2 7085.32 261.61 7098.39 261.61 7066.1 336.2"/>
      <polygon points="7149.69 336.2 7136.62 336.2 7168.91 261.61 7181.98 261.61 7149.69 336.2"/>
      <polygon points="7193.38 336.2 7180.3 336.2 7212.59 261.61 7225.66 261.61 7193.38 336.2"/>
      <polygon points="7277.87 336.2 7264.8 336.2 7297.09 261.61 7310.16 261.61 7277.87 336.2"/>
      <polygon points="7233.35 336.2 7220.28 336.2 7252.57 261.61 7265.64 261.61 7233.35 336.2"/>
      <polygon points="7316.94 336.2 7303.87 336.2 7336.16 261.61 7349.23 261.61 7316.94 336.2"/>
      <polygon points="7360.63 336.2 7347.55 336.2 7379.84 261.61 7392.91 261.61 7360.63 336.2"/>
      <polygon points="7443.79 336.2 7430.72 336.2 7463.01 261.61 7476.08 261.61 7443.79 336.2"/>
      <polygon points="7399.27 336.2 7386.2 336.2 7418.49 261.61 7431.56 261.61 7399.27 336.2"/>
      <polygon points="7482.86 336.2 7469.79 336.2 7502.08 261.61 7515.15 261.61 7482.86 336.2"/>
      <polygon points="7526.55 336.2 7513.47 336.2 7545.76 261.61 7558.83 261.61 7526.55 336.2"/>
      <polygon points="104.33 336.2 91.26 336.2 123.55 261.61 136.62 261.61 104.33 336.2"/>
      <polygon points="59.81 336.2 46.74 336.2 79.03 261.61 92.1 261.61 59.81 336.2"/>
      <polygon points="267.56 336.2 254.49 336.2 286.78 261.61 299.85 261.61 267.56 336.2"/>
      <polygon points="223.04 336.2 209.97 336.2 242.26 261.61 255.33 261.61 223.04 336.2"/>
      <polygon points="306.63 336.2 293.56 336.2 325.85 261.61 338.92 261.61 306.63 336.2"/>
      <polygon points="350.31 336.2 337.24 336.2 369.53 261.61 382.6 261.61 350.31 336.2"/>
      <polygon points="436.05 336.2 422.97 336.2 455.26 261.61 468.33 261.61 436.05 336.2"/>
      <polygon points="391.53 336.2 378.45 336.2 410.74 261.61 423.81 261.61 391.53 336.2"/>
      <polygon points="475.12 336.2 462.04 336.2 494.33 261.61 507.4 261.61 475.12 336.2"/>
      <polygon points="518.8 336.2 505.73 336.2 538.01 261.61 551.09 261.61 518.8 336.2"/>
      <polygon points="605.53 336.2 592.46 336.2 624.74 261.61 637.82 261.61 605.53 336.2"/>
      <polygon points="561.01 336.2 547.94 336.2 580.22 261.61 593.3 261.61 561.01 336.2"/>
      <polygon points="644.6 336.2 631.52 336.2 663.81 261.61 676.88 261.61 644.6 336.2"/>
      <polygon points="688.28 336.2 675.21 336.2 707.5 261.61 720.57 261.61 688.28 336.2"/>
      <polygon points="143.4 336.2 130.33 336.2 162.62 261.61 175.69 261.61 143.4 336.2"/>
      <polygon points="187.08 336.2 174.01 336.2 206.3 261.61 219.37 261.61 187.08 336.2"/>
      <polygon points="771.38 336.2 758.31 336.2 790.6 261.61 803.67 261.61 771.38 336.2"/>
      <polygon points="726.87 336.2 713.79 336.2 746.08 261.61 759.15 261.61 726.87 336.2"/>
      <polygon points="810.45 336.2 797.38 336.2 829.67 261.61 842.74 261.61 810.45 336.2"/>
      <polygon points="854.14 336.2 841.07 336.2 873.35 261.61 886.42 261.61 854.14 336.2"/>
      <polygon points="942.63 336.2 929.56 336.2 961.84 261.61 974.92 261.61 942.63 336.2"/>
      <polygon points="898.11 336.2 885.04 336.2 917.33 261.61 930.4 261.61 898.11 336.2"/>
      <polygon points="981.7 336.2 968.63 336.2 1000.91 261.61 1013.99 261.61 981.7 336.2"/>
      <polygon points="1025.38 336.2 1012.31 336.2 1044.6 261.61 1057.67 261.61 1025.38 336.2"/>
      <polygon points="1109.37 336.2 1096.3 336.2 1128.59 261.61 1141.66 261.61 1109.37 336.2"/>
      <polygon points="1064.85 336.2 1051.78 336.2 1084.07 261.61 1097.14 261.61 1064.85 336.2"/>
      <polygon points="1148.44 336.2 1135.37 336.2 1167.65 261.61 1180.73 261.61 1148.44 336.2"/>
      <polygon points="1192.12 336.2 1179.05 336.2 1211.34 261.61 1224.41 261.61 1192.12 336.2"/>
      <polygon points="1277.38 336.2 1264.31 336.2 1296.6 261.61 1309.67 261.61 1277.38 336.2"/>
      <polygon points="1232.86 336.2 1219.79 336.2 1252.08 261.61 1265.15 261.61 1232.86 336.2"/>
      <polygon points="1316.45 336.2 1303.38 336.2 1335.67 261.61 1348.74 261.61 1316.45 336.2"/>
      <polygon points="1360.13 336.2 1347.06 336.2 1379.35 261.61 1392.42 261.61 1360.13 336.2"/>
      <polygon points="1439.89 336.2 1426.82 336.2 1459.11 261.61 1472.18 261.61 1439.89 336.2"/>
      <polygon points="1395.38 336.2 1382.3 336.2 1414.59 261.61 1427.66 261.61 1395.38 336.2"/>
      <polygon points="1478.96 336.2 1465.89 336.2 1498.18 261.61 1511.25 261.61 1478.96 336.2"/>
      <polygon points="1522.65 336.2 1509.58 336.2 1541.86 261.61 1554.93 261.61 1522.65 336.2"/>
      <polygon points="1603.15 336.2 1590.08 336.2 1622.37 261.61 1635.44 261.61 1603.15 336.2"/>
      <polygon points="1558.63 336.2 1545.56 336.2 1577.85 261.61 1590.92 261.61 1558.63 336.2"/>
      <polygon points="1642.22 336.2 1629.15 336.2 1661.44 261.61 1674.51 261.61 1642.22 336.2"/>
      <polygon points="1685.9 336.2 1672.83 336.2 1705.12 261.61 1718.19 261.61 1685.9 336.2"/>
      <polygon points="1774.42 336.2 1761.35 336.2 1793.64 261.61 1806.71 261.61 1774.42 336.2"/>
      <polygon points="1729.91 336.2 1716.83 336.2 1749.12 261.61 1762.19 261.61 1729.91 336.2"/>
      <polygon points="1813.49 336.2 1800.42 336.2 1832.71 261.61 1845.78 261.61 1813.49 336.2"/>
      <polygon points="1857.18 336.2 1844.11 336.2 1876.39 261.61 1889.47 261.61 1857.18 336.2"/>
      <polygon points="1935.82 336.2 1922.75 336.2 1955.04 261.61 1968.11 261.61 1935.82 336.2"/>
      <polygon points="1891.3 336.2 1878.23 336.2 1910.52 261.61 1923.59 261.61 1891.3 336.2"/>
      <polygon points="1974.89 336.2 1961.82 336.2 1994.11 261.61 2007.18 261.61 1974.89 336.2"/>
      <polygon points="2018.57 336.2 2005.5 336.2 2037.79 261.61 2050.86 261.61 2018.57 336.2"/>
      <polygon points="2095.91 336.2 2082.84 336.2 2115.12 261.61 2128.2 261.61 2095.91 336.2"/>
      <polygon points="2051.39 336.2 2038.32 336.2 2070.61 261.61 2083.68 261.61 2051.39 336.2"/>
      <polygon points="2134.98 336.2 2121.91 336.2 2154.19 261.61 2167.26 261.61 2134.98 336.2"/>
      <polygon points="2178.66 336.2 2165.59 336.2 2197.88 261.61 2210.95 261.61 2178.66 336.2"/>
      <polygon points="2262.56 336.2 2249.49 336.2 2281.77 261.61 2294.85 261.61 2262.56 336.2"/>
      <polygon points="2218.04 336.2 2204.97 336.2 2237.26 261.61 2250.33 261.61 2218.04 336.2"/>
      <polygon points="2301.63 336.2 2288.55 336.2 2320.84 261.61 2333.91 261.61 2301.63 336.2"/>
      <polygon points="2345.31 336.2 2332.24 336.2 2364.53 261.61 2377.6 261.61 2345.31 336.2"/>
      <polygon points="2432.01 336.2 2418.94 336.2 2451.23 261.61 2464.3 261.61 2432.01 336.2"/>
      <polygon points="2387.49 336.2 2374.42 336.2 2406.71 261.61 2419.78 261.61 2387.49 336.2"/>
      <polygon points="2471.08 336.2 2458.01 336.2 2490.3 261.61 2503.37 261.61 2471.08 336.2"/>
      <polygon points="2514.76 336.2 2501.69 336.2 2533.98 261.61 2547.05 261.61 2514.76 336.2"/>
      <polygon points="2593.48 336.2 2580.4 336.2 2612.69 261.61 2625.76 261.61 2593.48 336.2"/>
      <polygon points="2548.96 336.2 2535.89 336.2 2568.17 261.61 2581.24 261.61 2548.96 336.2"/>
      <polygon points="2632.55 336.2 2619.47 336.2 2651.76 261.61 2664.83 261.61 2632.55 336.2"/>
      <polygon points="2676.23 336.2 2663.16 336.2 2695.44 261.61 2708.52 261.61 2676.23 336.2"/>
      <polygon points="2763.6 336.2 2750.53 336.2 2782.82 261.61 2795.89 261.61 2763.6 336.2"/>
      <polygon points="2719.08 336.2 2706.01 336.2 2738.3 261.61 2751.37 261.61 2719.08 336.2"/>
      <polygon points="2802.67 336.2 2789.6 336.2 2821.88 261.61 2834.96 261.61 2802.67 336.2"/>
      <polygon points="2846.35 336.2 2833.28 336.2 2865.57 261.61 2878.64 261.61 2846.35 336.2"/>
      <polygon points="2932.39 336.2 2919.31 336.2 2951.6 261.61 2964.67 261.61 2932.39 336.2"/>
      <polygon points="2887.87 336.2 2874.79 336.2 2907.08 261.61 2920.15 261.61 2887.87 336.2"/>
      <polygon points="2971.45 336.2 2958.38 336.2 2990.67 261.61 3003.74 261.61 2971.45 336.2"/>
      <polygon points="3015.14 336.2 3002.07 336.2 3034.35 261.61 3047.43 261.61 3015.14 336.2"/>
      <polygon points="3098.47 336.2 3085.4 336.2 3117.69 261.61 3130.76 261.61 3098.47 336.2"/>
      <polygon points="3053.95 336.2 3040.88 336.2 3073.17 261.61 3086.24 261.61 3053.95 336.2"/>
      <polygon points="3137.54 336.2 3124.47 336.2 3156.76 261.61 3169.83 261.61 3137.54 336.2"/>
      <polygon points="3181.23 336.2 3168.16 336.2 3200.44 261.61 3213.51 261.61 3181.23 336.2"/>
      <polygon points="3267.15 336.2 3254.08 336.2 3286.37 261.61 3299.44 261.61 3267.15 336.2"/>
      <polygon points="3222.63 336.2 3209.56 336.2 3241.85 261.61 3254.92 261.61 3222.63 336.2"/>
      <polygon points="3306.22 336.2 3293.15 336.2 3325.44 261.61 3338.51 261.61 3306.22 336.2"/>
      <polygon points="3349.91 336.2 3336.83 336.2 3369.12 261.61 3382.19 261.61 3349.91 336.2"/>
      <polygon points="3428.76 335.91 3415.69 335.91 3447.98 261.32 3461.05 261.32 3428.76 335.91"/>
      <polygon points="3384.24 335.91 3371.17 335.91 3403.46 261.32 3416.53 261.32 3384.24 335.91"/>
      <polygon points="3467.83 335.91 3454.76 335.91 3487.05 261.32 3500.12 261.32 3467.83 335.91"/>
      <polygon points="3511.52 335.91 3498.45 335.91 3530.73 261.32 3543.8 261.32 3511.52 335.91"/>
      <polygon points="3593.95 336.2 3580.87 336.2 3613.16 261.61 3626.23 261.61 3593.95 336.2"/>
      <polygon points="3549.43 336.2 3536.36 336.2 3568.64 261.61 3581.72 261.61 3549.43 336.2"/>
      <polygon points="3633.02 336.2 3619.94 336.2 3652.23 261.61 3665.3 261.61 3633.02 336.2"/>
      <polygon points="3676.7 336.2 3663.63 336.2 3695.91 261.61 3708.99 261.61 3676.7 336.2"/>
      <polygon points="3758.32 336.2 3745.24 336.2 3777.53 261.61 3790.61 261.61 3758.32 336.2"/>
      <polygon points="3713.8 336.2 3700.73 336.2 3733.01 261.61 3746.09 261.61 3713.8 336.2"/>
      <polygon points="3797.39 336.2 3784.31 336.2 3816.6 261.61 3829.67 261.61 3797.39 336.2"/>
      <polygon points="3841.07 336.2 3828 336.2 3860.29 261.61 3873.36 261.61 3841.07 336.2"/>
      <polygon points="3925.14 336.2 3912.07 336.2 3944.36 261.61 3957.43 261.61 3925.14 336.2"/>
      <polygon points="3880.62 336.2 3867.55 336.2 3899.84 261.61 3912.91 261.61 3880.62 336.2"/>
      <polygon points="3964.21 336.2 3951.14 336.2 3983.43 261.61 3996.5 261.61 3964.21 336.2"/>
      <polygon points="4007.89 336.2 3994.82 336.2 4027.11 261.61 4040.18 261.61 4007.89 336.2"/>
      <polygon points="4091.96 336.2 4078.89 336.2 4111.18 261.61 4124.25 261.61 4091.96 336.2"/>
      <polygon points="4047.45 336.2 4034.37 336.2 4066.66 261.61 4079.73 261.61 4047.45 336.2"/>
      <polygon points="4131.03 336.2 4117.96 336.2 4150.25 261.61 4163.32 261.61 4131.03 336.2"/>
      <polygon points="4174.72 336.2 4161.65 336.2 4193.93 261.61 4207 261.61 4174.72 336.2"/>
      <polygon points="4261.82 336.2 4248.75 336.2 4281.03 261.61 4294.11 261.61 4261.82 336.2"/>
      <polygon points="4217.3 336.2 4204.23 336.2 4236.52 261.61 4249.59 261.61 4217.3 336.2"/>
      <polygon points="4300.89 336.2 4287.82 336.2 4320.1 261.61 4333.18 261.61 4300.89 336.2"/>
      <polygon points="4344.57 336.2 4331.5 336.2 4363.79 261.61 4376.86 261.61 4344.57 336.2"/>
      <polygon points="4427.72 336.2 4414.65 336.2 4446.94 261.61 4460.01 261.61 4427.72 336.2"/>
      <polygon points="4383.2 336.2 4370.13 336.2 4402.42 261.61 4415.49 261.61 4383.2 336.2"/>
      <polygon points="4466.79 336.2 4453.72 336.2 4486.01 261.61 4499.08 261.61 4466.79 336.2"/>
      <polygon points="4510.48 336.2 4497.4 336.2 4529.69 261.61 4542.77 261.61 4510.48 336.2"/>
      <polygon points="4596.1 336.2 4583.03 336.2 4615.31 261.61 4628.39 261.61 4596.1 336.2"/>
      <polygon points="4551.58 336.2 4538.51 336.2 4570.8 261.61 4583.87 261.61 4551.58 336.2"/>
      <polygon points="4635.17 336.2 4622.1 336.2 4654.38 261.61 4667.46 261.61 4635.17 336.2"/>
      <polygon points="4678.85 336.2 4665.78 336.2 4698.07 261.61 4711.14 261.61 4678.85 336.2"/>
      <polygon points="4931.93 336.2 4918.86 336.2 4951.14 261.61 4964.22 261.61 4931.93 336.2"/>
      <polygon points="4887.41 336.2 4874.34 336.2 4906.62 261.61 4919.7 261.61 4887.41 336.2"/>
      <polygon points="4971 336.2 4957.93 336.2 4990.21 261.61 5003.28 261.61 4971 336.2"/>
      <polygon points="5014.68 336.2 5001.61 336.2 5033.9 261.61 5046.97 261.61 5014.68 336.2"/>
      <polygon points="5100.53 336.2 5087.46 336.2 5119.75 261.61 5132.82 261.61 5100.53 336.2"/>
      <polygon points="5056.01 336.2 5042.94 336.2 5075.23 261.61 5088.3 261.61 5056.01 336.2"/>
      <polygon points="5139.6 336.2 5126.53 336.2 5158.82 261.61 5171.89 261.61 5139.6 336.2"/>
      <polygon points="5183.28 336.2 5170.21 336.2 5202.5 261.61 5215.57 261.61 5183.28 336.2"/>
      <polygon points="5269.93 336.2 5256.86 336.2 5289.15 261.61 5302.22 261.61 5269.93 336.2"/>
      <polygon points="5225.41 336.2 5212.34 336.2 5244.63 261.61 5257.7 261.61 5225.41 336.2"/>
      <polygon points="5309 336.2 5295.93 336.2 5328.22 261.61 5341.29 261.61 5309 336.2"/>
      <polygon points="5352.68 336.2 5339.61 336.2 5371.9 261.61 5384.97 261.61 5352.68 336.2"/>
      <polygon points="5430.68 336.2 5417.61 336.2 5449.9 261.61 5462.97 261.61 5430.68 336.2"/>
      <polygon points="5386.16 336.2 5373.09 336.2 5405.38 261.61 5418.45 261.61 5386.16 336.2"/>
      <polygon points="5469.75 336.2 5456.68 336.2 5488.97 261.61 5502.04 261.61 5469.75 336.2"/>
      <polygon points="5513.43 336.2 5500.36 336.2 5532.65 261.61 5545.72 261.61 5513.43 336.2"/>
      <polygon points="5599.9 336.2 5586.83 336.2 5619.12 261.61 5632.19 261.61 5599.9 336.2"/>
      <polygon points="5555.38 336.2 5542.31 336.2 5574.6 261.61 5587.67 261.61 5555.38 336.2"/>
      <polygon points="5638.97 336.2 5625.9 336.2 5658.19 261.61 5671.26 261.61 5638.97 336.2"/>
      <polygon points="5682.66 336.2 5669.58 336.2 5701.87 261.61 5714.94 261.61 5682.66 336.2"/>
      <polygon points="5762.1 336.2 5749.03 336.2 5781.32 261.61 5794.39 261.61 5762.1 336.2"/>
      <polygon points="5717.59 336.2 5704.51 336.2 5736.8 261.61 5749.87 261.61 5717.59 336.2"/>
      <polygon points="5801.18 336.2 5788.1 336.2 5820.39 261.61 5833.46 261.61 5801.18 336.2"/>
      <polygon points="5844.86 336.2 5831.79 336.2 5864.07 261.61 5877.15 261.61 5844.86 336.2"/>
      <polygon points="5930.34 336.2 5917.27 336.2 5949.56 261.61 5962.63 261.61 5930.34 336.2"/>
      <polygon points="5885.82 336.2 5872.75 336.2 5905.04 261.61 5918.11 261.61 5885.82 336.2"/>
      <polygon points="5969.41 336.2 5956.34 336.2 5988.63 261.61 6001.7 261.61 5969.41 336.2"/>
      <polygon points="6013.1 336.2 6000.02 336.2 6032.31 261.61 6045.38 261.61 6013.1 336.2"/>
      <polygon points="6097.45 336.2 6084.38 336.2 6116.67 261.61 6129.74 261.61 6097.45 336.2"/>
      <polygon points="6052.93 336.2 6039.86 336.2 6072.15 261.61 6085.22 261.61 6052.93 336.2"/>
      <polygon points="6136.52 336.2 6123.45 336.2 6155.74 261.61 6168.81 261.61 6136.52 336.2"/>
      <polygon points="6180.2 336.2 6167.13 336.2 6199.42 261.61 6212.49 261.61 6180.2 336.2"/>
      <polygon points="6268.23 336.2 6255.16 336.2 6287.45 261.61 6300.52 261.61 6268.23 336.2"/>
      <polygon points="6223.71 336.2 6210.64 336.2 6242.93 261.61 6256 261.61 6223.71 336.2"/>
      <polygon points="6307.3 336.2 6294.23 336.2 6326.52 261.61 6339.59 261.61 6307.3 336.2"/>
      <polygon points="6350.99 336.2 6337.91 336.2 6370.2 261.61 6383.27 261.61 6350.99 336.2"/>
      <polygon points="6438.76 336.2 6425.69 336.2 6457.98 261.61 6471.05 261.61 6438.76 336.2"/>
      <polygon points="6394.24 336.2 6381.17 336.2 6413.46 261.61 6426.53 261.61 6394.24 336.2"/>
      <polygon points="6477.83 336.2 6464.76 336.2 6497.05 261.61 6510.12 261.61 6477.83 336.2"/>
      <polygon points="6521.51 336.2 6508.44 336.2 6540.73 261.61 6553.8 261.61 6521.51 336.2"/>
      <polygon points="6603.74 336.2 6590.66 336.2 6622.95 261.61 6636.02 261.61 6603.74 336.2"/>
      <polygon points="6559.22 336.2 6546.14 336.2 6578.43 261.61 6591.5 261.61 6559.22 336.2"/>
      <polygon points="6642.81 336.2 6629.73 336.2 6662.02 261.61 6675.09 261.61 6642.81 336.2"/>
      <polygon points="6686.49 336.2 6673.42 336.2 6705.7 261.61 6718.78 261.61 6686.49 336.2"/>
    </g>
    <line id="curve" class="cls-3" x1="7632.73" y1="298.91" x2="-54.5" y2="298.91"/>
    <rect class="cls-4" x="-40.41" y="-10.14" width="7632.63" height="241.61"/>
    <g id="cloud5">
      <path class="cls-5" d="M102.57,165.38a2.15,2.15,0,0,1-1.26-.43.82.82,0,0,1-.55.22,1.13,1.13,0,0,1-1-.84,2.22,2.22,0,0,1-1.57.7,2.88,2.88,0,0,1-2.48-2.11h0c-1.58,0-2.86-1.88-2.86-4.18s1.28-4.17,2.86-4.17a2,2,0,0,1,.79.17c.39-1.68,1.48-2.83,2.7-2.83a2.69,2.69,0,0,1,2.28,1.67h0c1.57,0,2.85,1.88,2.85,4.18V158a5.14,5.14,0,0,1,1,3.18C105.42,163.51,104.14,165.38,102.57,165.38Zm-1.28-1,.08.06a1.93,1.93,0,0,0,1.2.44c1.39,0,2.53-1.66,2.53-3.7a4.47,4.47,0,0,0-1-2.89l-.07-.08v-.13c0-.13,0-.25,0-.36,0-2.05-1.13-3.71-2.53-3.71h-.21l0-.11a2.44,2.44,0,0,0-2.07-1.57c-1.13,0-2.14,1.12-2.44,2.72l0,.25-.17-.09a1.85,1.85,0,0,0-.84-.22c-1.4,0-2.54,1.66-2.54,3.7s1.14,3.71,2.54,3.71h.2l0,.13a2.6,2.6,0,0,0,2.25,2,2.1,2.1,0,0,0,1.55-.77l.18-.21.07.32c.09.47.39.8.73.8a.59.59,0,0,0,.44-.21Z"/>
    </g>
    <g id="cloud5-2" data-name="cloud5">
      <path class="cls-5" d="M96.91,135.11a3.26,3.26,0,0,1-1.93-.66,1.27,1.27,0,0,1-.83.34,1.7,1.7,0,0,1-1.46-1.28,3.44,3.44,0,0,1-2.42,1.06c-1.58,0-3-1.23-3.79-3.23h0c-2.4,0-4.36-2.87-4.36-6.39s2-6.38,4.36-6.38a3.11,3.11,0,0,1,1.22.26c.59-2.57,2.26-4.34,4.13-4.34a4.13,4.13,0,0,1,3.49,2.56h.08c2.4,0,4.36,2.87,4.36,6.39,0,.14,0,.28,0,.43a7.85,7.85,0,0,1,1.55,4.87C101.28,132.25,99.32,135.11,96.91,135.11Zm-2-1.49.14.1a3,3,0,0,0,1.82.67c2.14,0,3.88-2.54,3.88-5.66a6.87,6.87,0,0,0-1.47-4.43l-.1-.12V124c0-.19,0-.37,0-.55,0-3.13-1.74-5.67-3.87-5.67h-.11l-.21,0-.08-.17a3.73,3.73,0,0,0-3.17-2.41c-1.74,0-3.27,1.71-3.73,4.17l-.07.37-.25-.13a2.82,2.82,0,0,0-1.3-.33c-2.13,0-3.87,2.54-3.87,5.66s1.74,5.67,3.87,5.67h.31l.07.2c.67,1.88,2,3,3.43,3a3.16,3.16,0,0,0,2.37-1.18l.29-.32.1.5c.15.72.61,1.22,1.12,1.22a1,1,0,0,0,.68-.32Z"/>
    </g>
    <g id="cloud5-3" data-name="cloud5">
      <path class="cls-5" d="M107.46,148.17a1.51,1.51,0,0,1-.87-.29.63.63,0,0,1-.38.15.77.77,0,0,1-.66-.58,1.57,1.57,0,0,1-1.09.48,2,2,0,0,1-1.72-1.46h0c-1.09,0-2-1.3-2-2.89s.88-2.89,2-2.89a1.33,1.33,0,0,1,.55.12c.27-1.17,1-2,1.87-2a1.87,1.87,0,0,1,1.58,1.16h0c1.09,0,2,1.29,2,2.89v.19a3.58,3.58,0,0,1,.7,2.21C109.44,146.88,108.55,148.17,107.46,148.17Zm-.89-.67.07.05a1.36,1.36,0,0,0,.82.3c1,0,1.75-1.15,1.75-2.56a3.11,3.11,0,0,0-.66-2l0-.05v-.09a2.18,2.18,0,0,0,0-.25c0-1.42-.79-2.57-1.75-2.57h-.15l0-.08a1.7,1.7,0,0,0-1.44-1.09c-.78,0-1.48.78-1.69,1.89l0,.17-.11-.06a1.26,1.26,0,0,0-.59-.15c-1,0-1.75,1.15-1.75,2.56s.79,2.56,1.75,2.56h.14l0,.09a1.81,1.81,0,0,0,1.56,1.39,1.44,1.44,0,0,0,1.07-.54l.13-.15,0,.23c.07.32.28.55.51.55a.44.44,0,0,0,.31-.14Z"/>
    </g>
    <g id="cloud5-4" data-name="cloud5">
      <path class="cls-5" d="M83.76,151.62a1,1,0,0,1-.61-.22.4.4,0,0,1-.27.11.55.55,0,0,1-.46-.42,1.1,1.1,0,0,1-.77.35c-.51,0-1-.41-1.21-1.08h0c-.76,0-1.39-1-1.39-2.13s.63-2.14,1.39-2.14a.92.92,0,0,1,.39.09c.19-.86.72-1.45,1.32-1.45a1.33,1.33,0,0,1,1.11.85h0c.77,0,1.39,1,1.39,2.13v.15a2.74,2.74,0,0,1,.49,1.63C85.15,150.66,84.53,151.62,83.76,151.62Zm-.62-.5,0,0a1,1,0,0,0,.58.22c.68,0,1.23-.85,1.23-1.89a2.4,2.4,0,0,0-.46-1.48l0,0v-.26c0-1-.55-1.89-1.23-1.89h-.1l0-.06a1.21,1.21,0,0,0-1-.8c-.56,0-1,.57-1.19,1.39l0,.13-.08-.05a.94.94,0,0,0-.42-.11c-.68,0-1.23.85-1.23,1.9s.55,1.89,1.23,1.89h.1l0,.07c.22.63.64,1,1.1,1a1,1,0,0,0,.75-.4l.09-.1,0,.16c0,.24.2.41.36.41a.3.3,0,0,0,.22-.1Z"/>
    </g>
    <g id="cloud3">
      <path class="cls-6" d="M3342.49,108.62a26.58,26.58,0,0,1-11.89-2.36,10.11,10.11,0,0,1-5.07,1.57,10.26,10.26,0,0,1-9.13-5,26.68,26.68,0,0,1-38.29-7.8h-.1a26.72,26.72,0,1,1-1.8-53.4,26.39,26.39,0,0,1,7.48.82,26.68,26.68,0,0,1,46.38-9l.46,0a26.76,26.76,0,0,1,27.61,25.81c0,.59,0,1.19,0,1.81a26.71,26.71,0,0,1-15.65,47.66Zm-12.21-5.85.84.41a23.69,23.69,0,0,0,24.58-40.29l-.66-.49.05-.82c0-.82.06-1.58,0-2.33a23.74,23.74,0,0,0-24.5-22.9l-.67,0-1.27.11-.5-.66a23.68,23.68,0,0,0-42,8.77l-.37,1.58-1.55-.49A23.7,23.7,0,1,0,3277.91,92c.16,0,.32,0,.48,0l1.38-.11.47.83A23.66,23.66,0,0,0,3316,99.27l1.69-1.4.7,2.08a7.15,7.15,0,0,0,11.14,3.39Z"/>
    </g>
    <g id="cloud10">
      <path class="cls-6" d="M4155.36,81.73a8.21,8.21,0,0,1-3.64-.85,3.12,3.12,0,0,1-1.58.43,3.17,3.17,0,0,1-2.76-1.65,8.23,8.23,0,0,1-11.71-2.8h0a8.24,8.24,0,0,1,0-16.48,8.14,8.14,0,0,1,2.29.34,8.22,8.22,0,0,1,14.38-2.3h.15a8.25,8.25,0,0,1,8.23,8.24,5.33,5.33,0,0,1,0,.56,8.23,8.23,0,0,1-5.31,14.52Zm-3.7-1.93.25.14a7.41,7.41,0,0,0,3.45.86,7.3,7.3,0,0,0,4.54-13l-.2-.16,0-.25q0-.37,0-.72a7.31,7.31,0,0,0-7.3-7.31h-.21l-.39,0-.15-.21a7.3,7.3,0,0,0-13,2.27l-.13.48-.47-.17a7.31,7.31,0,1,0-2.44,14.19h.14l.43,0,.14.26a7.28,7.28,0,0,0,10.95,2.41l.53-.41.2.65a2.2,2.2,0,0,0,3.39,1.16Z"/>
    </g>
    <g id="cloud9">
      <path class="cls-6" d="M5011.89,205.82a39.67,39.67,0,0,1-18,.55,15,15,0,0,1-6.82,3.95,15.21,15.21,0,0,1-14.9-4.27,39.65,39.65,0,0,1-58,1.47l-.14,0a39.7,39.7,0,1,1-9.3-78A39.65,39.65,0,0,1,4968.84,101l.66-.19A39.75,39.75,0,0,1,5018.07,129c.22.85.42,1.72.6,2.63a39.68,39.68,0,0,1-6.78,74.22Zm-19.63-4.41,1.36.32a35.2,35.2,0,0,0,22.15-66.53l-1.11-.49-.2-1.2a33.39,33.39,0,0,0-.72-3.4,35.27,35.27,0,0,0-43.1-25c-.32.09-.64.2-1,.31l-1.81.58-.94-.8a35.18,35.18,0,0,0-57.86,26.69l0,2.41-2.4-.19a35.21,35.21,0,1,0,6.18,69.12l.67-.22,2-.61,1,1a35.17,35.17,0,0,0,54-2.34l2-2.59,1.7,2.77a10.63,10.63,0,0,0,17.26,1.2Z"/>
    </g>
    <g id="cloud8">
      <path class="cls-6" d="M4450.41,165.59a26.68,26.68,0,0,1-12,1.74,10.15,10.15,0,0,1-14.55,1.45,26.68,26.68,0,0,1-38.7,5.41l-.09,0a26.72,26.72,0,0,1-19.51-49.75,26.37,26.37,0,0,1,7.33-1.71,26.68,26.68,0,0,1,40.71-24,3.25,3.25,0,0,1,.43-.18,26.75,26.75,0,0,1,34.63,15.12c.22.56.41,1.12.6,1.71a26.7,26.7,0,0,1,1.14,50.15ZM4437,164.14l.93.11a23.69,23.69,0,0,0,9.73-46.18l-.78-.24-.22-.79c-.23-.79-.47-1.51-.75-2.21a23.73,23.73,0,0,0-30.72-13.42c-.21.08-.42.18-.62.27l-1.16.53-.69-.46A23.67,23.67,0,0,0,4376,124l.17,1.61-1.62.05a23.7,23.7,0,1,0,9.41,45.75l.43-.2,1.27-.56.72.63a23.68,23.68,0,0,0,35.93-5.69l1.13-1.89,1.35,1.73a7.21,7.21,0,0,0,8.25,2.24,7.08,7.08,0,0,0,3.38-2.76Z"/>
    </g>
    <g id="cloud7">
      <path class="cls-6" d="M4729.51,66.56a26.69,26.69,0,0,1-11.8-2.76,10.06,10.06,0,0,1-5.12,1.39,10.24,10.24,0,0,1-8.95-5.35,26.69,26.69,0,0,1-38-9.09h-.1a26.72,26.72,0,1,1,0-53.43A26.38,26.38,0,0,1,4673-1.6a26.69,26.69,0,0,1,46.66-7.47h.46a26.75,26.75,0,0,1,26.72,26.72c0,.6,0,1.2-.07,1.82a26.7,26.7,0,0,1-17.25,47.1Zm-12-6.27.83.45a23.7,23.7,0,0,0,25.92-39.45l-.64-.51.08-.81c.08-.82.11-1.58.11-2.33a23.73,23.73,0,0,0-23.7-23.71c-.23,0-.46,0-.68,0l-1.27.07-.48-.68A23.68,23.68,0,0,0,4675.43.7L4675,2.26l-1.53-.54a23.41,23.41,0,0,0-7.93-1.39,23.71,23.71,0,1,0,0,47.41l.47,0,1.39-.06.44.85a23.67,23.67,0,0,0,35.53,7.81L4705.1,55l.63,2.1a7.23,7.23,0,0,0,6.86,5.1,7.07,7.07,0,0,0,4.16-1.34Z"/>
    </g>
    <g id="cloud2">
      <path class="cls-6" d="M3621.08,193.05a18,18,0,0,1-7.93-1.85,6.78,6.78,0,0,1-3.44.93,6.89,6.89,0,0,1-6-3.6,17.7,17.7,0,0,1-9.92,3,17.88,17.88,0,0,1-15.6-9.1h-.07a17.95,17.95,0,1,1,0-35.89,17.78,17.78,0,0,1,5,.72,17.92,17.92,0,0,1,31.34-5h.31a18,18,0,0,1,17.95,17.95c0,.4,0,.8-.05,1.22a17.93,17.93,0,0,1-11.58,31.64Zm-8.06-4.21.56.3a15.92,15.92,0,0,0,17.4-26.5l-.43-.34.06-.54c0-.55.08-1.07.08-1.57a16,16,0,0,0-15.93-15.93l-.45,0-.86,0-.32-.46a15.9,15.9,0,0,0-28.38,4.94l-.28,1.05-1-.36a15.92,15.92,0,1,0-5.33,30.91l.32,0,.93,0,.3.57a15.89,15.89,0,0,0,23.86,5.25l1.17-.9.42,1.41a4.83,4.83,0,0,0,4.6,3.43,4.77,4.77,0,0,0,2.8-.9Z"/>
    </g>
    <g id="cloud6">
      <path class="cls-6" d="M3911.4,34.33a35.49,35.49,0,0,1-15.1,5.44,13.35,13.35,0,0,1-4.69,5.23,13.58,13.58,0,0,1-13.8.5A35.35,35.35,0,0,1,3829,62.77l-.11.07a35.38,35.38,0,1,1-38.48-59.39,34.79,34.79,0,0,1,9-4.16,35.46,35.46,0,0,1,15-38.41A35.43,35.43,0,0,1,3846-42.61l.5-.35a35.43,35.43,0,0,1,48.94,10.46c.43.66.84,1.34,1.24,2.06a35.17,35.17,0,0,1,25.2,15.83A35.43,35.43,0,0,1,3911.4,34.33ZM3893.55,36l1.24-.1A31.33,31.33,0,0,0,3909.23,31a31.45,31.45,0,0,0,9.28-43.43,31.27,31.27,0,0,0-23.32-14.15l-1.08-.11-.5-1c-.5-1-1-1.84-1.55-2.68a31.42,31.42,0,0,0-43.42-9.27c-.25.16-.49.34-.73.52l-1.37,1-1-.41a31.43,31.43,0,0,0-28.85,2.74A31.44,31.44,0,0,0,3803.86.08l.66,2.05-2.09.5a31,31,0,0,0-9.83,4.17,31.39,31.39,0,1,0,34.15,52.69c.18-.11.35-.24.52-.36l1.49-1.07,1.1.62A31.34,31.34,0,0,0,3875,41.78l.95-2.74,2.22,1.88a9.47,9.47,0,0,0,14.95-3.75Z"/>
    </g>
    <g id="cloud5-5" data-name="cloud5">
      <path class="cls-6" d="M3209.83,191.18a14.46,14.46,0,0,1-6.37-1.48,5.47,5.47,0,0,1-2.76.75,5.53,5.53,0,0,1-4.83-2.89,14.4,14.4,0,0,1-20.51-4.91h-.06a14.42,14.42,0,0,1,0-28.84,14.16,14.16,0,0,1,4,.58,14.41,14.41,0,0,1,25.18-4h.25a14.43,14.43,0,0,1,14.42,14.41c0,.33,0,.65,0,1a14.41,14.41,0,0,1-9.31,25.41Zm-6.48-3.38.45.24a12.67,12.67,0,0,0,6,1.52,12.78,12.78,0,0,0,8-22.8l-.34-.28,0-.44a11,11,0,0,0,.07-1.26,12.81,12.81,0,0,0-12.8-12.79l-.36,0-.69,0-.26-.36a12.78,12.78,0,0,0-22.8,4l-.23.85-.82-.3A12.79,12.79,0,1,0,3175.3,181h.26l.75,0,.24.45a12.77,12.77,0,0,0,19.17,4.22l.94-.72.34,1.13a3.86,3.86,0,0,0,5.94,2Z"/>
    </g>
    <g id="cloud4">
      <path class="cls-6" d="M5444,105.74a26.63,26.63,0,0,1-11.8-2.76,10.12,10.12,0,0,1-5.12,1.39,10.26,10.26,0,0,1-9-5.35,26.69,26.69,0,0,1-38-9.09h-.1a26.72,26.72,0,0,1,0-53.44,26.34,26.34,0,0,1,7.45,1.09,26.69,26.69,0,0,1,46.66-7.47h.46a26.75,26.75,0,0,1,26.72,26.72c0,.6,0,1.19-.07,1.81A26.7,26.7,0,0,1,5444,105.74Zm-12-6.27.82.45a23.7,23.7,0,0,0,25.92-39.45l-.64-.51.08-.81c.08-.82.12-1.58.12-2.33a23.74,23.74,0,0,0-23.71-23.71c-.23,0-.45,0-.67,0l-1.28.07-.47-.68A23.68,23.68,0,0,0,5390,39.87l-.43,1.57L5388,40.9a23.7,23.7,0,1,0-7.94,46l.48,0,1.39-.06.44.84a23.67,23.67,0,0,0,35.53,7.82l1.73-1.34.63,2.1a7.21,7.21,0,0,0,6.86,5.1,7.11,7.11,0,0,0,4.16-1.34Z"/>
    </g>
    <g id="cloud1">
      <path class="cls-6" d="M5665.25,161.07a3.27,3.27,0,0,1-1.4-.33,1.16,1.16,0,0,1-.6.17,1.24,1.24,0,0,1-1.07-.64,3.11,3.11,0,0,1-1.75.53,3.14,3.14,0,0,1-2.75-1.61h0a3.17,3.17,0,1,1,0-6.33,3,3,0,0,1,.88.13,3.16,3.16,0,0,1,5.53-.89h.06a3.17,3.17,0,0,1,3.16,3.17v.21a3.17,3.17,0,0,1-2.05,5.59Zm-1.42-.75.1.06a2.75,2.75,0,0,0,1.32.33,2.81,2.81,0,0,0,1.75-5l-.08-.06v-.1a2.45,2.45,0,0,0,0-.27,2.81,2.81,0,0,0-2.81-2.81h-.23l-.06-.08a2.81,2.81,0,0,0-5,.87l-.05.18-.18-.06a2.81,2.81,0,1,0-.94,5.46h.22l0,.1a2.81,2.81,0,0,0,2.49,1.51,2.74,2.74,0,0,0,1.72-.59l.21-.16.07.25a.86.86,0,0,0,.82.61.89.89,0,0,0,.49-.16Z"/>
    </g>
    <g id="cloud3-2" data-name="cloud3">
      <path class="cls-6" d="M6108.14,78.34A26.89,26.89,0,0,1,6096.25,76a10.1,10.1,0,0,1-5.07,1.56,10.24,10.24,0,0,1-9.13-5.05,26.67,26.67,0,0,1-38.28-7.8h-.1a26.72,26.72,0,0,1-1.81-53.41,26,26,0,0,1,7.48.83,26.69,26.69,0,0,1,46.38-9l.46,0a26.76,26.76,0,0,1,27.61,25.81c0,.6,0,1.19,0,1.82a26.71,26.71,0,0,1-15.65,47.66Zm-12.21-5.86.84.41a23.69,23.69,0,0,0,24.58-40.29l-.66-.49.05-.82a22.93,22.93,0,0,0,0-2.33,23.74,23.74,0,0,0-24.49-22.9c-.23,0-.45,0-.68.06l-1.27.11-.5-.67a23.67,23.67,0,0,0-42,8.77l-.38,1.58-1.55-.49a23.48,23.48,0,0,0-8-1.12,23.71,23.71,0,0,0,1.59,47.39l.48,0,1.38-.11.47.83A23.68,23.68,0,0,0,6081.67,69l1.68-1.41.7,2.08a7.21,7.21,0,0,0,7,4.87,7.09,7.09,0,0,0,4.11-1.48Z"/>
    </g>
    <g id="cloud10-2" data-name="cloud10">
      <path class="cls-6" d="M6921,51.44a8.21,8.21,0,0,1-3.64-.85,3.13,3.13,0,0,1-4.34-1.22,8.21,8.21,0,0,1-11.71-2.8h0a8.24,8.24,0,1,1,0-16.47,8.13,8.13,0,0,1,2.29.33,8.23,8.23,0,0,1,14.39-2.3h.14a8.24,8.24,0,0,1,8.23,8.23,5.24,5.24,0,0,1,0,.56A8.23,8.23,0,0,1,6921,51.44Zm-3.7-1.93.25.14a7.3,7.3,0,0,0,8-12.16l-.19-.16,0-.25c0-.25,0-.49,0-.72a7.32,7.32,0,0,0-7.31-7.31h-.21l-.39,0-.15-.21a7.3,7.3,0,0,0-13,2.27l-.14.48-.47-.17a7.31,7.31,0,1,0-2.44,14.19h.14l.43,0,.14.26A7.3,7.3,0,0,0,6913,48.29l.53-.42.2.65a2.21,2.21,0,0,0,2.11,1.57,2.17,2.17,0,0,0,1.28-.41Z"/>
    </g>
    <g id="cloud8-2" data-name="cloud8">
      <path class="cls-6" d="M7216.06,135.31a26.82,26.82,0,0,1-12,1.74,10.13,10.13,0,0,1-4.26,3.16,10.25,10.25,0,0,1-10.29-1.72,26.69,26.69,0,0,1-38.7,5.42l-.09,0a26.72,26.72,0,1,1-12.18-51.46,26.69,26.69,0,0,1,40.72-24l.42-.18a26.74,26.74,0,0,1,34.63,15.12c.22.56.42,1.12.6,1.72a26.7,26.7,0,0,1,1.14,50.15Zm-13.46-1.46.93.12a23.7,23.7,0,0,0,9.73-46.19l-.78-.24-.22-.79c-.23-.78-.47-1.51-.74-2.21a23.75,23.75,0,0,0-30.73-13.42c-.21.08-.42.18-.62.28l-1.16.52-.69-.46a23.67,23.67,0,0,0-36.65,22.27l.17,1.61-1.62.06a23.32,23.32,0,0,0-7.9,1.6,23.71,23.71,0,1,0,17.31,44.14l.44-.19,1.27-.57.71.63a23.68,23.68,0,0,0,35.94-5.69l1.12-1.88,1.35,1.72a7.14,7.14,0,0,0,11.63-.52Z"/>
    </g>
    <g id="cloud7-2" data-name="cloud7">
      <path class="cls-6" d="M7495.17,36.27a26.7,26.7,0,0,1-11.81-2.76,10,10,0,0,1-5.12,1.39,10.24,10.24,0,0,1-8.95-5.35A26.37,26.37,0,0,1,7454.52,34a26.62,26.62,0,0,1-23.23-13.55h-.1a26.75,26.75,0,0,1-26.72-26.72A26.75,26.75,0,0,1,7431.19-33a26.38,26.38,0,0,1,7.45,1.08,26.77,26.77,0,0,1,25.29-18.17,26.78,26.78,0,0,1,21.37,10.7h.46a26.75,26.75,0,0,1,26.72,26.72c0,.6,0,1.2-.07,1.82a26.7,26.7,0,0,1-17.24,47.1Zm-12-6.26.82.44A23.69,23.69,0,0,0,7509.91-9l-.64-.51.08-.82c.08-.81.12-1.58.12-2.33a23.74,23.74,0,0,0-23.71-23.71c-.23,0-.45,0-.68,0l-1.27.07-.48-.68A23.74,23.74,0,0,0,7463.93-47a23.75,23.75,0,0,0-22.85,17.46l-.42,1.56-1.53-.54a23.76,23.76,0,0,0-7.94-1.39,23.74,23.74,0,0,0-23.71,23.71,23.74,23.74,0,0,0,23.71,23.71c.16,0,.32,0,.48,0l1.38-.06.44.85a23.66,23.66,0,0,0,21,12.78,23.5,23.5,0,0,0,14.5-5l1.74-1.35.63,2.1a7.19,7.19,0,0,0,6.85,5.1,7.07,7.07,0,0,0,4.16-1.34Z"/>
    </g>
    <g id="cloud2-2" data-name="cloud2">
      <path class="cls-6" d="M6386.73,162.76a18,18,0,0,1-7.92-1.85,6.83,6.83,0,0,1-3.44.93,6.91,6.91,0,0,1-6-3.59,17.93,17.93,0,0,1-25.52-6.11h-.07a17.95,17.95,0,1,1,5-35.16,17.92,17.92,0,0,1,31.34-5h.31a18,18,0,0,1,17.95,17.94c0,.4,0,.81,0,1.22a17.94,17.94,0,0,1-11.59,31.64Zm-8.06-4.21.56.3a15.91,15.91,0,0,0,17.4-26.49l-.43-.35.06-.54c.05-.55.08-1.06.08-1.57A15.94,15.94,0,0,0,6380.41,114l-.45,0-.86,0-.32-.45a15.89,15.89,0,0,0-28.37,4.93l-.29,1-1-.36a15.92,15.92,0,1,0-5.33,30.91h.32l.93,0,.3.56a15.9,15.9,0,0,0,23.86,5.26l1.17-.91.42,1.41a4.85,4.85,0,0,0,4.61,3.43,4.76,4.76,0,0,0,2.79-.9Z"/>
    </g>
    <g id="cloud6-2" data-name="cloud6">
      <path class="cls-6" d="M6677.05,4A35.4,35.4,0,0,1,6662,9.48a13.35,13.35,0,0,1-4.69,5.23,13.56,13.56,0,0,1-13.8.5,35,35,0,0,1-13.2,15.59,35.27,35.27,0,0,1-35.58,1.68l-.11.07a35.42,35.42,0,0,1-48.93-10.45,35.41,35.41,0,0,1,10.45-48.94,35.28,35.28,0,0,1,9.05-4.16,35.47,35.47,0,0,1,15-38.41,35.43,35.43,0,0,1,31.45-3.49l.5-.34a35.42,35.42,0,0,1,48.94,10.45c.43.66.84,1.34,1.24,2.06a35.19,35.19,0,0,1,25.2,15.84A35.4,35.4,0,0,1,6677.05,4Zm-17.84,1.68,1.23-.1A31.4,31.4,0,0,0,6674.89.7a31.45,31.45,0,0,0,9.27-43.43,31.27,31.27,0,0,0-23.32-14.15l-1.08-.1-.5-1a29.29,29.29,0,0,0-1.55-2.67,31.43,31.43,0,0,0-43.42-9.28c-.25.16-.49.34-.73.52l-1.36,1-1-.41a31.47,31.47,0,0,0-28.85,2.74,31.42,31.42,0,0,0-12.81,35.85l.65,2.05-2.09.5a31.21,31.21,0,0,0-9.82,4.17A31.43,31.43,0,0,0,6549,19.93a31.44,31.44,0,0,0,43.42,9.28l.52-.37,1.5-1.07,1.09.62a31.32,31.32,0,0,0,32.58-.93,31.13,31.13,0,0,0,12.54-16l1-2.75,2.21,1.88a9.53,9.53,0,0,0,11.29.73,9.32,9.32,0,0,0,3.66-4.48Z"/>
    </g>
    <g id="cloud5-6" data-name="cloud5">
      <path class="cls-6" d="M5975.48,160.9a14.5,14.5,0,0,1-6.37-1.49,5.45,5.45,0,0,1-2.76.75,5.53,5.53,0,0,1-4.83-2.89,14.4,14.4,0,0,1-20.51-4.9H5941a14.42,14.42,0,1,1,4-28.26,14.41,14.41,0,0,1,25.18-4h.25a14.44,14.44,0,0,1,14.42,14.42c0,.32,0,.64,0,1a14.41,14.41,0,0,1-9.31,25.42Zm-6.48-3.38.45.24a12.79,12.79,0,0,0,14-21.29l-.35-.28,0-.43a11.13,11.13,0,0,0,.07-1.26,12.81,12.81,0,0,0-12.8-12.8l-.36,0-.69,0-.26-.36a12.78,12.78,0,0,0-22.8,4l-.23.85-.82-.29a12.79,12.79,0,1,0-4.28,24.83h.25l.75,0,.24.45a12.77,12.77,0,0,0,19.17,4.22l.94-.72.34,1.13a3.86,3.86,0,0,0,5.94,2Z"/>
    </g>
  </g>
  <g id="cloud">
    <g id="cloud3-3" data-name="cloud3">
      <path class="cls-6" d="M578.74,113.23a26.89,26.89,0,0,1-11.89-2.36,10.1,10.1,0,0,1-5.07,1.56,10.24,10.24,0,0,1-9.13-5.05,26.67,26.67,0,0,1-38.28-7.8h-.1a26.72,26.72,0,1,1-1.8-53.41A26,26,0,0,1,520,47a26.69,26.69,0,0,1,46.38-9l.46,0a26.76,26.76,0,0,1,27.6,25.81c0,.6,0,1.19,0,1.82a26.71,26.71,0,0,1-15.65,47.66Zm-12.21-5.86.85.41A23.69,23.69,0,0,0,592,67.49l-.66-.49.05-.82a20.36,20.36,0,0,0,0-2.33A23.74,23.74,0,0,0,566.89,41c-.23,0-.45,0-.68.06l-1.27.11-.49-.67a23.68,23.68,0,0,0-42,8.77l-.38,1.58-1.54-.49a23.7,23.7,0,1,0-6.38,46.27l.47,0,1.39-.11.46.83a23.68,23.68,0,0,0,35.78,6.62l1.68-1.41.7,2.08a7.21,7.21,0,0,0,7,4.87,7.09,7.09,0,0,0,4.11-1.48Z"/>
    </g>
    <g id="cloud10-3" data-name="cloud10">
      <path class="cls-6" d="M1391.61,86.33a8.21,8.21,0,0,1-3.64-.85,3.13,3.13,0,0,1-4.34-1.22,8.21,8.21,0,0,1-11.71-2.8h0a8.24,8.24,0,1,1,0-16.47,8.13,8.13,0,0,1,2.29.33,8.23,8.23,0,0,1,14.39-2.3h.14a8.25,8.25,0,0,1,8.24,8.23c0,.19,0,.37,0,.56a8.23,8.23,0,0,1-5.32,14.52Zm-3.7-1.93.25.14a7.3,7.3,0,0,0,8-12.16l-.19-.16,0-.25a6,6,0,0,0,0-.72,7.32,7.32,0,0,0-7.31-7.31h-.21l-.39,0-.15-.21a7.3,7.3,0,0,0-13,2.27l-.13.48-.48-.17a7.31,7.31,0,1,0-2.44,14.19h.14l.43,0,.14.26a7.3,7.3,0,0,0,11,2.41l.53-.42.2.65a2.21,2.21,0,0,0,3.4,1.16Z"/>
    </g>
    <g id="cloud9-2" data-name="cloud9">
      <path class="cls-6" d="M2248.14,210.43a39.67,39.67,0,0,1-18,.54,14.88,14.88,0,0,1-6.82,3.95,15.24,15.24,0,0,1-14.9-4.26,39.64,39.64,0,0,1-58,1.46l-.14,0a39.7,39.7,0,1,1-9.3-78,39.65,39.65,0,0,1,64.15-28.53l.66-.2a39.75,39.75,0,0,1,48.57,28.17c.23.86.42,1.73.6,2.63a39.68,39.68,0,0,1-6.78,74.23ZM2228.52,206l1.35.33A35.21,35.21,0,0,0,2252,139.8l-1.12-.49-.19-1.2c-.2-1.2-.44-2.31-.73-3.39a35.25,35.25,0,0,0-43.09-25,9.75,9.75,0,0,0-1,.3l-1.8.58-.95-.79a35.18,35.18,0,0,0-57.86,26.68l0,2.41-2.4-.19a35.21,35.21,0,1,0,6.18,69.12c.23-.06.45-.14.68-.22l2-.61,1,1a35.17,35.17,0,0,0,54-2.34l2-2.59,1.71,2.78a10.71,10.71,0,0,0,11.79,4.7,10.5,10.5,0,0,0,5.46-3.51Z"/>
    </g>
    <g id="cloud8-3" data-name="cloud8">
      <path class="cls-6" d="M1686.66,170.2a26.82,26.82,0,0,1-12,1.74,10.13,10.13,0,0,1-4.26,3.16,10.25,10.25,0,0,1-10.29-1.72,26.36,26.36,0,0,1-12.12,9.55,26.66,26.66,0,0,1-26.58-4.13l-.09,0a26.72,26.72,0,1,1-12.18-51.46,26.69,26.69,0,0,1,40.72-24l.42-.18a26.74,26.74,0,0,1,34.63,15.12c.22.56.42,1.12.6,1.72a26.7,26.7,0,0,1,1.14,50.15Zm-13.46-1.46.93.12a23.7,23.7,0,0,0,9.73-46.19l-.78-.24-.22-.79c-.22-.78-.47-1.51-.74-2.21A23.75,23.75,0,0,0,1651.39,106c-.21.08-.41.18-.62.28l-1.16.52-.69-.46a23.68,23.68,0,0,0-36.65,22.27l.17,1.61-1.62.06a23.32,23.32,0,0,0-7.9,1.6A23.71,23.71,0,0,0,1620.23,176l.44-.19,1.27-.57.71.63a23.68,23.68,0,0,0,35.94-5.69l1.12-1.88,1.35,1.72a7.14,7.14,0,0,0,11.63-.52Z"/>
    </g>
    <g id="cloud7-3" data-name="cloud7">
      <path class="cls-6" d="M1965.77,71.16A26.63,26.63,0,0,1,1954,68.4a10,10,0,0,1-5.13,1.39,10.24,10.24,0,0,1-8.95-5.35,26.69,26.69,0,0,1-38-9.09h-.1a26.72,26.72,0,0,1,0-53.44A26.38,26.38,0,0,1,1909.24,3a26.69,26.69,0,0,1,46.66-7.47h.46a26.75,26.75,0,0,1,26.72,26.72c0,.6,0,1.2-.07,1.82a26.7,26.7,0,0,1-17.24,47.1Zm-12-6.26.82.44a23.69,23.69,0,0,0,25.92-39.44l-.64-.51.08-.82c.08-.81.12-1.58.12-2.33a23.74,23.74,0,0,0-23.71-23.71c-.23,0-.45,0-.68,0l-1.27.07-.48-.68a23.68,23.68,0,0,0-42.25,7.35l-.42,1.56-1.53-.54a23.7,23.7,0,1,0-7.94,46c.16,0,.32,0,.48,0l1.38-.06.44.85a23.69,23.69,0,0,0,35.53,7.82l1.74-1.35.63,2.1a7.19,7.19,0,0,0,6.85,5.1,7.07,7.07,0,0,0,4.16-1.34Z"/>
    </g>
    <g id="cloud2-3" data-name="cloud2">
      <path class="cls-6" d="M857.33,197.65a18,18,0,0,1-7.92-1.85,6.8,6.8,0,0,1-3.44.93,6.91,6.91,0,0,1-6-3.59A17.93,17.93,0,0,1,814.43,187h-.07a17.95,17.95,0,1,1,5-35.16,17.91,17.91,0,0,1,31.33-5H851a18,18,0,0,1,18,17.94c0,.4,0,.81,0,1.22a17.94,17.94,0,0,1-11.59,31.64Zm-8.06-4.21.56.3a15.91,15.91,0,0,0,17.41-26.49l-.43-.35.05-.54c0-.55.08-1.06.08-1.57A15.94,15.94,0,0,0,851,148.87l-.45,0-.85,0-.32-.45A15.9,15.9,0,0,0,821,153.41l-.29,1.05-1-.36A15.92,15.92,0,1,0,814.36,185h.32l.93,0,.3.56a15.9,15.9,0,0,0,23.86,5.26l1.17-.91.42,1.41a4.85,4.85,0,0,0,4.61,3.43,4.76,4.76,0,0,0,2.79-.9Z"/>
    </g>
    <g id="cloud6-3" data-name="cloud6">
      <path class="cls-6" d="M1147.65,38.93a35.4,35.4,0,0,1-15.1,5.44,13.35,13.35,0,0,1-4.69,5.23,13.56,13.56,0,0,1-13.8.5,35.35,35.35,0,0,1-48.78,17.27l-.11.07a35.38,35.38,0,1,1-29.43-63.55,35.47,35.47,0,0,1,15-38.41A35.43,35.43,0,0,1,1082.22-38l.5-.34a35.42,35.42,0,0,1,48.94,10.45c.43.66.84,1.34,1.24,2.06A35.22,35.22,0,0,1,1158.11-10,35.41,35.41,0,0,1,1147.65,38.93Zm-17.84,1.68,1.23-.1a31.37,31.37,0,0,0,23.72-48.35A31.27,31.27,0,0,0,1131.44-22l-1.08-.1-.5-1a27.13,27.13,0,0,0-1.55-2.67A31.43,31.43,0,0,0,1084.89-35c-.25.16-.49.34-.73.52l-1.36,1-1-.41a31.47,31.47,0,0,0-28.85,2.74,31.42,31.42,0,0,0-12.81,35.85l.65,2.05-2.09.5A31.39,31.39,0,1,0,1063,64.1l.51-.37,1.5-1.07,1.09.62a31.35,31.35,0,0,0,45.12-16.89l1-2.75,2.21,1.88a9.53,9.53,0,0,0,11.29.73,9.32,9.32,0,0,0,3.66-4.48Z"/>
    </g>
    <g id="cloud5-7" data-name="cloud5">
      <path class="cls-6" d="M446.08,195.79a14.53,14.53,0,0,1-6.37-1.49,5.45,5.45,0,0,1-2.76.75,5.53,5.53,0,0,1-4.83-2.89,14.4,14.4,0,0,1-20.51-4.9h-.05a14.42,14.42,0,1,1,4-28.26,14.41,14.41,0,0,1,25.18-4H441a14.44,14.44,0,0,1,14.42,14.42c0,.32,0,.64,0,1a14.41,14.41,0,0,1-9.31,25.42Zm-6.48-3.38.45.24a12.79,12.79,0,0,0,14-21.29l-.35-.28,0-.43a11.13,11.13,0,0,0,.07-1.26,12.81,12.81,0,0,0-12.8-12.8l-.36,0-.69,0-.25-.36a12.78,12.78,0,0,0-22.81,4l-.23.85-.82-.29a12.79,12.79,0,1,0-4.28,24.83h.25l.75,0,.24.45A12.77,12.77,0,0,0,432,190.26l.94-.72.34,1.13a3.88,3.88,0,0,0,3.7,2.75,3.83,3.83,0,0,0,2.24-.72Z"/>
    </g>
    <g id="cloud4-2" data-name="cloud4">
      <path class="cls-6" d="M2680.29,110.34a26.69,26.69,0,0,1-11.8-2.76,10.12,10.12,0,0,1-5.12,1.39,10.24,10.24,0,0,1-8.95-5.35,26.7,26.7,0,0,1-38-9.09h-.1a26.72,26.72,0,0,1,0-53.44,26.28,26.28,0,0,1,7.45,1.08,26.69,26.69,0,0,1,46.66-7.47h.46a26.75,26.75,0,0,1,26.72,26.72c0,.6,0,1.2-.06,1.82a26.7,26.7,0,0,1-17.25,47.1Zm-12-6.26.83.44A23.69,23.69,0,0,0,2695,65.08l-.64-.51.08-.82c.08-.81.12-1.58.12-2.33a23.74,23.74,0,0,0-23.71-23.71c-.23,0-.45,0-.67,0l-1.28.07-.47-.68a23.68,23.68,0,0,0-42.25,7.35l-.43,1.56-1.53-.54a23.7,23.7,0,1,0-7.94,46l.48,0,1.39-.06.44.85a23.69,23.69,0,0,0,35.53,7.82l1.73-1.35.63,2.1a7.21,7.21,0,0,0,6.86,5.1,7.11,7.11,0,0,0,4.16-1.34Z"/>
    </g>
    <g id="cloud1-2" data-name="cloud1">
      <path class="cls-6" d="M2901.5,165.67a3.06,3.06,0,0,1-1.39-.33,1.22,1.22,0,0,1-.61.17,1.19,1.19,0,0,1-1.06-.64,3.11,3.11,0,0,1-1.75.53,3.16,3.16,0,0,1-2.76-1.6h0a3.17,3.17,0,0,1,0-6.34,2.93,2.93,0,0,1,.88.13,3.16,3.16,0,0,1,5.53-.89h.06a3.17,3.17,0,0,1,3.17,3.17c0,.07,0,.14,0,.22a3.16,3.16,0,0,1-2.05,5.58Zm-1.42-.74.1,0a2.78,2.78,0,0,0,1.32.33,2.81,2.81,0,0,0,1.75-5l-.07-.06v-.09a2.72,2.72,0,0,0,0-.28,2.81,2.81,0,0,0-2.81-2.81h-.23l-.06-.08a2.81,2.81,0,0,0-5,.87l-.05.19-.18-.07a2.77,2.77,0,0,0-.94-.16,2.81,2.81,0,1,0,0,5.62h.22l.05.1a2.81,2.81,0,0,0,4.22.93l.2-.16.08.25a.85.85,0,0,0,.81.6.78.78,0,0,0,.49-.16Z"/>
    </g>
  </g>
  <g id="train">
    <g id="station">
      <g>
        <path class="cls-7" d="M563.59,187.6h-74c-3.06,0-5.53-1.26-5.53-2.81V162.27c0-1.55,2.47-2.81,5.53-2.81h74c3,0,5.53,1.26,5.53,2.81v22.52C569.12,186.34,566.64,187.6,563.59,187.6Z"/>
        <path class="cls-8" d="M520.23,187.6h10V251h-10Z"/>
        <path class="cls-8" d="M520.23,148.17h10v11.29h-10Z"/>
      </g>
      <g id="text">
        <text class="cls-9" transform="translate(493.33 177.3)">NY ELLEBJERG</text>
      </g>
    </g>
    <g>
      <rect class="cls-10" x="7.1" y="226.97" width="116.45" height="41.8"/>
      <circle cx="19.3" cy="289.67" r="11.94"/>
      <circle cx="52.15" cy="289.67" r="11.94"/>
      <circle cx="84.99" cy="289.67" r="11.94"/>
      <circle cx="117.84" cy="289.67" r="11.94"/>
      <path class="cls-5" d="M162.1,286.68H136a.26.26,0,0,1-.26-.26V251.64a.26.26,0,0,1,.47-.16l26.09,34.78A.26.26,0,0,1,162.1,286.68Z"/>
      <rect class="cls-7" x="87.71" y="206.06" width="26.87" height="20.9"/>
      <path class="cls-7" d="M114.59,206.06H87.71l-5.9-10.27a3.08,3.08,0,0,1,2.64-4.66h33.93a3.07,3.07,0,0,1,2.63,4.66Z"/>
      <path class="cls-10" d="M1.12,268.77v17.91H7.78a11.89,11.89,0,0,1,23,0h9.81a11.89,11.89,0,0,1,23,0h9.8a11.9,11.9,0,0,1,23,0h9.8a11.9,11.9,0,0,1,23.05,0h6.39V268.77Z"/>
      <rect class="cls-10" x="13.07" y="185.16" width="47.77" height="41.8"/>
      <path class="cls-10" d="M67.08,188.15H7.36a3,3,0,1,1,0-6H67.08a3,3,0,0,1,0,6Z"/>
      <rect class="cls-5" x="25.01" y="197.11" width="23.89" height="29.86"/>
      <circle class="cls-7" cx="36.95" cy="247.87" r="11.94"/>
      <path class="cls-5" d="M72.79,259.81a3,3,0,0,1-2.12-5.1L88.59,236.8A3,3,0,0,1,92.81,241L74.9,258.94A3,3,0,0,1,72.79,259.81Z"/>
      <path class="cls-5" d="M90.7,259.81a3,3,0,0,1-2.11-5.1L106.5,236.8a3,3,0,0,1,4.23,4.22L92.81,258.94A3,3,0,0,1,90.7,259.81Z"/>
    </g>
    <g id="roeg">
      <g id="cloud5-8" data-name="cloud5">
        <path class="cls-5" d="M103.81,190.06a2.15,2.15,0,0,1-1.26-.43.86.86,0,0,1-.55.21,1.13,1.13,0,0,1-1-.83,2.22,2.22,0,0,1-1.57.7A2.87,2.87,0,0,1,97,187.59h0c-1.58,0-2.86-1.87-2.86-4.17s1.28-4.17,2.86-4.17a1.88,1.88,0,0,1,.79.17c.39-1.69,1.48-2.84,2.7-2.84a2.69,2.69,0,0,1,2.28,1.67h0c1.57,0,2.85,1.87,2.85,4.17v.28a5.15,5.15,0,0,1,1,3.19C106.66,188.19,105.38,190.06,103.81,190.06Zm-1.29-1,.09.07a1.93,1.93,0,0,0,1.2.44c1.39,0,2.53-1.66,2.53-3.7a4.48,4.48,0,0,0-1-2.9l-.07-.08v-.13c0-.12,0-.24,0-.36,0-2-1.13-3.7-2.53-3.7h-.21l0-.1a2.43,2.43,0,0,0-2.07-1.58c-1.14,0-2.14,1.12-2.44,2.73l0,.24-.17-.08a1.73,1.73,0,0,0-.84-.22c-1.4,0-2.54,1.66-2.54,3.7s1.14,3.7,2.54,3.7h.19l0,.13a2.61,2.61,0,0,0,2.25,2,2.08,2.08,0,0,0,1.55-.78l.18-.21.07.33c.09.47.39.79.73.79a.62.62,0,0,0,.44-.2Z"/>
      </g>
      <g id="cloud5-9" data-name="cloud5">
        <path class="cls-5" d="M111.7,188.06a.86.86,0,0,1-.47-.16.32.32,0,0,1-.2.08.41.41,0,0,1-.35-.31.82.82,0,0,1-.58.26,1.07,1.07,0,0,1-.92-.78h0c-.58,0-1.06-.69-1.06-1.54s.48-1.54,1.06-1.54a.75.75,0,0,1,.29.06c.14-.62.54-1,1-1a1,1,0,0,1,.84.62h0c.58,0,1,.69,1,1.54v.1a1.89,1.89,0,0,1,.37,1.18C112.75,187.37,112.28,188.06,111.7,188.06Zm-.47-.36,0,0a.68.68,0,0,0,.44.16c.51,0,.93-.61.93-1.36a1.68,1.68,0,0,0-.35-1.07l0,0v-.18c0-.76-.42-1.37-.93-1.37h-.08l0,0a.88.88,0,0,0-.76-.58c-.42,0-.79.41-.9,1l0,.09-.06,0a.71.71,0,0,0-.31-.08c-.52,0-.94.61-.94,1.37s.42,1.36.94,1.36h.07l0,.05a1,1,0,0,0,.83.73.76.76,0,0,0,.57-.28l.07-.08,0,.12c0,.17.15.3.27.3a.25.25,0,0,0,.17-.08Z"/>
      </g>
      <g id="cloud5-10" data-name="cloud5">
        <path class="cls-5" d="M88.33,178.56a1.53,1.53,0,0,1-.89-.31.54.54,0,0,1-.38.16.82.82,0,0,1-.68-.59,1.59,1.59,0,0,1-1.11.49,2,2,0,0,1-1.74-1.49h0c-1.11,0-2-1.32-2-2.94s.9-2.94,2-2.94a1.41,1.41,0,0,1,.56.12c.27-1.19,1-2,1.9-2a1.91,1.91,0,0,1,1.61,1.18h0c1.11,0,2,1.31,2,2.94v.2a3.61,3.61,0,0,1,.71,2.24C90.34,177.24,89.44,178.56,88.33,178.56Zm-.9-.69.06,0a1.39,1.39,0,0,0,.84.31c1,0,1.79-1.17,1.79-2.61a3.15,3.15,0,0,0-.68-2l0-.06v-.09a2.18,2.18,0,0,0,0-.25c0-1.44-.8-2.61-1.79-2.61h-.14l0-.08A1.72,1.72,0,0,0,86,169.39c-.8,0-1.51.79-1.72,1.92l0,.17-.12-.06a1.26,1.26,0,0,0-.59-.15c-1,0-1.79,1.17-1.79,2.61s.8,2.61,1.79,2.61h.14l0,.09A1.84,1.84,0,0,0,85.27,178a1.44,1.44,0,0,0,1.09-.55l.14-.15,0,.24c.07.33.28.56.52.56a.42.42,0,0,0,.31-.15Z"/>
      </g>
    </g>
  </g>
</svg>
