<svg xmlns="http://www.w3.org/2000/svg" width="3011.86" height="632.53" viewBox="0 0 3011.86 632.53">
  <defs>
    <style>
      .cls-1 {
        fill: #0e8e15;
      }

      .cls-2 {
        fill: #3f3f3f;
      }

      .cls-3 {
        fill: none;
        stroke: red;
        stroke-linejoin: bevel;
      }

      .cls-4 {
        fill: #78bfff;
      }

      .cls-5 {
        fill: #d3dcd7;
      }

      .cls-6, .cls-9 {
        fill: #fff;
      }

      .cls-7 {
        fill: #00233c;
      }

      .cls-8 {
        fill: #ffb954;
      }

      .cls-9 {
        font-size: 9.57px;
        font-family: OpenSans-Bold, Open Sans;
        font-weight: 700;
      }

      .cls-10 {
        fill: #b41730;
      }
    </style>
  </defs>
  <title>train</title>
  <g id="road">
    <path id="grass" class="cls-1" d="M-1.66,229.4V631.89H3013.42V229.4ZM2953.07,465.63c7.66,12.76,34.48,23,38.32,36.35C2987.55,488.59,2960.73,478.39,2953.07,465.63Z"/>
    <g>
      <polygon class="cls-2" points="3043.11 336.2 -61.08 336.2 -47.93 261.61 3056.26 261.61 3043.11 336.2"/>
      <polygon points="1904.71 336.2 1899.39 336.2 1912.54 261.61 1917.87 261.61 1904.71 336.2"/>
      <polygon points="1886.58 336.2 1881.26 336.2 1894.41 261.61 1899.73 261.61 1886.58 336.2"/>
      <polygon points="1920.63 336.2 1915.3 336.2 1928.45 261.61 1933.78 261.61 1920.63 336.2"/>
      <polygon points="1938.42 336.2 1933.1 336.2 1946.25 261.61 1951.57 261.61 1938.42 336.2"/>
      <polygon points="2723.39 336.2 2718.07 336.2 2731.22 261.61 2736.54 261.61 2723.39 336.2"/>
      <polygon points="2705.26 336.2 2699.93 336.2 2713.09 261.61 2718.41 261.61 2705.26 336.2"/>
      <polygon points="2739.31 336.2 2733.98 336.2 2747.13 261.61 2752.46 261.61 2739.31 336.2"/>
      <polygon points="2757.1 336.2 2751.78 336.2 2764.93 261.61 2770.25 261.61 2757.1 336.2"/>
      <polygon points="2791.68 336.2 2786.36 336.2 2799.51 261.61 2804.83 261.61 2791.68 336.2"/>
      <polygon points="2773.55 336.2 2768.22 336.2 2781.37 261.61 2786.7 261.61 2773.55 336.2"/>
      <polygon points="2807.59 336.2 2802.27 336.2 2815.42 261.61 2820.74 261.61 2807.59 336.2"/>
      <polygon points="2825.39 336.2 2820.06 336.2 2833.21 261.61 2838.54 261.61 2825.39 336.2"/>
      <polygon points="2860.09 336.2 2854.77 336.2 2867.92 261.61 2873.24 261.61 2860.09 336.2"/>
      <polygon points="2841.96 336.2 2836.63 336.2 2849.78 261.61 2855.11 261.61 2841.96 336.2"/>
      <polygon points="2876.01 336.2 2870.68 336.2 2883.83 261.61 2889.16 261.61 2876.01 336.2"/>
      <polygon points="2893.8 336.2 2888.47 336.2 2901.63 261.61 2906.95 261.61 2893.8 336.2"/>
      <polygon points="2928.22 336.2 2922.89 336.2 2936.04 261.61 2941.37 261.61 2928.22 336.2"/>
      <polygon points="2910.08 336.2 2904.76 336.2 2917.91 261.61 2923.23 261.61 2910.08 336.2"/>
      <polygon points="2944.13 336.2 2938.8 336.2 2951.96 261.61 2957.28 261.61 2944.13 336.2"/>
      <polygon points="2961.92 336.2 2956.6 336.2 2969.75 261.61 2975.07 261.61 2961.92 336.2"/>
      <polygon points="2995.8 336.2 2990.47 336.2 3003.63 261.61 3008.95 261.61 2995.8 336.2"/>
      <polygon points="2977.66 336.2 2972.34 336.2 2985.49 261.61 2990.82 261.61 2977.66 336.2"/>
      <polygon points="3011.71 336.2 3006.39 336.2 3019.54 261.61 3024.86 261.61 3011.71 336.2"/>
      <polygon points="6.3 336.2 0.97 336.2 14.12 261.61 19.45 261.61 6.3 336.2"/>
      <polygon points="-11.84 336.2 -17.16 336.2 -4.01 261.61 1.31 261.61 -11.84 336.2"/>
      <polygon points="72.78 336.2 67.46 336.2 80.61 261.61 85.94 261.61 72.78 336.2"/>
      <polygon points="54.65 336.2 49.33 336.2 62.48 261.61 67.8 261.61 54.65 336.2"/>
      <polygon points="88.7 336.2 83.37 336.2 96.52 261.61 101.85 261.61 88.7 336.2"/>
      <polygon points="106.49 336.2 101.17 336.2 114.32 261.61 119.64 261.61 106.49 336.2"/>
      <polygon points="141.41 336.2 136.09 336.2 149.24 261.61 154.56 261.61 141.41 336.2"/>
      <polygon points="123.28 336.2 117.95 336.2 131.1 261.61 136.43 261.61 123.28 336.2"/>
      <polygon points="157.32 336.2 152 336.2 165.15 261.61 170.47 261.61 157.32 336.2"/>
      <polygon points="175.12 336.2 169.79 336.2 182.94 261.61 188.27 261.61 175.12 336.2"/>
      <polygon points="210.44 336.2 205.12 336.2 218.27 261.61 223.59 261.61 210.44 336.2"/>
      <polygon points="192.31 336.2 186.99 336.2 200.14 261.61 205.46 261.61 192.31 336.2"/>
      <polygon points="226.36 336.2 221.03 336.2 234.18 261.61 239.51 261.61 226.36 336.2"/>
      <polygon points="244.15 336.2 238.82 336.2 251.98 261.61 257.3 261.61 244.15 336.2"/>
      <polygon points="22.21 336.2 16.89 336.2 30.04 261.61 35.36 261.61 22.21 336.2"/>
      <polygon points="40 336.2 34.68 336.2 47.83 261.61 53.15 261.61 40 336.2"/>
      <polygon points="278 336.2 272.68 336.2 285.83 261.61 291.15 261.61 278 336.2"/>
      <polygon points="259.87 336.2 254.54 336.2 267.69 261.61 273.02 261.61 259.87 336.2"/>
      <polygon points="293.91 336.2 288.59 336.2 301.74 261.61 307.06 261.61 293.91 336.2"/>
      <polygon points="311.71 336.2 306.38 336.2 319.53 261.61 324.86 261.61 311.71 336.2"/>
      <polygon points="347.75 336.2 342.43 336.2 355.58 261.61 360.9 261.61 347.75 336.2"/>
      <polygon points="329.62 336.2 324.29 336.2 337.44 261.61 342.77 261.61 329.62 336.2"/>
      <polygon points="363.66 336.2 358.34 336.2 371.49 261.61 376.81 261.61 363.66 336.2"/>
      <polygon points="381.46 336.2 376.13 336.2 389.28 261.61 394.61 261.61 381.46 336.2"/>
      <polygon points="415.67 336.2 410.34 336.2 423.49 261.61 428.82 261.61 415.67 336.2"/>
      <polygon points="397.53 336.2 392.21 336.2 405.36 261.61 410.69 261.61 397.53 336.2"/>
      <polygon points="431.58 336.2 426.26 336.2 439.41 261.61 444.73 261.61 431.58 336.2"/>
      <polygon points="449.37 336.2 444.05 336.2 457.2 261.61 462.52 261.61 449.37 336.2"/>
      <polygon points="484.1 336.2 478.78 336.2 491.93 261.61 497.25 261.61 484.1 336.2"/>
      <polygon points="465.97 336.2 460.64 336.2 473.8 261.61 479.12 261.61 465.97 336.2"/>
      <polygon points="500.01 336.2 494.69 336.2 507.84 261.61 513.17 261.61 500.01 336.2"/>
      <polygon points="517.81 336.2 512.48 336.2 525.63 261.61 530.96 261.61 517.81 336.2"/>
      <polygon points="550.3 336.2 544.97 336.2 558.12 261.61 563.45 261.61 550.3 336.2"/>
      <polygon points="532.16 336.2 526.84 336.2 539.99 261.61 545.31 261.61 532.16 336.2"/>
      <polygon points="566.21 336.2 560.88 336.2 574.04 261.61 579.36 261.61 566.21 336.2"/>
      <polygon points="584 336.2 578.68 336.2 591.83 261.61 597.15 261.61 584 336.2"/>
      <polygon points="616.79 336.2 611.47 336.2 624.62 261.61 629.95 261.61 616.79 336.2"/>
      <polygon points="598.66 336.2 593.34 336.2 606.49 261.61 611.81 261.61 598.66 336.2"/>
      <polygon points="632.71 336.2 627.38 336.2 640.53 261.61 645.86 261.61 632.71 336.2"/>
      <polygon points="650.5 336.2 645.18 336.2 658.33 261.61 663.65 261.61 650.5 336.2"/>
      <polygon points="686.56 336.2 681.23 336.2 694.38 261.61 699.71 261.61 686.56 336.2"/>
      <polygon points="668.42 336.2 663.1 336.2 676.25 261.61 681.58 261.61 668.42 336.2"/>
      <polygon points="702.47 336.2 697.15 336.2 710.3 261.61 715.62 261.61 702.47 336.2"/>
      <polygon points="720.26 336.2 714.94 336.2 728.09 261.61 733.41 261.61 720.26 336.2"/>
      <polygon points="752.3 336.2 746.97 336.2 760.12 261.61 765.45 261.61 752.3 336.2"/>
      <polygon points="734.16 336.2 728.84 336.2 741.99 261.61 747.31 261.61 734.16 336.2"/>
      <polygon points="768.21 336.2 762.88 336.2 776.04 261.61 781.36 261.61 768.21 336.2"/>
      <polygon points="786 336.2 780.68 336.2 793.83 261.61 799.15 261.61 786 336.2"/>
      <polygon points="817.5 336.2 812.18 336.2 825.33 261.61 830.65 261.61 817.5 336.2"/>
      <polygon points="799.37 336.2 794.04 336.2 807.2 261.61 812.52 261.61 799.37 336.2"/>
      <polygon points="833.42 336.2 828.09 336.2 841.24 261.61 846.57 261.61 833.42 336.2"/>
      <polygon points="851.21 336.2 845.88 336.2 859.04 261.61 864.36 261.61 851.21 336.2"/>
      <polygon points="885.38 336.2 880.06 336.2 893.21 261.61 898.53 261.61 885.38 336.2"/>
      <polygon points="867.25 336.2 861.92 336.2 875.08 261.61 880.4 261.61 867.25 336.2"/>
      <polygon points="901.3 336.2 895.97 336.2 909.12 261.61 914.45 261.61 901.3 336.2"/>
      <polygon points="919.09 336.2 913.76 336.2 926.92 261.61 932.24 261.61 919.09 336.2"/>
      <polygon points="954.4 336.2 949.08 336.2 962.23 261.61 967.56 261.61 954.4 336.2"/>
      <polygon points="936.27 336.2 930.95 336.2 944.1 261.61 949.42 261.61 936.27 336.2"/>
      <polygon points="970.32 336.2 964.99 336.2 978.14 261.61 983.47 261.61 970.32 336.2"/>
      <polygon points="988.11 336.2 982.79 336.2 995.94 261.61 1001.26 261.61 988.11 336.2"/>
      <polygon points="1020.17 336.2 1014.85 336.2 1028 261.61 1033.32 261.61 1020.17 336.2"/>
      <polygon points="1002.04 336.2 996.71 336.2 1009.87 261.61 1015.19 261.61 1002.04 336.2"/>
      <polygon points="1036.09 336.2 1030.76 336.2 1043.91 261.61 1049.24 261.61 1036.09 336.2"/>
      <polygon points="1053.88 336.2 1048.55 336.2 1061.71 261.61 1067.03 261.61 1053.88 336.2"/>
      <polygon points="1089.47 336.2 1084.14 336.2 1097.29 261.61 1102.62 261.61 1089.47 336.2"/>
      <polygon points="1071.33 336.2 1066.01 336.2 1079.16 261.61 1084.48 261.61 1071.33 336.2"/>
      <polygon points="1105.38 336.2 1100.06 336.2 1113.21 261.61 1118.53 261.61 1105.38 336.2"/>
      <polygon points="1123.17 336.2 1117.85 336.2 1131 261.61 1136.33 261.61 1123.17 336.2"/>
      <polygon points="1158.22 336.2 1152.89 336.2 1166.04 261.61 1171.37 261.61 1158.22 336.2"/>
      <polygon points="1140.08 336.2 1134.76 336.2 1147.91 261.61 1153.23 261.61 1140.08 336.2"/>
      <polygon points="1174.13 336.2 1168.81 336.2 1181.96 261.61 1187.28 261.61 1174.13 336.2"/>
      <polygon points="1191.92 336.2 1186.6 336.2 1199.75 261.61 1205.07 261.61 1191.92 336.2"/>
      <polygon points="1225.87 336.2 1220.54 336.2 1233.69 261.61 1239.02 261.61 1225.87 336.2"/>
      <polygon points="1207.73 336.2 1202.41 336.2 1215.56 261.61 1220.88 261.61 1207.73 336.2"/>
      <polygon points="1241.78 336.2 1236.46 336.2 1249.61 261.61 1254.93 261.61 1241.78 336.2"/>
      <polygon points="1259.57 336.2 1254.25 336.2 1267.4 261.61 1272.72 261.61 1259.57 336.2"/>
      <polygon points="1294.57 336.2 1289.25 336.2 1302.4 261.61 1307.72 261.61 1294.57 336.2"/>
      <polygon points="1276.44 336.2 1271.12 336.2 1284.27 261.61 1289.59 261.61 1276.44 336.2"/>
      <polygon points="1310.49 336.2 1305.16 336.2 1318.31 261.61 1323.64 261.61 1310.49 336.2"/>
      <polygon points="1328.28 336.2 1322.95 336.2 1336.11 261.61 1341.43 261.61 1328.28 336.2"/>
      <polygon points="1360.4 335.91 1355.08 335.91 1368.23 261.32 1373.55 261.32 1360.4 335.91"/>
      <polygon points="1342.27 335.91 1336.94 335.91 1350.09 261.32 1355.42 261.32 1342.27 335.91"/>
      <polygon points="1376.31 335.91 1370.99 335.91 1384.14 261.32 1389.47 261.32 1376.31 335.91"/>
      <polygon points="1394.11 335.91 1388.78 335.91 1401.93 261.32 1407.26 261.32 1394.11 335.91"/>
      <polygon points="1427.68 336.2 1422.36 336.2 1435.51 261.61 1440.83 261.61 1427.68 336.2"/>
      <polygon points="1409.55 336.2 1404.22 336.2 1417.38 261.61 1422.7 261.61 1409.55 336.2"/>
      <polygon points="1443.6 336.2 1438.27 336.2 1451.42 261.61 1456.75 261.61 1443.6 336.2"/>
      <polygon points="1461.39 336.2 1456.07 336.2 1469.22 261.61 1474.54 261.61 1461.39 336.2"/>
      <polygon points="1494.63 336.2 1489.31 336.2 1502.46 261.61 1507.79 261.61 1494.63 336.2"/>
      <polygon points="1476.5 336.2 1471.18 336.2 1484.33 261.61 1489.65 261.61 1476.5 336.2"/>
      <polygon points="1510.55 336.2 1505.22 336.2 1518.38 261.61 1523.7 261.61 1510.55 336.2"/>
      <polygon points="1528.34 336.2 1523.02 336.2 1536.17 261.61 1541.49 261.61 1528.34 336.2"/>
      <polygon points="1562.58 336.2 1557.26 336.2 1570.41 261.61 1575.74 261.61 1562.58 336.2"/>
      <polygon points="1544.45 336.2 1539.13 336.2 1552.28 261.61 1557.6 261.61 1544.45 336.2"/>
      <polygon points="1578.5 336.2 1573.17 336.2 1586.33 261.61 1591.65 261.61 1578.5 336.2"/>
      <polygon points="1596.29 336.2 1590.97 336.2 1604.12 261.61 1609.44 261.61 1596.29 336.2"/>
      <polygon points="1630.54 336.2 1625.21 336.2 1638.36 261.61 1643.69 261.61 1630.54 336.2"/>
      <polygon points="1612.4 336.2 1607.08 336.2 1620.23 261.61 1625.55 261.61 1612.4 336.2"/>
      <polygon points="1646.45 336.2 1641.12 336.2 1654.28 261.61 1659.6 261.61 1646.45 336.2"/>
      <polygon points="1664.24 336.2 1658.92 336.2 1672.07 261.61 1677.39 261.61 1664.24 336.2"/>
      <polygon points="1699.72 336.2 1694.39 336.2 1707.55 261.61 1712.87 261.61 1699.72 336.2"/>
      <polygon points="1681.59 336.2 1676.26 336.2 1689.41 261.61 1694.74 261.61 1681.59 336.2"/>
      <polygon points="1715.63 336.2 1710.31 336.2 1723.46 261.61 1728.79 261.61 1715.63 336.2"/>
      <polygon points="1733.43 336.2 1728.1 336.2 1741.25 261.61 1746.58 261.61 1733.43 336.2"/>
      <polygon points="1767.3 336.2 1761.97 336.2 1775.12 261.61 1780.45 261.61 1767.3 336.2"/>
      <polygon points="1749.16 336.2 1743.84 336.2 1756.99 261.61 1762.31 261.61 1749.16 336.2"/>
      <polygon points="1783.21 336.2 1777.88 336.2 1791.04 261.61 1796.36 261.61 1783.21 336.2"/>
      <polygon points="1801 336.2 1795.68 336.2 1808.83 261.61 1814.15 261.61 1801 336.2"/>
      <polygon points="1835.88 336.2 1830.55 336.2 1843.71 261.61 1849.03 261.61 1835.88 336.2"/>
      <polygon points="1817.74 336.2 1812.42 336.2 1825.57 261.61 1830.9 261.61 1817.74 336.2"/>
      <polygon points="1851.79 336.2 1846.47 336.2 1859.62 261.61 1864.94 261.61 1851.79 336.2"/>
      <polygon points="1869.59 336.2 1864.26 336.2 1877.41 261.61 1882.74 261.61 1869.59 336.2"/>
      <polygon points="1972.67 336.2 1967.34 336.2 1980.49 261.61 1985.82 261.61 1972.67 336.2"/>
      <polygon points="1954.53 336.2 1949.21 336.2 1962.36 261.61 1967.69 261.61 1954.53 336.2"/>
      <polygon points="1988.58 336.2 1983.26 336.2 1996.41 261.61 2001.73 261.61 1988.58 336.2"/>
      <polygon points="2006.37 336.2 2001.05 336.2 2014.2 261.61 2019.53 261.61 2006.37 336.2"/>
      <polygon points="2041.34 336.2 2036.02 336.2 2049.17 261.61 2054.49 261.61 2041.34 336.2"/>
      <polygon points="2023.21 336.2 2017.88 336.2 2031.04 261.61 2036.36 261.61 2023.21 336.2"/>
      <polygon points="2057.26 336.2 2051.93 336.2 2065.08 261.61 2070.41 261.61 2057.26 336.2"/>
      <polygon points="2075.05 336.2 2069.73 336.2 2082.88 261.61 2088.2 261.61 2075.05 336.2"/>
      <polygon points="2110.34 336.2 2105.02 336.2 2118.17 261.61 2123.49 261.61 2110.34 336.2"/>
      <polygon points="2092.21 336.2 2086.89 336.2 2100.04 261.61 2105.36 261.61 2092.21 336.2"/>
      <polygon points="2126.26 336.2 2120.93 336.2 2134.08 261.61 2139.41 261.61 2126.26 336.2"/>
      <polygon points="2144.05 336.2 2138.73 336.2 2151.88 261.61 2157.2 261.61 2144.05 336.2"/>
      <polygon points="2175.82 336.2 2170.49 336.2 2183.65 261.61 2188.97 261.61 2175.82 336.2"/>
      <polygon points="2157.69 336.2 2152.36 336.2 2165.51 261.61 2170.84 261.61 2157.69 336.2"/>
      <polygon points="2191.73 336.2 2186.41 336.2 2199.56 261.61 2204.89 261.61 2191.73 336.2"/>
      <polygon points="2209.53 336.2 2204.2 336.2 2217.35 261.61 2222.68 261.61 2209.53 336.2"/>
      <polygon points="2244.75 336.2 2239.42 336.2 2252.57 261.61 2257.9 261.61 2244.75 336.2"/>
      <polygon points="2226.61 336.2 2221.29 336.2 2234.44 261.61 2239.76 261.61 2226.61 336.2"/>
      <polygon points="2260.66 336.2 2255.34 336.2 2268.49 261.61 2273.81 261.61 2260.66 336.2"/>
      <polygon points="2278.45 336.2 2273.13 336.2 2286.28 261.61 2291.61 261.61 2278.45 336.2"/>
      <polygon points="2310.82 336.2 2305.49 336.2 2318.64 261.61 2323.97 261.61 2310.82 336.2"/>
      <polygon points="2292.68 336.2 2287.36 336.2 2300.51 261.61 2305.83 261.61 2292.68 336.2"/>
      <polygon points="2326.73 336.2 2321.4 336.2 2334.56 261.61 2339.88 261.61 2326.73 336.2"/>
      <polygon points="2344.52 336.2 2339.2 336.2 2352.35 261.61 2357.67 261.61 2344.52 336.2"/>
      <polygon points="2379.34 336.2 2374.02 336.2 2387.17 261.61 2392.49 261.61 2379.34 336.2"/>
      <polygon points="2361.21 336.2 2355.88 336.2 2369.03 261.61 2374.36 261.61 2361.21 336.2"/>
      <polygon points="2395.26 336.2 2389.93 336.2 2403.08 261.61 2408.41 261.61 2395.26 336.2"/>
      <polygon points="2413.05 336.2 2407.72 336.2 2420.88 261.61 2426.2 261.61 2413.05 336.2"/>
      <polygon points="2447.41 336.2 2442.08 336.2 2455.24 261.61 2460.56 261.61 2447.41 336.2"/>
      <polygon points="2429.27 336.2 2423.95 336.2 2437.1 261.61 2442.43 261.61 2429.27 336.2"/>
      <polygon points="2463.32 336.2 2458 336.2 2471.15 261.61 2476.47 261.61 2463.32 336.2"/>
      <polygon points="2481.11 336.2 2475.79 336.2 2488.94 261.61 2494.27 261.61 2481.11 336.2"/>
      <polygon points="2516.97 336.2 2511.65 336.2 2524.8 261.61 2530.12 261.61 2516.97 336.2"/>
      <polygon points="2498.84 336.2 2493.51 336.2 2506.66 261.61 2511.99 261.61 2498.84 336.2"/>
      <polygon points="2532.88 336.2 2527.56 336.2 2540.71 261.61 2546.04 261.61 2532.88 336.2"/>
      <polygon points="2550.68 336.2 2545.35 336.2 2558.5 261.61 2563.83 261.61 2550.68 336.2"/>
      <polygon points="2586.43 336.2 2581.11 336.2 2594.26 261.61 2599.58 261.61 2586.43 336.2"/>
      <polygon points="2568.3 336.2 2562.97 336.2 2576.12 261.61 2581.45 261.61 2568.3 336.2"/>
      <polygon points="2602.34 336.2 2597.02 336.2 2610.17 261.61 2615.49 261.61 2602.34 336.2"/>
      <polygon points="2620.14 336.2 2614.81 336.2 2627.96 261.61 2633.29 261.61 2620.14 336.2"/>
      <polygon points="2653.63 336.2 2648.3 336.2 2661.45 261.61 2666.78 261.61 2653.63 336.2"/>
      <polygon points="2635.49 336.2 2630.17 336.2 2643.32 261.61 2648.64 261.61 2635.49 336.2"/>
      <polygon points="2669.54 336.2 2664.22 336.2 2677.37 261.61 2682.69 261.61 2669.54 336.2"/>
      <polygon points="2687.33 336.2 2682.01 336.2 2695.16 261.61 2700.49 261.61 2687.33 336.2"/>
    </g>
    <line id="curve" class="cls-3" x1="3049.68" y1="298.91" x2="-54.5" y2="298.91"/>
    <rect class="cls-4" x="-7.34" y="-8.38" width="3024.44" height="238.08"/>
    <g id="cloud5">
      <path class="cls-5" d="M102.57,165.38a2.15,2.15,0,0,1-1.26-.43.82.82,0,0,1-.55.22,1.13,1.13,0,0,1-1-.84,2.22,2.22,0,0,1-1.57.7,2.88,2.88,0,0,1-2.48-2.11h0c-1.58,0-2.86-1.88-2.86-4.18s1.28-4.17,2.86-4.17a2,2,0,0,1,.79.17c.39-1.68,1.48-2.83,2.7-2.83a2.69,2.69,0,0,1,2.28,1.67h0c1.57,0,2.85,1.88,2.85,4.18V158a5.14,5.14,0,0,1,1,3.18C105.42,163.51,104.14,165.38,102.57,165.38Zm-1.28-1,.08.06a1.93,1.93,0,0,0,1.2.44c1.39,0,2.53-1.66,2.53-3.7a4.47,4.47,0,0,0-1-2.89l-.07-.08v-.13c0-.13,0-.25,0-.36,0-2.05-1.13-3.71-2.53-3.71h-.21l0-.11a2.44,2.44,0,0,0-2.07-1.57c-1.13,0-2.14,1.12-2.44,2.72l0,.25-.17-.09a1.85,1.85,0,0,0-.84-.22c-1.4,0-2.54,1.66-2.54,3.7s1.14,3.71,2.54,3.71h.2l0,.13a2.6,2.6,0,0,0,2.25,2,2.1,2.1,0,0,0,1.55-.77l.18-.21.07.32c.09.47.39.8.73.8a.59.59,0,0,0,.44-.21Z"/>
    </g>
    <g id="cloud5-2" data-name="cloud5">
      <path class="cls-5" d="M96.91,135.11a3.26,3.26,0,0,1-1.93-.66,1.27,1.27,0,0,1-.83.34,1.7,1.7,0,0,1-1.46-1.28,3.44,3.44,0,0,1-2.42,1.06c-1.58,0-3-1.23-3.79-3.23h0c-2.4,0-4.36-2.87-4.36-6.39s2-6.38,4.36-6.38a3.11,3.11,0,0,1,1.22.26c.59-2.57,2.26-4.34,4.13-4.34a4.13,4.13,0,0,1,3.49,2.56h.08c2.4,0,4.36,2.87,4.36,6.39,0,.14,0,.28,0,.43a7.85,7.85,0,0,1,1.55,4.87C101.28,132.25,99.32,135.11,96.91,135.11Zm-2-1.49.14.1a3,3,0,0,0,1.82.67c2.14,0,3.88-2.54,3.88-5.66a6.87,6.87,0,0,0-1.47-4.43l-.1-.12V124c0-.19,0-.37,0-.55,0-3.13-1.74-5.67-3.87-5.67h-.11l-.21,0-.08-.17a3.73,3.73,0,0,0-3.17-2.41c-1.74,0-3.27,1.71-3.73,4.17l-.07.37-.25-.13a2.82,2.82,0,0,0-1.3-.33c-2.13,0-3.87,2.54-3.87,5.66s1.74,5.67,3.87,5.67h.31l.07.2c.67,1.88,2,3,3.43,3a3.16,3.16,0,0,0,2.37-1.18l.29-.32.1.5c.15.72.61,1.22,1.12,1.22a1,1,0,0,0,.68-.32Z"/>
    </g>
    <g id="cloud5-3" data-name="cloud5">
      <path class="cls-5" d="M107.46,148.17a1.51,1.51,0,0,1-.87-.29.63.63,0,0,1-.38.15.77.77,0,0,1-.66-.58,1.57,1.57,0,0,1-1.09.48,2,2,0,0,1-1.72-1.46h0c-1.09,0-2-1.3-2-2.89s.88-2.89,2-2.89a1.33,1.33,0,0,1,.55.12c.27-1.17,1-2,1.87-2a1.87,1.87,0,0,1,1.58,1.16h0c1.09,0,2,1.29,2,2.89v.19a3.58,3.58,0,0,1,.7,2.21C109.44,146.88,108.55,148.17,107.46,148.17Zm-.89-.67.07.05a1.36,1.36,0,0,0,.82.3c1,0,1.75-1.15,1.75-2.56a3.11,3.11,0,0,0-.66-2l0-.05v-.09a2.18,2.18,0,0,0,0-.25c0-1.42-.79-2.57-1.75-2.57h-.15l0-.08a1.7,1.7,0,0,0-1.44-1.09c-.78,0-1.48.78-1.69,1.89l0,.17-.11-.06a1.26,1.26,0,0,0-.59-.15c-1,0-1.75,1.15-1.75,2.56s.79,2.56,1.75,2.56h.14l0,.09a1.81,1.81,0,0,0,1.56,1.39,1.44,1.44,0,0,0,1.07-.54l.13-.15,0,.23c.07.32.28.55.51.55a.44.44,0,0,0,.31-.14Z"/>
    </g>
    <g id="cloud5-4" data-name="cloud5">
      <path class="cls-5" d="M83.76,151.62a1,1,0,0,1-.61-.22.4.4,0,0,1-.27.11.55.55,0,0,1-.46-.42,1.1,1.1,0,0,1-.77.35c-.51,0-1-.41-1.21-1.08h0c-.76,0-1.39-1-1.39-2.13s.63-2.14,1.39-2.14a.92.92,0,0,1,.39.09c.19-.86.72-1.45,1.32-1.45a1.33,1.33,0,0,1,1.11.85h0c.77,0,1.39,1,1.39,2.13v.15a2.74,2.74,0,0,1,.49,1.63C85.15,150.66,84.53,151.62,83.76,151.62Zm-.62-.5,0,0a1,1,0,0,0,.58.22c.68,0,1.23-.85,1.23-1.89a2.4,2.4,0,0,0-.46-1.48l0,0v-.26c0-1-.55-1.89-1.23-1.89h-.1l0-.06a1.21,1.21,0,0,0-1-.8c-.56,0-1,.57-1.19,1.39l0,.13-.08-.05a.94.94,0,0,0-.42-.11c-.68,0-1.23.85-1.23,1.9s.55,1.89,1.23,1.89h.1l0,.07c.22.63.64,1,1.1,1a1,1,0,0,0,.75-.4l.09-.1,0,.16c0,.24.2.41.36.41a.3.3,0,0,0,.22-.1Z"/>
    </g>
  </g>
  <g id="cloud">
    <g id="cloud3">
      <path class="cls-6" d="M578.74,113.23a26.89,26.89,0,0,1-11.89-2.36,10.1,10.1,0,0,1-5.07,1.56,10.24,10.24,0,0,1-9.13-5.05,26.67,26.67,0,0,1-38.28-7.8h-.1a26.72,26.72,0,1,1-1.8-53.41A26,26,0,0,1,520,47a26.69,26.69,0,0,1,46.38-9l.46,0a26.76,26.76,0,0,1,27.6,25.81c0,.6,0,1.19,0,1.82a26.71,26.71,0,0,1-15.65,47.66Zm-12.21-5.86.85.41A23.69,23.69,0,0,0,592,67.49l-.66-.49.05-.82a20.36,20.36,0,0,0,0-2.33A23.74,23.74,0,0,0,566.89,41c-.23,0-.45,0-.68.06l-1.27.11-.49-.67a23.68,23.68,0,0,0-42,8.77l-.38,1.58-1.54-.49a23.7,23.7,0,1,0-6.38,46.27l.47,0,1.39-.11.46.83a23.68,23.68,0,0,0,35.78,6.62l1.68-1.41.7,2.08a7.21,7.21,0,0,0,7,4.87,7.09,7.09,0,0,0,4.11-1.48Z"/>
    </g>
    <g id="cloud10">
      <path class="cls-6" d="M1391.61,86.33a8.21,8.21,0,0,1-3.64-.85,3.13,3.13,0,0,1-4.34-1.22,8.21,8.21,0,0,1-11.71-2.8h0a8.24,8.24,0,1,1,0-16.47,8.13,8.13,0,0,1,2.29.33,8.23,8.23,0,0,1,14.39-2.3h.14a8.25,8.25,0,0,1,8.24,8.23c0,.19,0,.37,0,.56a8.23,8.23,0,0,1-5.32,14.52Zm-3.7-1.93.25.14a7.3,7.3,0,0,0,8-12.16l-.19-.16,0-.25a6,6,0,0,0,0-.72,7.32,7.32,0,0,0-7.31-7.31h-.21l-.39,0-.15-.21a7.3,7.3,0,0,0-13,2.27l-.13.48-.48-.17a7.31,7.31,0,1,0-2.44,14.19h.14l.43,0,.14.26a7.3,7.3,0,0,0,11,2.41l.53-.42.2.65a2.21,2.21,0,0,0,3.4,1.16Z"/>
    </g>
    <g id="cloud9">
      <path class="cls-6" d="M2248.14,210.43a39.67,39.67,0,0,1-18,.54,14.88,14.88,0,0,1-6.82,3.95,15.24,15.24,0,0,1-14.9-4.26,39.64,39.64,0,0,1-58,1.46l-.14,0a39.7,39.7,0,1,1-9.3-78,39.65,39.65,0,0,1,64.15-28.53l.66-.2a39.75,39.75,0,0,1,48.57,28.17c.23.86.42,1.73.6,2.63a39.68,39.68,0,0,1-6.78,74.23ZM2228.52,206l1.35.33A35.21,35.21,0,0,0,2252,139.8l-1.12-.49-.19-1.2c-.2-1.2-.44-2.31-.73-3.39a35.25,35.25,0,0,0-43.09-25,9.75,9.75,0,0,0-1,.3l-1.8.58-.95-.79a35.18,35.18,0,0,0-57.86,26.68l0,2.41-2.4-.19a35.21,35.21,0,1,0,6.18,69.12c.23-.06.45-.14.68-.22l2-.61,1,1a35.17,35.17,0,0,0,54-2.34l2-2.59,1.71,2.78a10.71,10.71,0,0,0,11.79,4.7,10.5,10.5,0,0,0,5.46-3.51Z"/>
    </g>
    <g id="cloud8">
      <path class="cls-6" d="M1686.66,170.2a26.82,26.82,0,0,1-12,1.74,10.13,10.13,0,0,1-4.26,3.16,10.25,10.25,0,0,1-10.29-1.72,26.36,26.36,0,0,1-12.12,9.55,26.66,26.66,0,0,1-26.58-4.13l-.09,0a26.72,26.72,0,1,1-12.18-51.46,26.69,26.69,0,0,1,40.72-24l.42-.18a26.74,26.74,0,0,1,34.63,15.12c.22.56.42,1.12.6,1.72a26.7,26.7,0,0,1,1.14,50.15Zm-13.46-1.46.93.12a23.7,23.7,0,0,0,9.73-46.19l-.78-.24-.22-.79c-.22-.78-.47-1.51-.74-2.21A23.75,23.75,0,0,0,1651.39,106c-.21.08-.41.18-.62.28l-1.16.52-.69-.46a23.68,23.68,0,0,0-36.65,22.27l.17,1.61-1.62.06a23.32,23.32,0,0,0-7.9,1.6A23.71,23.71,0,0,0,1620.23,176l.44-.19,1.27-.57.71.63a23.68,23.68,0,0,0,35.94-5.69l1.12-1.88,1.35,1.72a7.14,7.14,0,0,0,11.63-.52Z"/>
    </g>
    <g id="cloud7">
      <path class="cls-6" d="M1965.77,71.16A26.63,26.63,0,0,1,1954,68.4a10,10,0,0,1-5.13,1.39,10.24,10.24,0,0,1-8.95-5.35,26.69,26.69,0,0,1-38-9.09h-.1a26.72,26.72,0,0,1,0-53.44A26.38,26.38,0,0,1,1909.24,3a26.69,26.69,0,0,1,46.66-7.47h.46a26.75,26.75,0,0,1,26.72,26.72c0,.6,0,1.2-.07,1.82a26.7,26.7,0,0,1-17.24,47.1Zm-12-6.26.82.44a23.69,23.69,0,0,0,25.92-39.44l-.64-.51.08-.82c.08-.81.12-1.58.12-2.33a23.74,23.74,0,0,0-23.71-23.71c-.23,0-.45,0-.68,0l-1.27.07-.48-.68a23.68,23.68,0,0,0-42.25,7.35l-.42,1.56-1.53-.54a23.7,23.7,0,1,0-7.94,46c.16,0,.32,0,.48,0l1.38-.06.44.85a23.69,23.69,0,0,0,35.53,7.82l1.74-1.35.63,2.1a7.19,7.19,0,0,0,6.85,5.1,7.07,7.07,0,0,0,4.16-1.34Z"/>
    </g>
    <g id="cloud2">
      <path class="cls-6" d="M857.33,197.65a18,18,0,0,1-7.92-1.85,6.8,6.8,0,0,1-3.44.93,6.91,6.91,0,0,1-6-3.59A17.93,17.93,0,0,1,814.43,187h-.07a17.95,17.95,0,1,1,5-35.16,17.91,17.91,0,0,1,31.33-5H851a18,18,0,0,1,18,17.94c0,.4,0,.81,0,1.22a17.94,17.94,0,0,1-11.59,31.64Zm-8.06-4.21.56.3a15.91,15.91,0,0,0,17.41-26.49l-.43-.35.05-.54c0-.55.08-1.06.08-1.57A15.94,15.94,0,0,0,851,148.87l-.45,0-.85,0-.32-.45A15.9,15.9,0,0,0,821,153.41l-.29,1.05-1-.36A15.92,15.92,0,1,0,814.36,185h.32l.93,0,.3.56a15.9,15.9,0,0,0,23.86,5.26l1.17-.91.42,1.41a4.85,4.85,0,0,0,4.61,3.43,4.76,4.76,0,0,0,2.79-.9Z"/>
    </g>
    <g id="cloud6">
      <path class="cls-6" d="M1147.65,38.93a35.4,35.4,0,0,1-15.1,5.44,13.35,13.35,0,0,1-4.69,5.23,13.56,13.56,0,0,1-13.8.5,35.35,35.35,0,0,1-48.78,17.27l-.11.07a35.38,35.38,0,1,1-29.43-63.55,35.47,35.47,0,0,1,15-38.41A35.43,35.43,0,0,1,1082.22-38l.5-.34a35.42,35.42,0,0,1,48.94,10.45c.43.66.84,1.34,1.24,2.06A35.22,35.22,0,0,1,1158.11-10,35.41,35.41,0,0,1,1147.65,38.93Zm-17.84,1.68,1.23-.1a31.37,31.37,0,0,0,23.72-48.35A31.27,31.27,0,0,0,1131.44-22l-1.08-.1-.5-1a27.13,27.13,0,0,0-1.55-2.67A31.43,31.43,0,0,0,1084.89-35c-.25.16-.49.34-.73.52l-1.36,1-1-.41a31.47,31.47,0,0,0-28.85,2.74,31.42,31.42,0,0,0-12.81,35.85l.65,2.05-2.09.5A31.39,31.39,0,1,0,1063,64.1l.51-.37,1.5-1.07,1.09.62a31.35,31.35,0,0,0,45.12-16.89l1-2.75,2.21,1.88a9.53,9.53,0,0,0,11.29.73,9.32,9.32,0,0,0,3.66-4.48Z"/>
    </g>
    <g id="cloud5-5" data-name="cloud5">
      <path class="cls-6" d="M446.08,195.79a14.53,14.53,0,0,1-6.37-1.49,5.45,5.45,0,0,1-2.76.75,5.53,5.53,0,0,1-4.83-2.89,14.4,14.4,0,0,1-20.51-4.9h-.05a14.42,14.42,0,1,1,4-28.26,14.41,14.41,0,0,1,25.18-4H441a14.44,14.44,0,0,1,14.42,14.42c0,.32,0,.64,0,1a14.41,14.41,0,0,1-9.31,25.42Zm-6.48-3.38.45.24a12.79,12.79,0,0,0,14-21.29l-.35-.28,0-.43a11.13,11.13,0,0,0,.07-1.26,12.81,12.81,0,0,0-12.8-12.8l-.36,0-.69,0-.25-.36a12.78,12.78,0,0,0-22.81,4l-.23.85-.82-.29a12.79,12.79,0,1,0-4.28,24.83h.25l.75,0,.24.45A12.77,12.77,0,0,0,432,190.26l.94-.72.34,1.13a3.88,3.88,0,0,0,3.7,2.75,3.83,3.83,0,0,0,2.24-.72Z"/>
    </g>
    <g id="cloud4">
      <path class="cls-6" d="M2680.29,110.34a26.69,26.69,0,0,1-11.8-2.76,10.12,10.12,0,0,1-5.12,1.39,10.24,10.24,0,0,1-8.95-5.35,26.7,26.7,0,0,1-38-9.09h-.1a26.72,26.72,0,0,1,0-53.44,26.28,26.28,0,0,1,7.45,1.08,26.69,26.69,0,0,1,46.66-7.47h.46a26.75,26.75,0,0,1,26.72,26.72c0,.6,0,1.2-.06,1.82a26.7,26.7,0,0,1-17.25,47.1Zm-12-6.26.83.44A23.69,23.69,0,0,0,2695,65.08l-.64-.51.08-.82c.08-.81.12-1.58.12-2.33a23.74,23.74,0,0,0-23.71-23.71c-.23,0-.45,0-.67,0l-1.28.07-.47-.68a23.68,23.68,0,0,0-42.25,7.35l-.43,1.56-1.53-.54a23.7,23.7,0,1,0-7.94,46l.48,0,1.39-.06.44.85a23.69,23.69,0,0,0,35.53,7.82l1.73-1.35.63,2.1a7.21,7.21,0,0,0,6.86,5.1,7.11,7.11,0,0,0,4.16-1.34Z"/>
    </g>
    <g id="cloud1">
      <path class="cls-6" d="M2901.5,165.67a3.06,3.06,0,0,1-1.39-.33,1.22,1.22,0,0,1-.61.17,1.19,1.19,0,0,1-1.06-.64,3.11,3.11,0,0,1-1.75.53,3.16,3.16,0,0,1-2.76-1.6h0a3.17,3.17,0,0,1,0-6.34,2.93,2.93,0,0,1,.88.13,3.16,3.16,0,0,1,5.53-.89h.06a3.17,3.17,0,0,1,3.17,3.17c0,.07,0,.14,0,.22a3.16,3.16,0,0,1-2.05,5.58Zm-1.42-.74.1,0a2.78,2.78,0,0,0,1.32.33,2.81,2.81,0,0,0,1.75-5l-.07-.06v-.09a2.72,2.72,0,0,0,0-.28,2.81,2.81,0,0,0-2.81-2.81h-.23l-.06-.08a2.81,2.81,0,0,0-5,.87l-.05.19-.18-.07a2.77,2.77,0,0,0-.94-.16,2.81,2.81,0,1,0,0,5.62h.22l.05.1a2.81,2.81,0,0,0,4.22.93l.2-.16.08.25a.85.85,0,0,0,.81.6.78.78,0,0,0,.49-.16Z"/>
    </g>
  </g>
  
    <g id="station">
      <g>
        <path class="cls-7" d="M563.59,187.6h-74c-3.06,0-5.53-1.26-5.53-2.81V162.27c0-1.55,2.47-2.81,5.53-2.81h74c3,0,5.53,1.26,5.53,2.81v22.52C569.12,186.34,566.64,187.6,563.59,187.6Z"/>
        <path class="cls-8" d="M520.23,187.6h10V251h-10Z"/>
        <path class="cls-8" d="M520.23,148.17h10v11.29h-10Z"/>
      </g>

      <g id="tekst">
        <text class="cls-9" transform="translate(493.33 177.3)">NY ELLEBJERG</text>
      </g>
    </g>
    <g>
    <g id="train">
      <rect class="cls-10" x="7.1" y="226.97" width="116.45" height="41.8"/>
      <circle cx="19.3" cy="289.67" r="11.94"/>
      <circle cx="52.15" cy="289.67" r="11.94"/>
      <circle cx="84.99" cy="289.67" r="11.94"/>
      <circle cx="117.84" cy="289.67" r="11.94"/>
      <path class="cls-5" d="M162.1,286.68H136a.26.26,0,0,1-.26-.26V251.64a.26.26,0,0,1,.47-.16l26.09,34.78A.26.26,0,0,1,162.1,286.68Z"/>
      <rect class="cls-7" x="87.71" y="206.06" width="26.87" height="20.9"/>
      <path class="cls-7" d="M114.59,206.06H87.71l-5.9-10.27a3.08,3.08,0,0,1,2.64-4.66h33.93a3.07,3.07,0,0,1,2.63,4.66Z"/>
      <path class="cls-10" d="M1.12,268.77v17.91H7.78a11.89,11.89,0,0,1,23,0h9.81a11.89,11.89,0,0,1,23,0h9.8a11.9,11.9,0,0,1,23,0h9.8a11.9,11.9,0,0,1,23.05,0h6.39V268.77Z"/>
      <rect class="cls-10" x="13.07" y="185.16" width="47.77" height="41.8"/>
      <path class="cls-10" d="M67.08,188.15H7.36a3,3,0,1,1,0-6H67.08a3,3,0,0,1,0,6Z"/>
      <rect class="cls-5" x="25.01" y="197.11" width="23.89" height="29.86"/>
      <circle class="cls-7" cx="36.95" cy="247.87" r="11.94"/>
      <path class="cls-5" d="M72.79,259.81a3,3,0,0,1-2.12-5.1L88.59,236.8A3,3,0,0,1,92.81,241L74.9,258.94A3,3,0,0,1,72.79,259.81Z"/>
      <path class="cls-5" d="M90.7,259.81a3,3,0,0,1-2.11-5.1L106.5,236.8a3,3,0,0,1,4.23,4.22L92.81,258.94A3,3,0,0,1,90.7,259.81Z"/>
    </g>
    <g id="roeg">
      <g id="cloud5-6" data-name="cloud5">
        <path class="cls-5" d="M103.81,190.06a2.15,2.15,0,0,1-1.26-.43.86.86,0,0,1-.55.21,1.13,1.13,0,0,1-1-.83,2.22,2.22,0,0,1-1.57.7A2.87,2.87,0,0,1,97,187.59h0c-1.58,0-2.86-1.87-2.86-4.17s1.28-4.17,2.86-4.17a1.88,1.88,0,0,1,.79.17c.39-1.69,1.48-2.84,2.7-2.84a2.69,2.69,0,0,1,2.28,1.67h0c1.57,0,2.85,1.87,2.85,4.17v.28a5.15,5.15,0,0,1,1,3.19C106.66,188.19,105.38,190.06,103.81,190.06Zm-1.29-1,.09.07a1.93,1.93,0,0,0,1.2.44c1.39,0,2.53-1.66,2.53-3.7a4.48,4.48,0,0,0-1-2.9l-.07-.08v-.13c0-.12,0-.24,0-.36,0-2-1.13-3.7-2.53-3.7h-.21l0-.1a2.43,2.43,0,0,0-2.07-1.58c-1.14,0-2.14,1.12-2.44,2.73l0,.24-.17-.08a1.73,1.73,0,0,0-.84-.22c-1.4,0-2.54,1.66-2.54,3.7s1.14,3.7,2.54,3.7h.19l0,.13a2.61,2.61,0,0,0,2.25,2,2.08,2.08,0,0,0,1.55-.78l.18-.21.07.33c.09.47.39.79.73.79a.62.62,0,0,0,.44-.2Z"/>
      </g>
      <g id="cloud5-7" data-name="cloud5">
        <path class="cls-5" d="M111.7,188.06a.86.86,0,0,1-.47-.16.32.32,0,0,1-.2.08.41.41,0,0,1-.35-.31.82.82,0,0,1-.58.26,1.07,1.07,0,0,1-.92-.78h0c-.58,0-1.06-.69-1.06-1.54s.48-1.54,1.06-1.54a.75.75,0,0,1,.29.06c.14-.62.54-1,1-1a1,1,0,0,1,.84.62h0c.58,0,1,.69,1,1.54v.1a1.89,1.89,0,0,1,.37,1.18C112.75,187.37,112.28,188.06,111.7,188.06Zm-.47-.36,0,0a.68.68,0,0,0,.44.16c.51,0,.93-.61.93-1.36a1.68,1.68,0,0,0-.35-1.07l0,0v-.18c0-.76-.42-1.37-.93-1.37h-.08l0,0a.88.88,0,0,0-.76-.58c-.42,0-.79.41-.9,1l0,.09-.06,0a.71.71,0,0,0-.31-.08c-.52,0-.94.61-.94,1.37s.42,1.36.94,1.36h.07l0,.05a1,1,0,0,0,.83.73.76.76,0,0,0,.57-.28l.07-.08,0,.12c0,.17.15.3.27.3a.25.25,0,0,0,.17-.08Z"/>
      </g>
      <g id="cloud5-8" data-name="cloud5">
        <path class="cls-5" d="M88.33,178.56a1.53,1.53,0,0,1-.89-.31.54.54,0,0,1-.38.16.82.82,0,0,1-.68-.59,1.59,1.59,0,0,1-1.11.49,2,2,0,0,1-1.74-1.49h0c-1.11,0-2-1.32-2-2.94s.9-2.94,2-2.94a1.41,1.41,0,0,1,.56.12c.27-1.19,1-2,1.9-2a1.91,1.91,0,0,1,1.61,1.18h0c1.11,0,2,1.31,2,2.94v.2a3.61,3.61,0,0,1,.71,2.24C90.34,177.24,89.44,178.56,88.33,178.56Zm-.9-.69.06,0a1.39,1.39,0,0,0,.84.31c1,0,1.79-1.17,1.79-2.61a3.15,3.15,0,0,0-.68-2l0-.06v-.09a2.18,2.18,0,0,0,0-.25c0-1.44-.8-2.61-1.79-2.61h-.14l0-.08A1.72,1.72,0,0,0,86,169.39c-.8,0-1.51.79-1.72,1.92l0,.17-.12-.06a1.26,1.26,0,0,0-.59-.15c-1,0-1.79,1.17-1.79,2.61s.8,2.61,1.79,2.61h.14l0,.09A1.84,1.84,0,0,0,85.27,178a1.44,1.44,0,0,0,1.09-.55l.14-.15,0,.24c.07.33.28.56.52.56a.42.42,0,0,0,.31-.15Z"/>
      </g>
    </g>
  </g>
</svg>
